<svg width="616" height="323" viewBox="0 0 616 323" fill="none" xmlns="http://www.w3.org/2000/svg">
<g clip-path="url(#clip0)">
<path d="M174.069 141.845C181.673 136.716 191.985 138.714 197.107 146.308C202.229 153.902 200.79 163.826 193.216 168.935C185.612 174.064 174.729 172.451 169.607 164.857C164.455 157.283 166.465 146.974 174.069 141.845Z" stroke="#252B58" stroke-width="3" stroke-miterlimit="10"/>
<path d="M67.84 105.975L140.97 214.395L141.33 214.151L141.26 214.111L68.3528 106.022L126.328 66.9174L126.126 66.6172L67.8197 105.945L67.84 105.975ZM141.26 214.111L134.315 203.816L133.985 204.039L140.97 214.395L141.33 214.151L141.26 214.111ZM141.26 214.111L134.315 203.816L133.985 204.039L140.97 214.395L141.33 214.151L141.26 214.111ZM141.26 214.111L134.315 203.816L133.985 204.039L140.97 214.395L141.33 214.151L141.26 214.111ZM141.26 214.111L134.315 203.816L133.985 204.039L140.97 214.395L141.33 214.151L141.26 214.111ZM141.26 214.111L134.315 203.816L133.985 204.039L140.97 214.395L141.33 214.151L141.26 214.111ZM159.74 219.727L137.199 234.931L137.3 234.95L159.841 219.746L159.74 219.727ZM141.26 214.111L134.315 203.816L133.985 204.039L140.97 214.395L141.33 214.151L141.26 214.111ZM141.26 214.111L134.315 203.816L133.985 204.039L140.97 214.395L141.33 214.151L141.26 214.111ZM141.26 214.111L134.315 203.816L133.985 204.039L140.97 214.395L141.33 214.151L141.26 214.111ZM141.26 214.111L134.315 203.816L133.985 204.039L140.97 214.395L141.33 214.151L141.26 214.111ZM141.26 214.111L134.315 203.816L133.985 204.039L140.97 214.395L141.33 214.151L141.26 214.111ZM197.609 194.184L197.589 194.284L220.1 179.101L220.12 179L197.609 194.184ZM141.26 214.111L134.315 203.816L133.985 204.039L140.97 214.395L141.33 214.151L141.26 214.111Z" stroke="#252B58" stroke-width="3" stroke-miterlimit="10"/>
<path d="M207.658 187.493L216.829 201.091L214.619 215.771L212.855 227.355L209.165 252.029L209.045 252.111L184.976 246.378L173.384 243.584L158.22 239.968L149.352 226.821L159.841 219.746L168.88 222.515L193.52 230.002L194.386 230.248L194.452 229.374L196.759 203.492L197.59 194.284L207.658 187.493Z" fill="#4E668D" stroke="#252B58" stroke-width="3" stroke-miterlimit="10"/>
<path d="M95.9281 146.905L95.8786 147.026" stroke="#252B58" stroke-width="3" stroke-miterlimit="10"/>
<path d="M126.559 66.8055L126.45 67.0975" stroke="#252B58" stroke-width="3" stroke-miterlimit="10"/>
<path d="M105.019 160.382L104.969 160.503" stroke="#252B58" stroke-width="3" stroke-miterlimit="10"/>
<path d="M136.512 82.0156L136.621 81.7236L136.641 81.6231" stroke="#252B58" stroke-width="3" stroke-miterlimit="10"/>
<path d="M189.556 160.267L189.294 160.268" stroke="#252B58" stroke-width="3" stroke-miterlimit="10"/>
<path d="M105.363 160.892L105.283 160.903" stroke="#252B58" stroke-width="3" stroke-miterlimit="10"/>
<path d="M115.243 175.54L115.193 175.53" stroke="#252B58" stroke-width="3" stroke-miterlimit="10"/>
<path d="M177.505 174.946L177.164 174.958" stroke="#252B58" stroke-width="3" stroke-miterlimit="10"/>
<path d="M199.365 174.745L199.053 174.736" stroke="#252B58" stroke-width="3" stroke-miterlimit="10"/>
<path d="M115.902 51.4589L126.146 66.6472L138.949 58.0113L128.705 42.823L115.902 51.4589Z" fill="#4E668D" stroke="#252B58" stroke-width="3" stroke-miterlimit="10"/>
<path d="M138.949 58.0113L212.079 166.431L199.306 175.046L199.365 174.744L126.559 66.8055L126.349 66.9474L126.146 66.6472L138.949 58.0113Z" fill="#4E668D" stroke="#252B58" stroke-width="3" stroke-miterlimit="10"/>
<path d="M220.101 179.101L216.829 201.091L207.658 187.493L220.101 179.101Z" fill="#4E668D" stroke="#252B58" stroke-width="3" stroke-miterlimit="10"/>
<path d="M212.079 166.431L220.218 178.497L220.12 179L207.617 187.433L199.316 175.127L199.306 175.046L212.079 166.431Z" fill="#4E668D" stroke="#252B58" stroke-width="2" stroke-miterlimit="10"/>
<path d="M120.714 30.1327L128.893 42.2593L128.954 42.3494L139.34 57.7478L144.22 64.9817L159.546 87.7042L174.852 110.397L190.179 133.119L205.505 155.841L212.47 166.167L220.811 178.534L220.852 178.594L236.138 201.256L251.444 223.949L253.469 226.95" stroke="#252B58" stroke-miterlimit="10"/>
<path d="M55.5777 114.246L128.707 222.666L140.97 214.395L67.84 105.975L55.5777 114.246Z" fill="#4E668D" stroke="#252B58" stroke-width="3" stroke-miterlimit="10"/>
<path d="M140.97 214.395L149.311 226.761L137.199 234.931L136.948 234.882L128.707 222.666L140.97 214.395Z" fill="#4E668D" stroke="#252B58" stroke-width="2" stroke-miterlimit="10"/>
<path d="M149.352 226.821L158.22 239.968L137.3 234.95L149.352 226.821Z" fill="#4E668D" stroke="#252B58" stroke-width="3" stroke-miterlimit="10"/>
<path d="M37.107 87.7051L44.7398 99.0213L44.8006 99.1114L55.1869 114.51L60.0663 121.744L75.3928 144.466L90.699 167.159L106.025 189.881L121.352 212.603L128.317 222.929L136.658 235.296L136.699 235.356L151.985 258.018L167.291 280.711L168.749 282.872" stroke="#252B58" stroke-miterlimit="10"/>
<path d="M45.333 99.058L55.5777 114.246L67.84 105.975L57.5954 90.7869L45.333 99.058Z" fill="#4E668D" stroke="#252B58" stroke-width="3" stroke-miterlimit="10"/>
<path d="M57.5954 90.7869L67.84 105.975L126.116 66.6675L115.871 51.4792L57.5954 90.7869Z" fill="#4E668D" stroke="#252B58" stroke-width="3" stroke-miterlimit="10"/>
<path d="M141.757 33.7134L128.954 42.3494L128.864 42.4102L115.76 51.2489L100.853 61.3039L72.8717 80.1773L57.4536 90.5769L44.8908 99.0506L44.8006 99.1115L32.929 107.119" stroke="#252B58" stroke-miterlimit="10"/>
<path d="M138.949 58.0113L139.25 57.8086L139.34 57.7478L151.843 49.3145" stroke="#252B58" stroke-miterlimit="10"/>
<path d="M55.5777 114.246L55.2771 114.449L55.187 114.51L42.5339 123.044" stroke="#252B58" stroke-miterlimit="10"/>
<path d="M240.275 235.85L238.25 232.848L222.944 210.156L216.829 201.091" stroke="#252B58" stroke-miterlimit="10"/>
<path d="M199.316 175.127L199.276 175.066L199.053 174.736" stroke="#252B58" stroke-miterlimit="10"/>
<path d="M126.45 67.0975L126.349 66.9476" stroke="#252B58" stroke-miterlimit="10"/>
<path d="M126.45 67.0975L136.512 82.0157L128.408 102.156L124.803 111.139L113.202 139.97L106.598 156.435L105.019 160.382L95.9283 146.905L103.869 126.132L104.336 124.944L118.588 87.5982L121.348 80.4089L126.45 67.0975Z" fill="#4E668D" stroke="#252B58" stroke-width="3" stroke-miterlimit="10"/>
<path d="M189.294 160.268L176.985 142.018L161.658 119.296L146.352 96.6036L136.512 82.0156" stroke="#252B58" stroke-miterlimit="10"/>
<path d="M199.316 175.127L207.617 187.433L197.609 194.184L199.316 175.127Z" fill="#4E668D" stroke="#252B58" stroke-width="2" stroke-miterlimit="10"/>
<path d="M207.658 187.493L207.617 187.433" stroke="#252B58" stroke-miterlimit="10"/>
<path d="M115.901 51.4589L115.76 51.2487L115.699 51.1587L107.601 39.1521" stroke="#252B58" stroke-miterlimit="10"/>
<path d="M159.74 219.727L149.311 226.761L140.97 214.394L141.33 214.151L159.74 219.727Z" fill="#4E668D" stroke="#252B58" stroke-width="3" stroke-miterlimit="10"/>
<path d="M181.483 274.457L179.944 272.176L164.638 249.484L158.22 239.968" stroke="#252B58" stroke-miterlimit="10"/>
<path d="M149.352 226.821L149.311 226.761" stroke="#252B58" stroke-miterlimit="10"/>
<path d="M57.5954 90.7869L57.4536 90.5768L57.3929 90.4868L49.6791 79.0506" stroke="#252B58" stroke-miterlimit="10"/>
<path d="M220.101 179.101L220.762 178.655L220.852 178.594L233.174 170.282" stroke="#252B58" stroke-miterlimit="10"/>
<path d="M197.59 194.285L192.751 197.548L164.77 216.422L159.841 219.746" stroke="#252B58" stroke-miterlimit="10"/>
<path d="M137.3 234.95L136.789 235.295L136.699 235.356L126.45 242.269" stroke="#252B58" stroke-miterlimit="10"/>
<path d="M224.792 157.855L212.47 166.167L212.38 166.228L212.079 166.431" stroke="#252B58" stroke-miterlimit="10"/>
<path d="M118.008 229.882L128.317 222.929L128.407 222.868L128.707 222.666" stroke="#252B58" stroke-miterlimit="10"/>
<path d="M177.505 174.946L199.053 174.736L189.294 160.268L167.726 160.448L149.485 160.567L127.213 160.741L105.363 160.892L115.243 175.54L127.455 175.427L137.053 175.329L177.164 174.958L177.505 174.946Z" fill="#4E668D" stroke="#252B58" stroke-width="3" stroke-miterlimit="10"/>
<path d="M141.33 214.151L156.388 203.995L184.369 185.122L199.276 175.067L199.306 175.046" stroke="#252B58" stroke-miterlimit="10"/>
<path d="M43.9864 82.4099L42.2442 81.707L42.3634 83.5046L41.2213 84.2749L41.1063 81.2518L38.3973 80.1529L39.5995 79.342L41.2711 80.0051L41.1623 78.2878L42.3044 77.5175L42.4091 80.4604L45.1683 81.569L43.9661 82.3798L43.9864 82.4099Z" fill="#252B58"/>
<path d="M247.825 230.058L246.083 229.355L246.202 231.153L245.06 231.923L244.945 228.9L242.236 227.801L243.438 226.99L245.11 227.653L245.001 225.936L246.143 225.166L246.248 228.109L249.007 229.217L247.805 230.028L247.825 230.058Z" fill="#252B58"/>
<path d="M176.203 278.106L174.461 277.403L174.58 279.2L173.438 279.971L173.323 276.947L170.614 275.849L171.817 275.038L173.488 275.701L173.379 273.984L174.521 273.213L174.626 276.156L177.385 277.265L176.183 278.076L176.203 278.106Z" fill="#252B58"/>
<path d="M114.942 33.7637L113.2 33.0609L113.319 34.8584L112.177 35.6288L112.062 32.6057L109.353 31.5068L110.555 30.6959L112.227 31.359L112.118 29.6418L113.26 28.8714L113.365 31.8142L116.124 32.9228L114.922 33.7337L114.942 33.7637Z" fill="#252B58"/>
<path d="M96.5719 92.0853L80.8405 68.7626L47.0289 91.5688L62.7603 114.892L96.5719 92.0853Z" fill="#4E668D" stroke="#252B58" stroke-width="3" stroke-miterlimit="10"/>
<path d="M55.7019 104.411L54.1024 102.039L40.2472 111.385L41.8467 113.756L55.7019 104.411Z" fill="#4E668D" stroke="#252B58" stroke-width="3" stroke-miterlimit="10"/>
<path d="M86.7458 64.3118L102.477 87.6345L136.289 64.8283L120.557 41.5056L86.7458 64.3118Z" fill="#4E668D" stroke="#252B58" stroke-width="3" stroke-miterlimit="10"/>
<path d="M127.623 51.9813L129.223 54.3526L143.078 45.0071L141.478 42.6358L127.623 51.9813Z" fill="#4E668D" stroke="#252B58" stroke-width="3" stroke-miterlimit="10"/>
<path d="M167.698 54.6041L154.565 63.463C152.22 65.0442 149.051 64.4303 147.472 62.089L128.987 34.6841C127.408 32.3428 128.026 29.1746 130.37 27.5934L143.504 18.7345C145.848 17.1532 149.017 17.7671 150.597 20.1084L169.081 47.5134C170.661 49.8547 170.043 53.0228 167.698 54.6041Z" fill="#4E668D" stroke="#252B58" stroke-width="3" stroke-miterlimit="10"/>
<path d="M55.2638 130.442L42.1299 139.301C39.7856 140.882 36.6166 140.269 35.0374 137.927L16.5525 110.522C14.9733 108.181 15.5912 105.013 17.9355 103.432L31.0694 94.5726C33.4137 92.9914 36.5826 93.6053 38.1618 95.9466L56.6468 123.352C58.226 125.693 57.608 128.861 55.2638 130.442Z" fill="#4E668D" stroke="#252B58" stroke-width="3" stroke-miterlimit="10"/>
<path d="M134.271 226.515L123.001 234.117L124.58 236.458L135.85 228.856L134.271 226.515Z" fill="#4E668D" stroke="#252B58" stroke-width="2" stroke-miterlimit="10"/>
<path d="M224.643 165.573L213.372 173.175L214.951 175.516L226.222 167.914L224.643 165.573Z" fill="#4E668D" stroke="#252B58" stroke-width="2" stroke-miterlimit="10"/>
<path d="M249.91 176.682L236.776 185.54C234.431 187.122 231.262 186.508 229.683 184.167L211.198 156.762C209.619 154.42 210.237 151.252 212.581 149.671L225.715 140.812C228.06 139.231 231.228 139.845 232.808 142.186L251.293 169.591C252.902 171.912 252.284 175.08 249.91 176.682Z" fill="#4E668D" stroke="#252B58" stroke-width="3" stroke-miterlimit="10"/>
<path d="M137.505 252.499L124.371 261.358C122.027 262.94 118.858 262.326 117.279 259.984L98.7937 232.58C97.2145 230.238 97.8324 227.07 100.177 225.489L113.311 216.63C115.655 215.049 118.824 215.663 120.403 218.004L138.888 245.409C140.467 247.75 139.849 250.918 137.505 252.499Z" fill="#4E668D" stroke="#252B58" stroke-width="3" stroke-miterlimit="10"/>
<path d="M163.54 146.851C163.519 146.69 163.548 146.539 163.578 146.388C163.658 146.247 163.758 146.136 163.878 146.055C164.058 145.934 164.199 145.882 164.349 145.912C164.5 145.941 164.621 145.99 164.753 146.12L164.783 146.1C164.68 145.689 164.759 145.417 165.09 145.194C165.24 145.093 165.381 145.042 165.541 145.021C165.702 144.999 165.853 145.029 166.014 145.138C166.176 145.248 166.287 145.348 166.408 145.528C166.611 145.828 166.712 146.109 166.663 146.36C166.635 146.641 166.485 146.873 166.184 147.076L165.779 146.476C165.9 146.395 165.97 146.304 165.989 146.203C166.009 146.103 165.978 145.992 165.917 145.902C165.857 145.812 165.786 145.772 165.685 145.753C165.585 145.734 165.505 145.744 165.414 145.805C165.204 145.947 165.215 146.158 165.418 146.458L165.498 146.578L164.988 146.923L164.907 146.802C164.724 146.532 164.533 146.443 164.323 146.585C164.232 146.646 164.193 146.716 164.153 146.787C164.133 146.887 164.174 146.947 164.214 147.008C164.275 147.098 164.345 147.137 164.446 147.157C164.547 147.176 164.657 147.146 164.747 147.085L165.152 147.685C164.882 147.867 164.61 147.919 164.359 147.871C164.107 147.822 163.906 147.652 163.703 147.352C163.632 147.182 163.561 147.011 163.54 146.851Z" fill="#252B58"/>
<path d="M164.306 145.199C163.915 145.462 163.524 145.595 163.212 145.587C162.871 145.599 162.568 145.41 162.325 145.05C162.082 144.69 162.04 144.368 162.159 144.026C162.299 143.714 162.538 143.421 162.929 143.158C163.32 142.894 163.711 142.761 164.053 142.749C164.394 142.737 164.697 142.926 164.94 143.286C165.183 143.646 165.225 143.968 165.106 144.31C164.987 144.652 164.697 144.935 164.306 145.199ZM163.354 143.788C163.114 143.95 162.984 144.081 162.904 144.223C162.824 144.364 162.825 144.494 162.946 144.674C163.048 144.824 163.189 144.904 163.35 144.883C163.51 144.862 163.711 144.77 163.921 144.628C164.162 144.466 164.292 144.335 164.401 144.173C164.481 144.032 164.481 143.902 164.359 143.722C164.258 143.572 164.117 143.492 163.956 143.513C163.765 143.554 163.565 143.646 163.354 143.788Z" fill="#252B58"/>
<path d="M160.835 142.387C160.874 142.185 160.964 141.994 161.174 141.852C161.384 141.71 161.575 141.669 161.797 141.738C161.998 141.777 162.179 141.916 162.341 142.157C162.483 142.367 162.544 142.587 162.525 142.818C162.506 143.05 162.397 143.211 162.186 143.353C161.976 143.495 161.785 143.536 161.564 143.467C161.363 143.428 161.181 143.289 161.019 143.048C160.857 142.808 160.796 142.588 160.835 142.387ZM161.531 142.965C161.632 142.985 161.742 142.954 161.832 142.893C161.922 142.832 161.992 142.741 162.012 142.641C162.032 142.54 162.021 142.46 161.96 142.37C161.92 142.31 161.829 142.24 161.749 142.25C161.668 142.261 161.588 142.272 161.468 142.353C161.348 142.434 161.308 142.504 161.288 142.605C161.269 142.705 161.279 142.786 161.319 142.846C161.39 142.886 161.461 142.925 161.531 142.965Z" fill="#252B58"/>
</g>
<g clip-path="url(#clip1)">
<path d="M464.751 76.7987C441.397 56.9209 406.513 55.4665 381.398 75.088C356.284 94.7095 349.256 128.909 362.893 156.378C364.831 160.301 367.195 164.09 370.025 167.713C372.856 171.336 375.928 174.505 379.266 177.334L481.123 97.7547C479.186 93.8319 476.822 90.0428 474.024 86.461C471.225 82.8791 468.088 79.6279 464.751 76.7987ZM380.515 142.611C373.896 124.974 379.143 104.365 394.747 92.174C410.351 79.983 431.618 79.877 447.129 90.5659L380.515 142.611Z" fill="#4E668D" stroke="#171D4D" stroke-width="3" stroke-miterlimit="10"/>
<path d="M456.938 99.81C459.8 103.474 461.958 107.424 463.502 111.522L396.887 163.567C393.285 161.078 389.942 157.987 387.111 154.364C384.281 150.741 382.091 146.75 380.515 142.611L447.129 90.5659C450.764 93.0966 454.075 96.1458 456.938 99.81Z" fill="#4E668D" stroke="#171D4D" stroke-width="3" stroke-miterlimit="10"/>
<path d="M477.761 66.6341L349.883 166.543L366.256 187.499L494.133 87.5902L477.761 66.6341Z" fill="#4E668D" stroke="#171D4D" stroke-width="3" stroke-miterlimit="10"/>
<path d="M371.608 183.317L367.941 178.624" stroke="#171D4D" stroke-width="3" stroke-miterlimit="10"/>
<path d="M400.881 160.447L397.214 155.754" stroke="#171D4D" stroke-width="3" stroke-miterlimit="10"/>
<path d="M378.937 177.592L377.554 175.821L376.975 175.08" stroke="#171D4D" stroke-width="3" stroke-miterlimit="10"/>
<path d="M386.224 171.898L384.262 169.387" stroke="#171D4D" stroke-width="3" stroke-miterlimit="10"/>
<path d="M393.552 166.173L391.59 163.661" stroke="#171D4D" stroke-width="3" stroke-miterlimit="10"/>
<path d="M430.195 137.545L425.981 132.151" stroke="#171D4D" stroke-width="3" stroke-miterlimit="10"/>
<path d="M408.209 154.721L405.733 151.551" stroke="#171D4D" stroke-width="3" stroke-miterlimit="10"/>
<path d="M415.538 148.996L413.061 145.826" stroke="#171D4D" stroke-width="3" stroke-miterlimit="10"/>
<path d="M422.866 143.27L420.389 140.1" stroke="#171D4D" stroke-width="3" stroke-miterlimit="10"/>
<path d="M459.467 114.674L454.868 108.787" stroke="#171D4D" stroke-width="3" stroke-miterlimit="10"/>
<path d="M437.523 131.819L434.66 128.155" stroke="#171D4D" stroke-width="3" stroke-miterlimit="10"/>
<path d="M444.852 126.093L441.989 122.429" stroke="#171D4D" stroke-width="3" stroke-miterlimit="10"/>
<path d="M452.18 120.368L449.317 116.703" stroke="#171D4D" stroke-width="3" stroke-miterlimit="10"/>
<path d="M488.781 91.7718L484.117 85.802" stroke="#171D4D" stroke-width="3" stroke-miterlimit="10"/>
<path d="M466.796 108.949L463.869 105.202" stroke="#171D4D" stroke-width="3" stroke-miterlimit="10"/>
<path d="M474.124 103.223L471.197 99.4764" stroke="#171D4D" stroke-width="3" stroke-miterlimit="10"/>
<path d="M481.453 97.4974L480.07 95.7271L478.526 93.7509" stroke="#171D4D" stroke-width="3" stroke-miterlimit="10"/>
<path d="M362.838 139.25L357.304 140.059" stroke="#171D4D" stroke-width="3" stroke-miterlimit="10"/>
<path d="M362.586 116.439L357.031 115.608" stroke="#171D4D" stroke-width="3" stroke-miterlimit="10"/>
<path d="M384.099 80.0723L380.616 75.6992" stroke="#171D4D" stroke-width="3" stroke-miterlimit="10"/>
<path d="M370.755 96.5979L365.176 93.5308" stroke="#171D4D" stroke-width="3" stroke-miterlimit="10"/>
<path d="M448.434 66.6065L445.899 72.6974" stroke="#171D4D" stroke-width="3" stroke-miterlimit="10"/>
<path d="M424.424 61.1645L423.827 66.935" stroke="#171D4D" stroke-width="3" stroke-miterlimit="10"/>
<path d="M401.162 64.4871L402.599 70.0607" stroke="#171D4D" stroke-width="3" stroke-miterlimit="10"/>
</g>
<g clip-path="url(#clip2)">
<path d="M479.385 137.336V269.059H612.597L479.385 137.336ZM503.13 193.325L553.871 243.461H503.13V193.325Z" fill="#4E668D" stroke="#171D4D" stroke-width="3" stroke-miterlimit="10"/>
<path d="M485.957 269.059V260.667" stroke="#171D4D" stroke-width="3" stroke-miterlimit="10"/>
<path d="M536.274 269.059V259.469" stroke="#171D4D" stroke-width="3" stroke-miterlimit="10"/>
<path d="M498.536 269.059V263.276" stroke="#171D4D" stroke-width="3" stroke-miterlimit="10"/>
<path d="M511.115 269.059V263.276" stroke="#171D4D" stroke-width="3" stroke-miterlimit="10"/>
<path d="M523.695 269.059V263.276" stroke="#171D4D" stroke-width="3" stroke-miterlimit="10"/>
<path d="M586.52 269.059V258.622" stroke="#171D4D" stroke-width="3" stroke-miterlimit="10"/>
<path d="M548.853 269.059V262.43" stroke="#171D4D" stroke-width="3" stroke-miterlimit="10"/>
<path d="M561.432 269.059V262.43" stroke="#171D4D" stroke-width="3" stroke-miterlimit="10"/>
<path d="M573.941 269.059V262.43" stroke="#171D4D" stroke-width="3" stroke-miterlimit="10"/>
<path d="M599.099 269.059V262.289" stroke="#171D4D" stroke-width="3" stroke-miterlimit="10"/>
<path d="M491.823 214.339H479.385" stroke="#171D4D" stroke-width="3" stroke-miterlimit="10"/>
<path d="M485.25 251.994H479.385" stroke="#171D4D" stroke-width="3" stroke-miterlimit="10"/>
<path d="M485.25 239.442H479.385" stroke="#171D4D" stroke-width="3" stroke-miterlimit="10"/>
<path d="M485.25 226.89H479.385" stroke="#171D4D" stroke-width="3" stroke-miterlimit="10"/>
<path d="M490.975 164.202H479.385" stroke="#171D4D" stroke-width="3" stroke-miterlimit="10"/>
<path d="M484.402 201.787H479.385" stroke="#171D4D" stroke-width="3" stroke-miterlimit="10"/>
<path d="M484.402 189.305H479.385" stroke="#171D4D" stroke-width="3" stroke-miterlimit="10"/>
<path d="M484.402 176.754H479.385" stroke="#171D4D" stroke-width="3" stroke-miterlimit="10"/>
<path d="M484.261 151.65H479.385" stroke="#171D4D" stroke-width="3" stroke-miterlimit="10"/>
</g>
<defs>
<clipPath id="clip0">
<rect width="275.023" height="169.879" fill="white" transform="translate(154.579 323) rotate(-124)"/>
</clipPath>
<clipPath id="clip1">
<rect width="163.846" height="80.8259" fill="white" transform="translate(316.359 124.907) rotate(-38)"/>
</clipPath>
<clipPath id="clip2">
<rect width="136.887" height="135.319" fill="white" transform="translate(478.325 134.797)"/>
</clipPath>
</defs>
</svg>
