<svg width="700" height="630" viewBox="0 0 700 630" fill="none" xmlns="http://www.w3.org/2000/svg">
<g clip-path="url(#clip0)">
<path d="M399.003 388.652C412.048 403.926 410.258 426.858 395.003 439.886C379.749 452.915 357.799 452.242 344.806 437.029C331.761 421.756 332.571 397.676 347.825 384.648C363.028 371.559 385.958 373.379 399.003 388.652Z" stroke="#252B58" stroke-width="3" stroke-miterlimit="10"/>
<path d="M450.716 148.618L232.938 334.618L233.557 335.342L233.626 335.179L450.741 149.746L550.201 266.199L550.804 265.684L450.776 148.567L450.716 148.618ZM233.626 335.179L254.307 317.516L253.739 316.852L232.938 334.618L233.557 335.342L233.626 335.179ZM233.626 335.179L254.307 317.516L253.739 316.852L232.938 334.618L233.557 335.342L233.626 335.179ZM233.626 335.179L254.307 317.516L253.739 316.852L232.938 334.618L233.557 335.342L233.626 335.179ZM233.626 335.179L254.307 317.516L253.739 316.852L232.938 334.618L233.557 335.342L233.626 335.179ZM233.626 335.179L254.307 317.516L253.739 316.852L232.938 334.618L233.557 335.342L233.626 335.179ZM225.989 376.782L187.319 331.505L187.301 331.728L225.972 377.006L225.989 376.782ZM233.626 335.179L254.307 317.516L253.739 316.852L232.938 334.618L233.557 335.342L233.626 335.179ZM233.626 335.179L254.307 317.516L253.739 316.852L232.938 334.618L233.557 335.342L233.626 335.179ZM233.626 335.179L254.307 317.516L253.739 316.852L232.938 334.618L233.557 335.342L233.626 335.179ZM233.626 335.179L254.307 317.516L253.739 316.852L232.938 334.618L233.557 335.342L233.626 335.179ZM233.626 335.179L254.307 317.516L253.739 316.852L232.938 334.618L233.557 335.342L233.626 335.179ZM290.956 452.848L290.732 452.83L329.351 498.047L329.575 498.065L290.956 452.848ZM233.626 335.179L254.307 317.516L253.739 316.852L232.938 334.618L233.557 335.342L233.626 335.179Z" stroke="#252B58" stroke-width="3" stroke-miterlimit="10"/>
<path d="M308.005 473.054L280.692 496.381L248.202 495.21L222.56 494.245L167.956 492.333L167.749 492.091L174.256 438.298L177.46 412.383L181.569 378.492L207.977 355.937L225.972 377.006L222.188 397.36L212.006 452.831L211.685 454.775L213.604 454.702L270.493 453.307L290.732 452.83L308.005 473.054Z" fill="#4E668D" stroke="#252B58" stroke-width="3" stroke-miterlimit="10"/>
<path d="M368.621 219.882L368.346 219.804" stroke="#252B58" stroke-width="3" stroke-miterlimit="10"/>
<path d="M550.502 266.673L549.839 266.508" stroke="#252B58" stroke-width="3" stroke-miterlimit="10"/>
<path d="M341.55 243.003L341.275 242.925" stroke="#252B58" stroke-width="3" stroke-miterlimit="10"/>
<path d="M519.874 292.101L520.536 292.266L520.76 292.284" stroke="#252B58" stroke-width="3" stroke-miterlimit="10"/>
<path d="M362.759 426.916L362.69 426.348" stroke="#252B58" stroke-width="3" stroke-miterlimit="10"/>
<path d="M340.525 243.878L340.482 243.706" stroke="#252B58" stroke-width="3" stroke-miterlimit="10"/>
<path d="M311.102 269.008L311.111 268.896" stroke="#252B58" stroke-width="3" stroke-miterlimit="10"/>
<path d="M327.831 404.335L327.72 403.595" stroke="#252B58" stroke-width="3" stroke-miterlimit="10"/>
<path d="M333.689 451.849L333.629 451.169" stroke="#252B58" stroke-width="3" stroke-miterlimit="10"/>
<path d="M581.252 239.679L550.744 265.736L572.708 291.453L603.217 265.397L581.252 239.679Z" fill="#4E668D" stroke="#252B58" stroke-width="3" stroke-miterlimit="10"/>
<path d="M572.708 291.453L354.931 477.453L333.018 451.796L333.689 451.849L550.502 266.673L550.141 266.25L550.744 265.736L572.708 291.453Z" fill="#4E668D" stroke="#252B58" stroke-width="3" stroke-miterlimit="10"/>
<path d="M329.351 498.047L280.692 496.381L308.005 473.054L329.351 498.047Z" fill="#4E668D" stroke="#252B58" stroke-width="3" stroke-miterlimit="10"/>
<path d="M354.931 477.453L330.693 498.154L329.575 498.065L308.125 472.951L332.846 451.838L333.018 451.796L354.931 477.453Z" fill="#4E668D" stroke="#252B58" stroke-width="2" stroke-miterlimit="10"/>
<path d="M628.848 244.863L604.49 265.667L604.309 265.821L573.379 292.238L558.848 304.648L513.207 343.63L467.625 382.56L421.984 421.542L376.342 460.523L355.601 478.237L330.761 499.453L330.64 499.556L285.119 538.435L239.538 577.365L233.508 582.515" stroke="#252B58" stroke-miterlimit="10"/>
<path d="M429.679 123.987L211.902 309.987L232.938 334.618L450.716 148.618L429.679 123.987Z" fill="#4E668D" stroke="#252B58" stroke-width="3" stroke-miterlimit="10"/>
<path d="M232.938 334.618L208.098 355.834L187.319 331.505L187.362 330.945L211.902 309.987L232.938 334.618Z" fill="#4E668D" stroke="#252B58" stroke-width="2" stroke-miterlimit="10"/>
<path d="M207.977 355.937L181.569 378.491L187.301 331.728L207.977 355.937Z" fill="#4E668D" stroke="#252B58" stroke-width="3" stroke-miterlimit="10"/>
<path d="M482.85 77.2176L460.12 96.6312L459.939 96.7857L429.009 123.203L414.478 135.613L368.837 174.594L323.255 213.525L277.614 252.506L231.972 291.488L211.231 309.202L186.391 330.418L186.27 330.521L140.749 369.4L95.1677 408.33L90.8267 412.038" stroke="#252B58" stroke-miterlimit="10"/>
<path d="M460.187 97.931L429.679 123.987L450.716 148.618L481.224 122.562L460.187 97.931Z" fill="#4E668D" stroke="#252B58" stroke-width="3" stroke-miterlimit="10"/>
<path d="M481.224 122.562L450.716 148.618L550.692 265.675L581.2 239.619L481.224 122.562Z" fill="#4E668D" stroke="#252B58" stroke-width="3" stroke-miterlimit="10"/>
<path d="M626.274 291.539L604.309 265.821L604.154 265.64L581.674 239.319L556.1 209.375L508.097 153.171L481.646 122.201L460.094 96.9668L459.939 96.7857L439.573 72.9396" stroke="#252B58" stroke-miterlimit="10"/>
<path d="M572.708 291.453L573.224 292.057L573.379 292.238L594.828 317.352" stroke="#252B58" stroke-miterlimit="10"/>
<path d="M429.679 123.987L429.164 123.384L429.009 123.203L407.302 97.7869" stroke="#252B58" stroke-miterlimit="10"/>
<path d="M210.873 556.012L216.903 550.863L262.484 511.933L280.692 496.381" stroke="#252B58" stroke-miterlimit="10"/>
<path d="M332.845 451.838L332.966 451.735L333.629 451.169" stroke="#252B58" stroke-miterlimit="10"/>
<path d="M549.839 266.508L550.14 266.251" stroke="#252B58" stroke-miterlimit="10"/>
<path d="M549.839 266.508L519.874 292.101L474.041 279.46L453.602 273.842L387.994 255.749L350.531 245.46L341.55 243.003L368.622 219.882L415.789 232.01L418.49 232.731L503.283 254.485L519.611 258.707L549.839 266.508Z" fill="#4E668D" stroke="#252B58" stroke-width="3" stroke-miterlimit="10"/>
<path d="M362.69 426.348L399.348 395.039L444.99 356.058L490.571 317.128L519.874 292.101" stroke="#252B58" stroke-miterlimit="10"/>
<path d="M332.846 451.838L308.126 472.951L290.956 452.848L332.846 451.838Z" fill="#4E668D" stroke="#252B58" stroke-width="2" stroke-miterlimit="10"/>
<path d="M308.005 473.054L308.125 472.951" stroke="#252B58" stroke-miterlimit="10"/>
<path d="M581.252 239.679L581.674 239.319L581.855 239.164L605.972 218.566" stroke="#252B58" stroke-miterlimit="10"/>
<path d="M225.989 376.782L208.098 355.834L232.939 334.618L233.557 335.342L225.989 376.782Z" fill="#4E668D" stroke="#252B58" stroke-width="3" stroke-miterlimit="10"/>
<path d="M112.292 437.659L116.875 433.746L162.456 394.815L181.569 378.492" stroke="#252B58" stroke-miterlimit="10"/>
<path d="M207.977 355.937L208.098 355.834" stroke="#252B58" stroke-miterlimit="10"/>
<path d="M481.224 122.562L481.646 122.201L481.827 122.047L504.799 102.427" stroke="#252B58" stroke-miterlimit="10"/>
<path d="M329.351 498.047L330.485 499.375L330.64 499.556L351.78 524.308" stroke="#252B58" stroke-miterlimit="10"/>
<path d="M290.732 452.83L282.431 443.111L234.428 386.906L225.972 377.006" stroke="#252B58" stroke-miterlimit="10"/>
<path d="M187.301 331.728L186.425 330.702L186.27 330.521L168.688 309.935" stroke="#252B58" stroke-miterlimit="10"/>
<path d="M376.741 502.989L355.601 478.237L355.447 478.056L354.931 477.453" stroke="#252B58" stroke-miterlimit="10"/>
<path d="M193.546 288.495L211.231 309.202L211.386 309.383L211.902 309.987" stroke="#252B58" stroke-miterlimit="10"/>
<path d="M327.831 404.335L333.629 451.169L362.69 426.348L356.953 379.463L352.17 339.801L346.271 291.383L340.525 243.878L311.102 269.008L314.376 295.55L316.969 316.41L327.72 403.595L327.831 404.335Z" fill="#4E668D" stroke="#252B58" stroke-width="3" stroke-miterlimit="10"/>
<path d="M233.557 335.342L259.389 365.587L307.392 421.792L332.966 451.735L333.018 451.795" stroke="#252B58" stroke-miterlimit="10"/>
<path d="M496.078 90.8735L497.175 86.9085L493.294 87.6136L491.334 85.3195L497.884 84.3197L499.603 78.1528L501.666 80.5676L500.637 84.3693L504.347 83.7069L506.306 86.0009L499.929 86.9582L498.201 93.2369L496.138 90.8221L496.078 90.8735Z" fill="#252B58"/>
<path d="M225.347 571.005L226.444 567.04L222.562 567.745L220.603 565.451L227.153 564.451L228.872 558.285L230.934 560.699L229.906 564.501L233.615 563.839L235.575 566.133L229.197 567.09L227.469 573.369L225.407 570.954L225.347 571.005Z" fill="#252B58"/>
<path d="M103.046 427.077L104.143 423.112L100.261 423.817L98.302 421.523L104.852 420.523L106.571 414.356L108.633 416.771L107.605 420.572L111.314 419.91L113.274 422.204L106.896 423.161L105.168 429.44L103.106 427.025L103.046 427.077Z" fill="#252B58"/>
<path d="M619.517 233.204L620.614 229.239L616.732 229.944L614.773 227.65L621.322 226.65L623.042 220.483L625.104 222.898L624.076 226.7L627.785 226.037L629.745 228.332L623.367 229.289L621.639 235.567L619.577 233.153L619.517 233.204Z" fill="#252B58"/>
<path d="M488.061 207.692L534.909 167.68L476.903 99.7644L430.056 139.776L488.061 207.692Z" fill="#4E668D" stroke="#252B58" stroke-width="3" stroke-miterlimit="10"/>
<path d="M451.111 121.819L455.874 117.751L432.105 89.9208L427.341 93.9889L451.111 121.819Z" fill="#4E668D" stroke="#252B58" stroke-width="3" stroke-miterlimit="10"/>
<path d="M546.057 179.426L499.21 219.438L557.216 287.354L604.063 247.342L546.057 179.426Z" fill="#4E668D" stroke="#252B58" stroke-width="3" stroke-miterlimit="10"/>
<path d="M583.021 265.314L578.258 269.382L602.027 297.212L606.79 293.144L583.021 265.314Z" fill="#4E668D" stroke="#252B58" stroke-width="3" stroke-miterlimit="10"/>
<path d="M587.249 353.163L564.717 326.781C560.696 322.072 561.246 315.025 565.949 311.008L620.996 263.993C625.699 259.977 632.745 260.536 636.767 265.245L659.299 291.626C663.321 296.335 662.771 303.383 658.068 307.399L603.021 354.414C598.318 358.431 591.271 357.872 587.249 353.163Z" fill="#4E668D" stroke="#252B58" stroke-width="3" stroke-miterlimit="10"/>
<path d="M394.361 127.319L371.829 100.938C367.807 96.2291 368.357 89.1816 373.06 85.165L428.108 38.1501C432.81 34.1335 439.857 34.6926 443.879 39.4014L466.411 65.783C470.433 70.4919 469.882 77.5393 465.18 81.5559L410.132 128.571C405.429 132.587 398.383 132.028 394.361 127.319Z" fill="#4E668D" stroke="#252B58" stroke-width="3" stroke-miterlimit="10"/>
<path d="M204.905 323.048L185.57 300.409L180.867 304.425L200.202 327.064L204.905 323.048Z" fill="#4E668D" stroke="#252B58" stroke-width="2" stroke-miterlimit="10"/>
<path d="M359.911 504.576L340.576 481.938L335.873 485.954L355.209 508.593L359.911 504.576Z" fill="#4E668D" stroke="#252B58" stroke-width="2" stroke-miterlimit="10"/>
<path d="M342.004 562.308L319.472 535.927C315.451 531.218 316.001 524.171 320.704 520.154L375.751 473.139C380.454 469.123 387.501 469.682 391.522 474.39L414.054 500.772C418.076 505.481 417.526 512.528 412.823 516.545L357.776 563.56C353.124 567.637 346.078 567.078 342.004 562.308Z" fill="#4E668D" stroke="#252B58" stroke-width="3" stroke-miterlimit="10"/>
<path d="M149.168 336.526L126.636 310.144C122.614 305.435 123.164 298.388 127.867 294.371L182.914 247.356C187.617 243.34 194.664 243.899 198.686 248.608L221.218 274.989C225.239 279.698 224.689 286.745 219.986 290.762L164.939 337.777C160.236 341.794 153.19 341.234 149.168 336.526Z" fill="#4E668D" stroke="#252B58" stroke-width="3" stroke-miterlimit="10"/>
<path d="M385.501 366.983C385.845 366.898 386.181 366.924 386.516 366.951C386.843 367.09 387.109 367.28 387.316 367.521C387.625 367.883 387.771 368.176 387.745 368.512C387.719 368.847 387.641 369.123 387.391 369.44L387.443 369.501C388.312 369.176 388.923 369.281 389.49 369.945C389.748 370.247 389.894 370.539 389.979 370.884C390.065 371.228 390.039 371.564 389.841 371.942C389.642 372.32 389.453 372.587 389.091 372.896C388.488 373.411 387.902 373.702 387.343 373.658C386.724 373.665 386.182 373.397 385.666 372.793L386.872 371.763C387.078 372.004 387.293 372.134 387.517 372.152C387.741 372.17 387.973 372.075 388.154 371.921C388.335 371.766 388.404 371.603 388.421 371.379C388.439 371.156 388.396 370.983 388.241 370.802C387.88 370.38 387.424 370.456 386.821 370.971L386.58 371.177L385.704 370.151L385.945 369.945C386.487 369.481 386.634 369.043 386.273 368.62C386.119 368.439 385.955 368.37 385.792 368.301C385.568 368.283 385.447 368.386 385.327 368.489C385.146 368.643 385.077 368.807 385.06 369.03C385.042 369.254 385.136 369.487 385.291 369.668L384.085 370.698C383.621 370.154 383.441 369.577 383.485 369.018C383.529 368.459 383.847 367.977 384.45 367.463C384.803 367.265 385.156 367.068 385.501 366.983Z" fill="#252B58"/>
<path d="M389.285 368.24C388.615 367.455 388.229 366.637 388.169 365.957C388.058 365.216 388.395 364.511 389.118 363.893C389.842 363.275 390.53 363.105 391.305 363.279C392.019 363.504 392.715 363.954 393.385 364.738C394.056 365.523 394.442 366.342 394.553 367.082C394.664 367.823 394.328 368.528 393.604 369.146C392.881 369.763 392.192 369.934 391.418 369.76C390.643 369.586 389.956 369.025 389.285 368.24ZM392.119 365.82C391.707 365.337 391.389 365.087 391.062 364.948C390.735 364.81 390.451 364.843 390.089 365.152C389.788 365.41 389.65 365.736 389.735 366.081C389.821 366.425 390.07 366.839 390.431 367.262C390.843 367.745 391.162 367.995 391.54 368.194C391.867 368.332 392.151 368.299 392.513 367.99C392.814 367.732 392.952 367.405 392.866 367.061C392.729 366.656 392.48 366.242 392.119 365.82Z" fill="#252B58"/>
<path d="M394.544 359.99C394.991 360.026 395.43 360.173 395.791 360.596C396.152 361.018 396.289 361.423 396.194 361.922C396.159 362.37 395.9 362.799 395.418 363.211C394.996 363.572 394.531 363.76 394.023 363.776C393.515 363.792 393.137 363.593 392.776 363.171C392.415 362.748 392.278 362.343 392.373 361.844C392.408 361.397 392.667 360.967 393.149 360.555C393.631 360.143 394.096 359.955 394.544 359.99ZM393.458 361.649C393.44 361.873 393.535 362.105 393.689 362.286C393.844 362.467 394.059 362.597 394.283 362.615C394.506 362.633 394.679 362.59 394.859 362.435C394.98 362.332 395.109 362.118 395.066 361.945C395.024 361.773 394.981 361.601 394.775 361.359C394.568 361.118 394.405 361.049 394.181 361.031C393.957 361.013 393.785 361.056 393.665 361.159C393.596 361.322 393.527 361.485 393.458 361.649Z" fill="#252B58"/>
</g>
<defs>
<clipPath id="clip0">
<rect width="602.289" height="372.028" fill="white" transform="translate(0 391.155) rotate(-40.5)"/>
</clipPath>
</defs>
</svg>
