<svg width="564" height="619" viewBox="0 0 564 619" fill="none" xmlns="http://www.w3.org/2000/svg">
<g clip-path="url(#clip0)">
<path d="M331.658 271.49C346.211 261.673 365.948 265.497 375.752 280.032C385.556 294.567 382.8 313.561 368.304 323.339C353.751 333.156 332.921 330.07 323.117 315.535C313.255 301.038 317.104 281.307 331.658 271.49Z" stroke="#252B58" stroke-width="3" stroke-miterlimit="10"/>
<path d="M128.336 202.835L268.306 410.349L268.996 409.883L268.861 409.807L129.318 202.926L240.282 128.079L239.895 127.505L128.297 202.778L128.336 202.835ZM268.861 409.807L255.569 390.101L254.937 390.528L268.306 410.349L268.996 409.883L268.861 409.807ZM268.861 409.807L255.569 390.101L254.937 390.528L268.306 410.349L268.996 409.883L268.861 409.807ZM268.861 409.807L255.569 390.101L254.937 390.528L268.306 410.349L268.996 409.883L268.861 409.807ZM268.861 409.807L255.569 390.101L254.937 390.528L268.306 410.349L268.996 409.883L268.861 409.807ZM268.861 409.807L255.569 390.101L254.937 390.528L268.306 410.349L268.996 409.883L268.861 409.807ZM304.232 420.555L261.089 449.655L261.281 449.693L304.425 420.592L304.232 420.555ZM268.861 409.807L255.569 390.101L254.937 390.528L268.306 410.349L268.996 409.883L268.861 409.807ZM268.861 409.807L255.569 390.101L254.937 390.528L268.306 410.349L268.996 409.883L268.861 409.807ZM268.861 409.807L255.569 390.101L254.937 390.528L268.306 410.349L268.996 409.883L268.861 409.807ZM268.861 409.807L255.569 390.101L254.937 390.528L268.306 410.349L268.996 409.883L268.861 409.807ZM268.861 409.807L255.569 390.101L254.937 390.528L268.306 410.349L268.996 409.883L268.861 409.807ZM376.713 371.666L376.675 371.859L419.761 342.797L419.799 342.604L376.713 371.666ZM268.861 409.807L255.569 390.101L254.937 390.528L268.306 410.349L268.996 409.883L268.861 409.807Z" stroke="#252B58" stroke-width="3" stroke-miterlimit="10"/>
<path d="M395.946 358.86L413.5 384.886L409.269 412.984L405.894 435.154L398.831 482.382L398.601 482.537L352.533 471.565L330.346 466.218L301.322 459.297L284.349 434.134L304.425 420.592L321.725 425.892L368.887 440.222L370.544 440.693L370.67 439.019L375.087 389.481L376.675 371.859L395.946 358.86Z" fill="#4E668D" stroke="#252B58" stroke-width="3" stroke-miterlimit="10"/>
<path d="M182.097 281.175L182.002 281.405" stroke="#252B58" stroke-width="3" stroke-miterlimit="10"/>
<path d="M240.724 127.865L240.515 128.424" stroke="#252B58" stroke-width="3" stroke-miterlimit="10"/>
<path d="M199.496 306.97L199.401 307.201" stroke="#252B58" stroke-width="3" stroke-miterlimit="10"/>
<path d="M259.774 156.977L259.983 156.418L260.021 156.226" stroke="#252B58" stroke-width="3" stroke-miterlimit="10"/>
<path d="M361.299 306.749L360.799 306.752" stroke="#252B58" stroke-width="3" stroke-miterlimit="10"/>
<path d="M200.155 307.946L200.001 307.967" stroke="#252B58" stroke-width="3" stroke-miterlimit="10"/>
<path d="M219.065 335.983L218.97 335.964" stroke="#252B58" stroke-width="3" stroke-miterlimit="10"/>
<path d="M338.234 334.845L337.58 334.868" stroke="#252B58" stroke-width="3" stroke-miterlimit="10"/>
<path d="M380.073 334.459L379.477 334.444" stroke="#252B58" stroke-width="3" stroke-miterlimit="10"/>
<path d="M220.325 98.4919L239.934 127.562L264.439 111.033L244.831 81.9628L220.325 98.4919Z" fill="#4E668D" stroke="#252B58" stroke-width="3" stroke-miterlimit="10"/>
<path d="M264.439 111.033L404.409 318.546L379.961 335.037L380.073 334.459L240.724 127.865L240.321 128.137L239.934 127.562L264.439 111.033Z" fill="#4E668D" stroke="#252B58" stroke-width="3" stroke-miterlimit="10"/>
<path d="M419.761 342.797L413.5 384.886L395.946 358.86L419.761 342.797Z" fill="#4E668D" stroke="#252B58" stroke-width="3" stroke-miterlimit="10"/>
<path d="M404.409 318.546L419.987 341.642L419.799 342.604L395.869 358.745L379.981 335.19L379.961 335.037L404.409 318.546Z" fill="#4E668D" stroke="#252B58" stroke-width="2" stroke-miterlimit="10"/>
<path d="M229.536 57.6737L245.191 80.8839L245.307 81.0563L265.187 110.529L274.526 124.374L303.861 167.865L333.157 211.298L362.491 254.788L391.826 298.279L405.156 318.042L421.122 341.712L421.199 341.827L450.457 385.202L479.753 428.635L483.628 434.381" stroke="#252B58" stroke-miterlimit="10"/>
<path d="M104.866 218.666L244.836 426.18L268.306 410.349L128.336 202.836L104.866 218.666Z" fill="#4E668D" stroke="#252B58" stroke-width="3" stroke-miterlimit="10"/>
<path d="M268.306 410.349L284.271 434.019L261.089 449.656L260.608 449.562L244.836 426.18L268.306 410.349Z" fill="#4E668D" stroke="#252B58" stroke-width="2" stroke-miterlimit="10"/>
<path d="M284.349 434.134L301.322 459.297L261.281 449.693L284.349 434.134Z" fill="#4E668D" stroke="#252B58" stroke-width="3" stroke-miterlimit="10"/>
<path d="M69.5135 167.867L84.1227 189.526L84.239 189.698L104.118 219.171L113.457 233.016L142.792 276.507L172.088 319.94L201.423 363.43L230.757 406.921L244.088 426.684L260.053 450.354L260.131 450.469L289.388 493.844L318.684 537.277L321.474 541.414" stroke="#252B58" stroke-miterlimit="10"/>
<path d="M85.2581 189.596L104.866 218.666L128.336 202.836L108.728 173.765L85.2581 189.596Z" fill="#4E668D" stroke="#252B58" stroke-width="3" stroke-miterlimit="10"/>
<path d="M108.728 173.765L128.336 202.836L239.876 127.601L220.268 98.5307L108.728 173.765Z" fill="#4E668D" stroke="#252B58" stroke-width="3" stroke-miterlimit="10"/>
<path d="M269.813 64.5272L245.307 81.0563L245.135 81.1727L220.054 98.0898L191.522 117.335L137.967 153.458L108.457 173.363L84.4116 189.582L84.239 189.698L61.5168 205.025" stroke="#252B58" stroke-miterlimit="10"/>
<path d="M264.439 111.033L265.014 110.645L265.187 110.529L289.117 94.3876" stroke="#252B58" stroke-miterlimit="10"/>
<path d="M104.866 218.666L104.291 219.054L104.118 219.171L79.9006 235.506" stroke="#252B58" stroke-miterlimit="10"/>
<path d="M458.374 451.414L454.499 445.669L425.203 402.236L413.5 384.886" stroke="#252B58" stroke-miterlimit="10"/>
<path d="M379.981 335.19L379.903 335.076L379.477 334.444" stroke="#252B58" stroke-miterlimit="10"/>
<path d="M240.515 128.424L240.321 128.137" stroke="#252B58" stroke-miterlimit="10"/>
<path d="M240.515 128.424L259.774 156.977L244.263 195.526L237.362 212.719L215.159 267.901L202.519 299.414L199.496 306.97L182.097 281.174L197.295 241.416L198.188 239.142L225.468 167.662L230.75 153.902L240.515 128.424Z" fill="#4E668D" stroke="#252B58" stroke-width="3" stroke-miterlimit="10"/>
<path d="M360.799 306.752L337.238 271.822L307.903 228.331L278.607 184.898L259.774 156.977" stroke="#252B58" stroke-miterlimit="10"/>
<path d="M379.981 335.19L395.869 358.745L376.713 371.666L379.981 335.19Z" fill="#4E668D" stroke="#252B58" stroke-width="2" stroke-miterlimit="10"/>
<path d="M395.946 358.86L395.869 358.746" stroke="#252B58" stroke-miterlimit="10"/>
<path d="M220.325 98.4919L220.054 98.0897L219.938 97.9174L204.437 74.9369" stroke="#252B58" stroke-miterlimit="10"/>
<path d="M304.232 420.555L284.271 434.019L268.306 410.349L268.996 409.883L304.232 420.555Z" fill="#4E668D" stroke="#252B58" stroke-width="3" stroke-miterlimit="10"/>
<path d="M345.847 525.309L342.902 520.942L313.606 477.509L301.322 459.297" stroke="#252B58" stroke-miterlimit="10"/>
<path d="M284.349 434.134L284.271 434.019" stroke="#252B58" stroke-miterlimit="10"/>
<path d="M108.728 173.765L108.457 173.363L108.341 173.191L93.5763 151.302" stroke="#252B58" stroke-miterlimit="10"/>
<path d="M419.761 342.797L421.027 341.943L421.199 341.827L444.784 325.918" stroke="#252B58" stroke-miterlimit="10"/>
<path d="M376.675 371.859L367.414 378.105L313.859 414.229L304.425 420.592" stroke="#252B58" stroke-miterlimit="10"/>
<path d="M261.281 449.693L260.304 450.352L260.131 450.469L240.515 463.7" stroke="#252B58" stroke-miterlimit="10"/>
<path d="M428.741 302.134L405.156 318.042L404.984 318.158L404.409 318.546" stroke="#252B58" stroke-miterlimit="10"/>
<path d="M224.357 439.993L244.088 426.684L244.261 426.568L244.836 426.18" stroke="#252B58" stroke-miterlimit="10"/>
<path d="M338.234 334.845L379.477 334.444L360.799 306.752L319.517 307.096L284.603 307.325L241.975 307.657L200.155 307.946L219.066 335.983L242.438 335.765L260.808 335.578L337.58 334.868L338.234 334.845Z" fill="#4E668D" stroke="#252B58" stroke-width="3" stroke-miterlimit="10"/>
<path d="M268.996 409.883L297.816 390.444L351.371 354.321L379.903 335.076L379.961 335.037" stroke="#252B58" stroke-miterlimit="10"/>
<path d="M82.6806 157.732L79.3461 156.386L79.5743 159.827L77.3883 161.301L77.1681 155.515L71.9831 153.412L74.2841 151.86L77.4836 153.129L77.2754 149.842L79.4613 148.368L79.6616 154L84.9428 156.122L82.6418 157.674L82.6806 157.732Z" fill="#252B58"/>
<path d="M472.826 440.329L469.491 438.984L469.72 442.424L467.534 443.899L467.313 438.112L462.128 436.009L464.429 434.457L467.629 435.726L467.421 432.44L469.607 430.965L469.807 436.598L475.088 438.72L472.787 440.272L472.826 440.329Z" fill="#252B58"/>
<path d="M335.743 532.291L332.408 530.946L332.636 534.386L330.45 535.861L330.23 530.075L325.045 527.971L327.346 526.419L330.546 527.688L330.337 524.402L332.523 522.927L332.724 528.56L338.005 530.682L335.704 532.234L335.743 532.291Z" fill="#252B58"/>
<path d="M218.489 64.6234L215.154 63.2782L215.382 66.7186L213.196 68.1931L212.976 62.4069L207.791 60.3037L210.092 58.7517L213.292 60.0207L213.083 56.734L215.269 55.2596L215.47 60.8921L220.751 63.0139L218.45 64.566L218.489 64.6234Z" fill="#252B58"/>
<path d="M183.329 176.25L153.219 131.611L88.504 175.262L118.614 219.901L183.329 176.25Z" fill="#4E668D" stroke="#252B58" stroke-width="3" stroke-miterlimit="10"/>
<path d="M105.104 199.841L102.043 195.302L75.5239 213.19L78.5853 217.728L105.104 199.841Z" fill="#4E668D" stroke="#252B58" stroke-width="3" stroke-miterlimit="10"/>
<path d="M164.522 123.092L194.631 167.732L259.346 124.081L229.237 79.4414L164.522 123.092Z" fill="#4E668D" stroke="#252B58" stroke-width="3" stroke-miterlimit="10"/>
<path d="M242.761 99.4917L245.822 104.03L272.341 86.1433L269.28 81.6046L242.761 99.4917Z" fill="#4E668D" stroke="#252B58" stroke-width="3" stroke-miterlimit="10"/>
<path d="M319.464 104.512L294.326 121.468C289.839 124.494 283.774 123.319 280.751 118.838L245.371 66.385C242.349 61.9038 243.532 55.84 248.018 52.8135L273.157 35.8576C277.643 32.8312 283.709 34.0061 286.731 38.4873L322.111 90.9402C325.134 95.4213 323.951 101.485 319.464 104.512Z" fill="#4E668D" stroke="#252B58" stroke-width="3" stroke-miterlimit="10"/>
<path d="M104.265 249.665L79.1272 266.621C74.6403 269.648 68.575 268.473 65.5524 263.991L30.1724 211.539C27.1498 207.057 28.3326 200.993 32.8195 197.967L57.9576 181.011C62.4445 177.985 68.5099 179.16 71.5325 183.641L106.912 236.094C109.935 240.575 108.752 246.639 104.265 249.665Z" fill="#4E668D" stroke="#252B58" stroke-width="3" stroke-miterlimit="10"/>
<path d="M255.485 433.547L233.913 448.097L236.936 452.579L258.508 438.028L255.485 433.547Z" fill="#4E668D" stroke="#252B58" stroke-width="2" stroke-miterlimit="10"/>
<path d="M428.455 316.905L406.883 331.455L409.906 335.937L431.477 321.386L428.455 316.905Z" fill="#4E668D" stroke="#252B58" stroke-width="2" stroke-miterlimit="10"/>
<path d="M476.816 338.167L451.677 355.123C447.191 358.149 441.125 356.974 438.103 352.493L402.723 300.04C399.7 295.559 400.883 289.495 405.37 286.469L430.508 269.513C434.995 266.486 441.06 267.661 444.083 272.142L479.463 324.595C482.543 329.038 481.36 335.102 476.816 338.167Z" fill="#4E668D" stroke="#252B58" stroke-width="3" stroke-miterlimit="10"/>
<path d="M261.674 483.281L236.536 500.237C232.049 503.264 225.984 502.089 222.961 497.608L187.581 445.155C184.559 440.674 185.741 434.61 190.228 431.583L215.366 414.627C219.853 411.601 225.919 412.776 228.941 417.257L264.321 469.71C267.344 474.191 266.161 480.255 261.674 483.281Z" fill="#4E668D" stroke="#252B58" stroke-width="3" stroke-miterlimit="10"/>
<path d="M311.505 281.071C311.465 280.764 311.521 280.475 311.578 280.186C311.73 279.916 311.921 279.703 312.152 279.548C312.497 279.315 312.766 279.218 313.054 279.274C313.343 279.329 313.575 279.424 313.826 279.673L313.883 279.634C313.687 278.847 313.839 278.327 314.471 277.9C314.759 277.706 315.028 277.608 315.335 277.568C315.643 277.528 315.932 277.583 316.241 277.793C316.549 278.003 316.762 278.194 316.994 278.538C317.382 279.113 317.577 279.65 317.483 280.131C317.428 280.67 317.141 281.114 316.566 281.502L315.791 280.353C316.021 280.198 316.155 280.024 316.193 279.832C316.23 279.639 316.172 279.428 316.055 279.256C315.939 279.083 315.804 279.007 315.611 278.97C315.419 278.932 315.265 278.953 315.093 279.069C314.69 279.341 314.711 279.744 315.099 280.319L315.254 280.549L314.276 281.208L314.121 280.978C313.772 280.461 313.406 280.291 313.003 280.562C312.83 280.679 312.754 280.814 312.678 280.949C312.64 281.141 312.718 281.256 312.795 281.371C312.911 281.543 313.046 281.619 313.239 281.657C313.432 281.694 313.643 281.635 313.815 281.519L314.59 282.668C314.073 283.017 313.554 283.116 313.072 283.023C312.591 282.93 312.205 282.605 311.817 282.031C311.681 281.704 311.545 281.378 311.505 281.071Z" fill="#252B58"/>
<path d="M312.971 277.909C312.223 278.413 311.474 278.668 310.878 278.652C310.224 278.675 309.645 278.313 309.18 277.624C308.715 276.935 308.635 276.32 308.862 275.665C309.129 275.067 309.588 274.507 310.336 274.002C311.084 273.498 311.833 273.243 312.487 273.22C313.14 273.197 313.719 273.559 314.184 274.248C314.649 274.938 314.729 275.553 314.502 276.208C314.274 276.863 313.719 277.404 312.971 277.909ZM311.15 275.209C310.689 275.519 310.44 275.771 310.288 276.041C310.135 276.311 310.136 276.561 310.369 276.905C310.563 277.193 310.833 277.345 311.14 277.305C311.448 277.264 311.832 277.089 312.235 276.817C312.695 276.507 312.944 276.255 313.154 275.947C313.306 275.676 313.305 275.426 313.073 275.082C312.879 274.794 312.609 274.642 312.301 274.683C311.936 274.762 311.552 274.937 311.15 275.209Z" fill="#252B58"/>
<path d="M306.327 272.526C306.402 272.141 306.574 271.775 306.976 271.503C307.379 271.232 307.744 271.153 308.168 271.285C308.553 271.359 308.901 271.627 309.211 272.086C309.482 272.488 309.599 272.911 309.563 273.353C309.527 273.796 309.317 274.104 308.914 274.376C308.511 274.648 308.146 274.727 307.722 274.595C307.337 274.52 306.99 274.253 306.68 273.793C306.37 273.334 306.252 272.911 306.327 272.526ZM307.66 273.634C307.853 273.671 308.064 273.612 308.236 273.496C308.409 273.379 308.543 273.205 308.58 273.013C308.618 272.82 308.598 272.667 308.482 272.494C308.404 272.379 308.23 272.246 308.077 272.266C307.923 272.286 307.769 272.306 307.539 272.461C307.309 272.617 307.233 272.752 307.195 272.944C307.157 273.137 307.177 273.29 307.255 273.405C307.39 273.481 307.525 273.558 307.66 273.634Z" fill="#252B58"/>
</g>
<defs>
<clipPath id="clip0">
<rect width="526.392" height="325.148" fill="white" transform="translate(294.355 618.219) rotate(-124)"/>
</clipPath>
</defs>
</svg>
