<svg width="1440" height="773" viewBox="0 0 1440 773" fill="none" xmlns="http://www.w3.org/2000/svg">
<g opacity="0.5">
<path opacity="0.5" d="M1440 -0.964783H0V772H1440V-0.964783Z" stroke="#FF8EEB" stroke-width="2" stroke-miterlimit="10"/>
<path opacity="0.5" d="M0 771.653H1440" stroke="#FF8EEB" stroke-width="2" stroke-miterlimit="10"/>
<path opacity="0.5" d="M0 723.325H1440" stroke="#FF8EEB" stroke-width="2" stroke-miterlimit="10"/>
<path opacity="0.5" d="M0 675.087H1440" stroke="#FF8EEB" stroke-width="2" stroke-miterlimit="10"/>
<path opacity="0.5" d="M0 626.759H1440" stroke="#FF8EEB" stroke-width="2" stroke-miterlimit="10"/>
<path opacity="0.5" d="M0 578.431H1440" stroke="#FF8EEB" stroke-width="2" stroke-miterlimit="10"/>
<path opacity="0.5" d="M0 530.193H1440" stroke="#FF8EEB" stroke-width="2" stroke-miterlimit="10"/>
<path opacity="0.5" d="M0 481.865H1440" stroke="#FF8EEB" stroke-width="2" stroke-miterlimit="10"/>
<path opacity="0.5" d="M0 433.627H1440" stroke="#FF8EEB" stroke-width="2" stroke-miterlimit="10"/>
<path opacity="0.5" d="M0 385.299H1440" stroke="#FF8EEB" stroke-width="2" stroke-miterlimit="10"/>
<path opacity="0.5" d="M0 337.061H1440" stroke="#FF8EEB" stroke-width="2" stroke-miterlimit="10"/>
<path opacity="0.5" d="M0 288.733H1440" stroke="#FF8EEB" stroke-width="2" stroke-miterlimit="10"/>
<path opacity="0.5" d="M0 240.495H1440" stroke="#FF8EEB" stroke-width="2" stroke-miterlimit="10"/>
<path opacity="0.5" d="M0 192.167H1440" stroke="#FF8EEB" stroke-width="2" stroke-miterlimit="10"/>
<path opacity="0.5" d="M0 143.929H1440" stroke="#FF8EEB" stroke-width="2" stroke-miterlimit="10"/>
<path opacity="0.5" d="M0 95.6013H1440" stroke="#FF8EEB" stroke-width="2" stroke-miterlimit="10"/>
<path opacity="0.5" d="M0 47.3629H1440" stroke="#FF8EEB" stroke-width="2" stroke-miterlimit="10"/>
<path opacity="0.5" d="M1440 -0.964783H1384.6H1329.19H1273.86H1218.46H1163.05H1107.65H1052.32H996.911H941.507H886.102H830.772H775.367H719.962H664.633H609.228H553.823H498.418H443.088H387.684H332.279H276.949H221.544H166.139H110.735H55.4048H0" stroke="#FF8EEB" stroke-width="2" stroke-miterlimit="10"/>
<path opacity="0.5" d="M1385 772V733.32V694.711V656.03V617.421V578.741V540.132V501.452V462.771V424.162V385.482V346.873V308.193V269.584V230.903V192.294V153.614V115.005V76.3245V37.7156V-0.964783" stroke="#FF8EEB" stroke-width="2" stroke-miterlimit="10"/>
<path opacity="0.5" d="M1329 772V733.32V694.711V656.03V617.421V578.741V540.132V501.452V462.771V424.162V385.482V346.873V308.193V269.584V230.903V192.294V153.614V115.005V76.3245V37.7156V-0.964783" stroke="#FF8EEB" stroke-width="2" stroke-miterlimit="10"/>
<path opacity="0.5" d="M1274 772V733.32V694.711V656.03V617.421V578.741V540.132V501.452V462.771V424.162V385.482V346.873V308.193V269.584V230.903V192.294V153.614V115.005V76.3245V37.7156V-0.964783" stroke="#FF8EEB" stroke-width="2" stroke-miterlimit="10"/>
<path opacity="0.5" d="M1218 772V733.32V694.711V656.03V617.421V578.741V540.132V501.452V462.771V424.162V385.482V346.873V308.193V269.584V230.903V192.294V153.614V115.005V76.3245V37.7156V-0.964783" stroke="#FF8EEB" stroke-width="2" stroke-miterlimit="10"/>
<path opacity="0.5" d="M1163 772V733.32V694.711V656.03V617.421V578.741V540.132V501.452V462.771V424.162V385.482V346.873V308.193V269.584V230.903V192.294V153.614V115.005V76.3245V37.7156V-0.964783" stroke="#FF8EEB" stroke-width="2" stroke-miterlimit="10"/>
<path opacity="0.5" d="M1108 772V733.32V694.711V656.03V617.421V578.741V540.132V501.452V462.771V424.162V385.482V346.873V308.193V269.584V230.903V192.294V153.614V115.005V76.3245V37.7156V-0.964783" stroke="#FF8EEB" stroke-width="2" stroke-miterlimit="10"/>
<path opacity="0.5" d="M1052 772V733.32V694.711V656.03V617.421V578.741V540.132V501.452V462.771V424.162V385.482V346.873V308.193V269.584V230.903V192.294V153.614V115.005V76.3245V37.7156V-0.964783" stroke="#FF8EEB" stroke-width="2" stroke-miterlimit="10"/>
<path opacity="0.5" d="M997 772V733.32V694.711V656.03V617.421V578.741V540.132V501.452V462.771V424.162V385.482V346.873V308.193V269.584V230.903V192.294V153.614V115.005V76.3245V37.7156V-0.964783" stroke="#FF8EEB" stroke-width="2" stroke-miterlimit="10"/>
<path opacity="0.5" d="M942 772V733.32V694.711V656.03V617.421V578.741V540.132V501.452V462.771V424.162V385.482V346.873V308.193V269.584V230.903V192.294V153.614V115.005V76.3245V37.7156V-0.964783" stroke="#FF8EEB" stroke-width="2" stroke-miterlimit="10"/>
<path opacity="0.5" d="M886 772V733.32V694.711V656.03V617.421V578.741V540.132V501.452V462.771V424.162V385.482V346.873V308.193V269.584V230.903V192.294V153.614V115.005V76.3245V37.7156V-0.964783" stroke="#FF8EEB" stroke-width="2" stroke-miterlimit="10"/>
<path opacity="0.5" d="M831 772V733.32V694.711V656.03V617.421V578.741V540.132V501.452V462.771V424.162V385.482V346.873V308.193V269.584V230.903V192.294V153.614V115.005V76.3245V37.7156V-0.964783" stroke="#FF8EEB" stroke-width="2" stroke-miterlimit="10"/>
<path opacity="0.5" d="M775 772V733.32V694.711V656.03V617.421V578.741V540.132V501.452V462.771V424.162V385.482V346.873V308.193V269.584V230.903V192.294V153.614V115.005V76.3245V37.7156V-0.964783" stroke="#FF8EEB" stroke-width="2" stroke-miterlimit="10"/>
<path opacity="0.5" d="M720 772V733.32V694.711V656.03V617.421V578.741V540.132V501.452V462.771V424.162V385.482V346.873V308.193V269.584V230.903V192.294V153.614V115.005V76.3245V37.7156V-0.964783" stroke="#FF8EEB" stroke-width="2" stroke-miterlimit="10"/>
<path opacity="0.5" d="M665 772V733.32V694.711V656.03V617.421V578.741V540.132V501.452V462.771V424.162V385.482V346.873V308.193V269.584V230.903V192.294V153.614V115.005V76.3245V37.7156V-0.964783" stroke="#FF8EEB" stroke-width="2" stroke-miterlimit="10"/>
<path opacity="0.5" d="M609 772V733.32V694.711V656.03V617.421V578.741V540.132V501.452V462.771V424.162V385.482V346.873V308.193V269.584V230.903V192.294V153.614V115.005V76.3245V37.7156V-0.964783" stroke="#FF8EEB" stroke-width="2" stroke-miterlimit="10"/>
<path opacity="0.5" d="M554 772V733.32V694.711V656.03V617.421V578.741V540.132V501.452V462.771V424.162V385.482V346.873V308.193V269.584V230.903V192.294V153.614V115.005V76.3245V37.7156V-0.964783" stroke="#FF8EEB" stroke-width="2" stroke-miterlimit="10"/>
<path opacity="0.5" d="M498 772V733.32V694.711V656.03V617.421V578.741V540.132V501.452V462.771V424.162V385.482V346.873V308.193V269.584V230.903V192.294V153.614V115.005V76.3245V37.7156V-0.964783" stroke="#FF8EEB" stroke-width="2" stroke-miterlimit="10"/>
<path opacity="0.5" d="M443 772V733.32V694.711V656.03V617.421V578.741V540.132V501.452V462.771V424.162V385.482V346.873V308.193V269.584V230.903V192.294V153.614V115.005V76.3245V37.7156V-0.964783" stroke="#FF8EEB" stroke-width="2" stroke-miterlimit="10"/>
<path opacity="0.5" d="M388 772V733.32V694.711V656.03V617.421V578.741V540.132V501.452V462.771V424.162V385.482V346.873V308.193V269.584V230.903V192.294V153.614V115.005V76.3245V37.7156V-0.964783" stroke="#FF8EEB" stroke-width="2" stroke-miterlimit="10"/>
<path opacity="0.5" d="M332 772V733.32V694.711V656.03V617.421V578.741V540.132V501.452V462.771V424.162V385.482V346.873V308.193V269.584V230.903V192.294V153.614V115.005V76.3245V37.7156V-0.964783" stroke="#FF8EEB" stroke-width="2" stroke-miterlimit="10"/>
<path opacity="0.5" d="M277 772V733.32V694.711V656.03V617.421V578.741V540.132V501.452V462.771V424.162V385.482V346.873V308.193V269.584V230.903V192.294V153.614V115.005V76.3245V37.7156V-0.964783" stroke="#FF8EEB" stroke-width="2" stroke-miterlimit="10"/>
<path opacity="0.5" d="M222 772L222 733.32L222 694.711L222 656.03L222 617.421L222 578.741L222 540.132L222 501.452L222 462.771L222 424.162L222 385.482L222 346.873L222 308.193L222 269.584L222 230.903L222 192.294L222 153.614L222 115.005L222 76.3245L222 37.7156L222 -0.964783" stroke="#FF8EEB" stroke-width="2" stroke-miterlimit="10"/>
<path opacity="0.5" d="M166 772V733.32V694.711V656.03V617.421V578.741V540.132V501.452V462.771V424.162V385.482V346.873V308.193V269.584V230.903V192.294V153.614V115.005V76.3245V37.7156V-0.964783" stroke="#FF8EEB" stroke-width="2" stroke-miterlimit="10"/>
<path opacity="0.5" d="M111 772V733.32V694.711V656.03V617.421V578.741V540.132V501.452V462.771V424.162V385.482V346.873V308.193V269.584V230.903V192.294V153.614V115.005V76.3245V37.7156V-0.964783" stroke="#FF8EEB" stroke-width="2" stroke-miterlimit="10"/>
<path opacity="0.5" d="M55 772V733.32V694.711V656.03V617.421V578.741V540.132V501.452V462.771V424.162V385.482V346.873V308.193V269.584V230.903V192.294V153.614V115.005V76.3245V37.7156V-0.964783" stroke="#FF8EEB" stroke-width="2" stroke-miterlimit="10"/>
</g>
</svg>
