<svg width="208" height="35" viewBox="0 0 208 35" fill="none" xmlns="http://www.w3.org/2000/svg">
<path d="M203.276 13.2084H203.084H202.151C202.116 13.2084 202.081 13.2041 202.049 13.1933L202.009 13.1802L201.991 13.1431C201.839 12.8402 201.763 12.3316 201.749 11.6345L201.749 11.6335C201.743 10.9358 201.722 10.4996 201.691 10.3148C201.601 9.8285 201.384 9.50783 201.05 9.3315C200.905 9.2558 200.758 9.20588 200.608 9.18097L200.604 9.18031L200.604 9.18023C200.451 9.14829 200.287 9.13213 200.112 9.13213H200.112H200.111H200.11H200.109H200.108H200.107H200.106H200.105H200.104H200.103H200.102H200.101H200.1H200.099H200.098H200.097H200.097H200.096H200.095H200.094H200.093H200.092H200.091H200.09H200.089H200.088H200.087H200.086H200.086H200.085H200.084H200.083H200.082H200.081H200.08H200.079H200.078H200.077H200.076H200.075H200.075H200.074H200.073H200.072H200.071H200.07H200.069H200.068H200.067H200.066H200.066H200.065H200.064H200.063H200.062H200.061H200.06H200.059H200.058H200.057H200.057H200.056H200.055H200.054H200.053H200.052H200.051H200.05H200.05H200.049H200.048H200.047H200.046H200.045H200.044H200.043H200.042H200.042H200.041H200.04H200.039H200.038H200.037H200.036H200.035H200.035H200.034H200.033H200.032H200.031H200.03H200.029H200.029H200.028H200.027H200.026H200.025H200.024H200.023H200.023H200.022H200.021H200.02H200.019H200.018H200.017H200.017H200.016H200.015H200.014H200.013H200.012H200.011H200.011H200.01H200.009H200.008H200.007H200.006H200.006H200.005H200.004H200.003H200.002H200.001H200.001H200H199.999H199.998H199.997H199.996H199.996H199.995H199.994H199.993H199.992H199.991H199.991H199.99H199.989H199.988H199.987H199.986H199.986H199.985H199.984H199.983H199.982H199.982H199.981H199.98H199.979H199.978H199.977H199.977H199.976H199.975H199.974H199.973H199.973H199.972H199.971H199.97H199.969H199.969H199.968H199.967H199.966H199.965H199.965H199.964H199.963H199.962H199.961H199.961H199.96H199.959H199.958H199.957H199.957H199.956H199.955H199.954H199.954H199.953H199.952H199.951H199.95H199.95H199.949H199.948H199.947H199.946H199.946H199.945H199.944H199.943H199.943H199.942H199.941H199.94H199.94H199.939H199.938H199.937H199.936H199.936H199.935H199.934H199.933H199.933H199.932H199.931H199.93H199.93H199.929H199.928H199.927H199.927H199.926H199.925H199.924H199.923H199.923H199.922H199.921H199.92H199.92H199.919H199.918H199.917H199.917H199.916H199.915H199.915H199.914H199.913H199.912H199.912H199.911H199.91H199.909H199.909H199.908H199.907H199.906H199.906H199.905H199.904H199.903H199.903H199.902H199.901H199.901H199.9H199.899H199.898H199.898H199.897H199.896H199.895H199.895H199.894H199.893H199.893H199.892H199.891H199.89H199.89H199.889H199.888H199.888H199.887H199.886H199.885H199.885H199.884H199.883H199.883H199.882H199.881H199.881H199.88H199.879H199.878H199.878H199.877H199.876H199.876H199.875H199.874H199.874H199.873H199.872H199.871H199.871H199.87H199.869H199.869H199.868H199.867H199.867H199.866H199.865H199.865H199.864H199.863H199.863H199.862H199.861H199.86H199.86H199.859H199.858H199.858H199.857H199.856H199.856H199.855H199.854H199.854H199.853H199.852H199.852H199.851H199.85H199.85H199.849H199.848H199.848H199.847H199.846H199.846H199.845H199.844H199.844H199.843H199.842H199.842H199.841H199.84H199.84H199.839H199.839H199.838H199.837H199.837H199.836H199.835H199.835H199.834H199.833H199.833H199.832H199.831H199.831H199.83H199.829H199.829H199.828H199.828H199.827H199.826H199.826H199.825H199.824H199.824H199.823H199.822H199.822H199.821H199.821H199.82H199.819H199.819H199.818H199.817H199.817H199.816H199.816H199.815H199.814H199.814H199.813H199.813H199.812H199.811H199.811H199.81H199.809H199.809H199.808H199.808H199.807H199.806H199.806H199.805H199.805H199.804H199.803H199.803H199.802H199.802H199.801H199.8H199.8H199.799H199.799H199.798H199.797H199.797H199.796H199.796H199.795H199.794H199.794H199.793H199.793H199.792H199.791H199.791H199.79H199.79H199.789H199.789H199.788H199.787H199.787H199.786H199.786H199.785H199.784H199.784H199.783H199.783H199.782H199.782H199.781H199.78H199.78H199.779H199.779H199.778H199.778H199.777H199.776H199.776H199.775H199.775H199.774H199.774H199.773H199.773H199.772H199.771H199.771H199.77H199.77H199.769H199.769H199.768H199.768H199.767H199.766H199.766H199.765H199.765H199.764H199.764H199.763H199.763H199.762H199.761H199.761H199.76H199.76H199.759H199.759H199.758H199.758H199.757H199.757H199.756H199.756H199.755H199.755H199.754H199.753H199.753H199.752H199.752H199.751H199.751H199.75H199.75H199.749H199.749H199.748H199.748H199.747H199.747H199.746H199.746H199.745H199.745H199.744H199.744H199.743H199.742H199.742H199.741H199.741H197.441V13.1084V13.2084H197.341H196.468H196.368V13.1084V4.10241V4.00241H196.468H199.771C200.742 4.00241 201.504 4.14363 202.047 4.43602C202.417 4.63497 202.698 4.90409 202.886 5.24384C203.073 5.58297 203.164 5.98696 203.164 6.45181C203.164 7.02239 203.034 7.50226 202.765 7.88436C202.537 8.21727 202.213 8.48768 201.798 8.69753C201.867 8.73531 201.925 8.7677 201.972 8.7947C202.049 8.83856 202.105 8.87239 202.131 8.8921C202.292 9.01028 202.425 9.17719 202.531 9.38783C202.642 9.59619 202.715 9.80636 202.751 10.0181L203.276 13.2084ZM203.276 13.2084L203.166 13.0511C203.121 12.9858 203.075 12.9171 203.029 12.8451L203.276 13.2084ZM195.28 14.9803L195.28 14.9804C196.477 15.728 197.884 16.1 199.5 16.1C201.894 16.1 203.8 15.311 205.207 13.7271C206.47 12.3081 207.1 10.5636 207.1 8.5C207.1 7.18667 206.819 5.96645 206.256 4.84082C205.659 3.64698 204.814 2.70585 203.72 2.01971L203.72 2.01962C202.523 1.27197 201.116 0.9 199.5 0.9C197.113 0.9 195.206 1.6925 193.793 3.28296C192.53 4.70184 191.9 6.443 191.9 8.5C191.9 9.81994 192.181 11.0435 192.744 12.1692L192.744 12.1694C193.341 13.3566 194.187 14.2942 195.28 14.9803ZM204.455 3.96789L204.455 3.96799C205.549 5.19977 206.097 6.70832 206.097 8.5C206.097 10.2915 205.546 11.8034 204.445 13.042C203.229 14.4099 201.584 15.0968 199.5 15.0968C197.416 15.0968 195.771 14.4099 194.555 13.042C193.454 11.8034 192.903 10.2915 192.903 8.5C192.903 6.70852 193.454 5.19659 194.555 3.95802C195.771 2.59006 197.416 1.90321 199.5 1.90321C201.591 1.90321 203.239 2.59336 204.455 3.96789ZM199.912 4.95542C200.565 4.95542 201.067 5.06454 201.428 5.27319C201.874 5.53381 202.101 5.95319 202.101 6.55221C202.101 7.17146 201.868 7.60014 201.409 7.86071C201.048 8.06306 200.539 8.16908 199.871 8.16908H197.451L197.442 4.95542H199.912Z" fill="#009EE3" stroke="#009EE3" stroke-width="0.2"/>
<path d="M26.4137 34H20.8808L20.8337 14.674L14.909 34H11.1786L5.47324 14.7994L5.50459 34H0.83374L0.880762 9.89341H9.40741L13.4513 24.3448L17.7773 9.89341H26.4137V34Z" fill="#E30514"/>
<path d="M45.7066 34H40.5812L40.3618 32.5737C40.3409 32.3856 40.32 32.2184 40.2991 32.0721C40.2886 31.9154 40.2834 31.7064 40.2834 31.4451C40.1058 31.7377 39.8445 32.0564 39.4997 32.4012C38.9354 32.9551 38.3242 33.3939 37.6659 33.7179C36.7568 34.1567 35.7797 34.3762 34.7348 34.3762C33.1361 34.3762 31.8247 33.9686 30.8006 33.1536C29.6512 32.2341 29.0765 30.9279 29.0765 29.2351C29.0765 27.8035 29.5258 26.6228 30.4245 25.6928C31.1977 24.8882 32.3001 24.2612 33.7317 23.8119C34.8707 23.4566 36.2395 23.2006 37.8383 23.0439L40.064 22.8244V20.9436C40.064 20.4733 39.808 20.0763 39.2959 19.7523C38.7839 19.4284 38.2249 19.2665 37.6188 19.2665C36.7097 19.2665 35.9887 19.4911 35.4558 19.9404C34.9334 20.3898 34.6251 21.0063 34.5311 21.79L29.6094 21.3668L29.6564 21.0533C29.949 19.2665 30.9992 17.908 32.8069 16.9781C34.3221 16.1944 36.1037 15.8025 38.1517 15.8025C39.8968 15.8025 41.3388 16.0533 42.4778 16.5549C43.4182 16.9728 44.1288 17.5371 44.6094 18.2476C44.9856 18.8015 45.1998 19.3866 45.2521 20.0031L45.3931 21.4922V31.9781C45.3931 32.2288 45.3983 32.4326 45.4088 32.5893C45.4297 32.7356 45.4715 32.9603 45.5342 33.2633L45.7066 34ZM40.1267 25.5204L38.5122 25.6614C37.5614 25.7346 36.6941 26.0428 35.9104 26.5862C35.0222 27.1923 34.5781 27.9028 34.5781 28.7179C34.5781 29.2403 34.7818 29.7889 35.1894 30.3636C35.3566 30.604 35.5708 30.7816 35.832 30.8965C36.1037 31.0115 36.3963 31.069 36.7097 31.069C37.5352 31.069 38.2876 30.7503 38.9668 30.1128C39.7191 29.4127 40.0953 28.5507 40.0953 27.5266L40.1267 25.5204Z" fill="#E30514"/>
<path d="M67.6614 34H61.7523L57.9906 25.9122L55.1536 29.3448V34H49.8558L49.8401 9.54858H55.1849V24.0157L61.7366 15.8965H66.9561L61.8464 22.1348L67.6614 34Z" fill="#E30514"/>
<path d="M86.892 25.8495H75.4814V27.3856C75.4814 28.2424 75.8262 28.9948 76.5158 29.6426C77.2159 30.28 78.0205 30.5987 78.9296 30.5987C79.7447 30.5987 80.4761 30.3009 81.124 29.7053C81.6673 29.2038 81.939 28.7492 81.939 28.3417V27.7461L86.845 28.0596L86.7039 28.4671C86.1188 30.2435 85.1835 31.628 83.8983 32.6207C82.4563 33.7388 80.6538 34.2978 78.4908 34.2978C76.0038 34.2978 73.9296 33.4096 72.2682 31.6332C70.659 29.9091 69.8544 27.8192 69.8544 25.3636C69.8544 22.7304 70.5597 20.4838 71.9704 18.6238C73.5691 16.5235 75.7217 15.4733 78.4281 15.4733C80.8837 15.4733 82.9056 16.325 84.4939 18.0282C86.0822 19.7314 86.8763 21.8892 86.8763 24.5016L86.892 25.8495ZM81.5785 22.7147C81.6203 22.5162 81.6412 22.2915 81.6412 22.0407C81.6412 21.2048 81.3852 20.4942 80.8732 19.9091C80.3194 19.2821 79.5984 18.9686 78.7102 18.9686C77.8533 18.9686 77.0853 19.2926 76.4061 19.9404C75.7269 20.5883 75.3873 21.3354 75.3873 22.1818C75.3873 22.3595 75.403 22.5371 75.4343 22.7147H81.5785Z" fill="#E30514"/>
<path d="M99.933 21.0846C99.1493 21.0846 98.6216 21.1108 98.3499 21.163C97.8484 21.257 97.4043 21.4974 97.0176 21.884C96.4952 22.396 96.1138 23.1118 95.8734 24.0313C95.6436 24.9509 95.5286 26.0115 95.5286 27.2132V34H90.4346V15.8965H95.2622V19.4702C95.3144 19.2403 95.398 18.9843 95.5129 18.7022C95.6279 18.4201 95.7167 18.2267 95.7794 18.1223C96.4691 17.0982 97.0385 16.4138 97.4879 16.069C97.9476 15.7137 98.4335 15.536 98.9455 15.536H99.933V21.0846Z" fill="#E30514"/>
<path d="M130.863 14.721H119.295L119.28 19.5172L128.496 19.5329V24.1567H119.28V34.0157L113.7 34V9.89341L130.863 9.90909V14.721Z" fill="#E30514"/>
<path d="M149.681 34H144.556L144.336 32.5737C144.315 32.3856 144.295 32.2184 144.274 32.0721C144.263 31.9154 144.258 31.7064 144.258 31.4451C144.08 31.7377 143.819 32.0564 143.474 32.4012C142.91 32.9551 142.299 33.3939 141.64 33.7179C140.731 34.1567 139.754 34.3762 138.709 34.3762C137.111 34.3762 135.799 33.9686 134.775 33.1536C133.626 32.2341 133.051 30.9279 133.051 29.2351C133.051 27.8035 133.5 26.6228 134.399 25.6928C135.172 24.8882 136.275 24.2612 137.706 23.8119C138.845 23.4566 140.214 23.2006 141.813 23.0439L144.039 22.8244V20.9436C144.039 20.4733 143.783 20.0763 143.271 19.7523C142.759 19.4284 142.199 19.2665 141.593 19.2665C140.684 19.2665 139.963 19.4911 139.43 19.9404C138.908 20.3898 138.6 21.0063 138.506 21.79L133.584 21.3668L133.631 21.0533C133.924 19.2665 134.974 17.908 136.782 16.9781C138.297 16.1944 140.078 15.8025 142.126 15.8025C143.871 15.8025 145.313 16.0533 146.452 16.5549C147.393 16.9728 148.103 17.5371 148.584 18.2476C148.96 18.8015 149.174 19.3866 149.227 20.0031L149.368 21.4922V31.9781C149.368 32.2288 149.373 32.4326 149.383 32.5893C149.404 32.7356 149.446 32.9603 149.509 33.2633L149.681 34ZM144.101 25.5204L142.487 25.6614C141.536 25.7346 140.669 26.0428 139.885 26.5862C138.997 27.1923 138.553 27.9028 138.553 28.7179C138.553 29.2403 138.756 29.7889 139.164 30.3636C139.331 30.604 139.545 30.7816 139.807 30.8965C140.078 31.0115 140.371 31.069 140.684 31.069C141.51 31.069 142.262 30.7503 142.941 30.1128C143.694 29.4127 144.07 28.5507 144.07 27.5266L144.101 25.5204Z" fill="#E30514"/>
<path d="M159.52 14.3918H154.254V9.54858H159.52V14.3918ZM159.536 34H154.254V15.8965H159.536V34Z" fill="#E30514"/>
<path d="M174.142 21.0846C173.358 21.0846 172.831 21.1108 172.559 21.163C172.057 21.257 171.613 21.4974 171.227 21.884C170.704 22.396 170.323 23.1118 170.082 24.0313C169.853 24.9509 169.738 26.0115 169.738 27.2132V34H164.644V15.8965H169.471V19.4702C169.523 19.2403 169.607 18.9843 169.722 18.7022C169.837 18.4201 169.926 18.2267 169.988 18.1223C170.678 17.0982 171.248 16.4138 171.697 16.069C172.157 15.7137 172.643 15.536 173.155 15.536H174.142V21.0846Z" fill="#E30514"/>
<path d="M193.152 25.8495H181.741V27.3856C181.741 28.2424 182.086 28.9948 182.776 29.6426C183.476 30.28 184.28 30.5987 185.189 30.5987C186.004 30.5987 186.736 30.3009 187.384 29.7053C187.927 29.2038 188.199 28.7492 188.199 28.3417V27.7461L193.105 28.0596L192.964 28.4671C192.379 30.2435 191.443 31.628 190.158 32.6207C188.716 33.7388 186.914 34.2978 184.751 34.2978C182.264 34.2978 180.189 33.4096 178.528 31.6332C176.919 29.9091 176.114 27.8192 176.114 25.3636C176.114 22.7304 176.819 20.4838 178.23 18.6238C179.829 16.5235 181.981 15.4733 184.688 15.4733C187.143 15.4733 189.165 16.325 190.754 18.0282C192.342 19.7314 193.136 21.8892 193.136 24.5016L193.152 25.8495ZM187.838 22.7147C187.88 22.5162 187.901 22.2915 187.901 22.0407C187.901 21.2048 187.645 20.4942 187.133 19.9091C186.579 19.2821 185.858 18.9686 184.97 18.9686C184.113 18.9686 183.345 19.2926 182.666 19.9404C181.987 20.5883 181.647 21.3354 181.647 22.1818C181.647 22.3595 181.663 22.5371 181.694 22.7147H187.838Z" fill="#E30514"/>
</svg>
