<svg width="207" height="34" viewBox="0 0 207 34" fill="none" xmlns="http://www.w3.org/2000/svg">
<path d="M26.4137 33H20.8808L20.8337 13.674L14.909 33H11.1786L5.47324 13.7994L5.50459 33H0.83374L0.880762 8.89341H9.40741L13.4513 23.3448L17.7773 8.89341H26.4137V33Z" fill="#E30514"/>
<path d="M45.7066 33H40.5812L40.3618 31.5737C40.3409 31.3856 40.32 31.2184 40.2991 31.0721C40.2886 30.9154 40.2834 30.7064 40.2834 30.4451C40.1058 30.7377 39.8445 31.0564 39.4997 31.4012C38.9354 31.9551 38.3242 32.3939 37.6659 32.7179C36.7568 33.1567 35.7797 33.3762 34.7348 33.3762C33.1361 33.3762 31.8247 32.9686 30.8006 32.1536C29.6512 31.2341 29.0765 29.9279 29.0765 28.2351C29.0765 26.8035 29.5258 25.6228 30.4245 24.6928C31.1977 23.8882 32.3001 23.2612 33.7317 22.8119C34.8707 22.4566 36.2395 22.2006 37.8383 22.0439L40.064 21.8244V19.9436C40.064 19.4733 39.808 19.0763 39.2959 18.7523C38.7839 18.4284 38.2249 18.2665 37.6188 18.2665C36.7097 18.2665 35.9887 18.4911 35.4558 18.9404C34.9334 19.3898 34.6251 20.0063 34.5311 20.79L29.6094 20.3668L29.6564 20.0533C29.949 18.2665 30.9992 16.908 32.8069 15.9781C34.3221 15.1944 36.1037 14.8025 38.1517 14.8025C39.8968 14.8025 41.3388 15.0533 42.4778 15.5549C43.4182 15.9728 44.1288 16.5371 44.6094 17.2476C44.9856 17.8015 45.1998 18.3866 45.2521 19.0031L45.3931 20.4922V30.9781C45.3931 31.2288 45.3983 31.4326 45.4088 31.5893C45.4297 31.7356 45.4715 31.9603 45.5342 32.2633L45.7066 33ZM40.1267 24.5204L38.5122 24.6614C37.5614 24.7346 36.6941 25.0428 35.9104 25.5862C35.0222 26.1923 34.5781 26.9028 34.5781 27.7179C34.5781 28.2403 34.7818 28.7889 35.1894 29.3636C35.3566 29.604 35.5708 29.7816 35.832 29.8965C36.1037 30.0115 36.3963 30.069 36.7097 30.069C37.5352 30.069 38.2876 29.7503 38.9668 29.1128C39.7191 28.4127 40.0953 27.5507 40.0953 26.5266L40.1267 24.5204Z" fill="#E30514"/>
<path d="M67.6614 33H61.7523L57.9906 24.9122L55.1536 28.3448V33H49.8558L49.8401 8.54858H55.1849V23.0157L61.7366 14.8965H66.9561L61.8464 21.1348L67.6614 33Z" fill="#E30514"/>
<path d="M86.892 24.8495H75.4814V26.3856C75.4814 27.2424 75.8262 27.9948 76.5158 28.6426C77.2159 29.28 78.0205 29.5987 78.9296 29.5987C79.7447 29.5987 80.4761 29.3009 81.124 28.7053C81.6673 28.2038 81.939 27.7492 81.939 27.3417V26.7461L86.845 27.0596L86.7039 27.4671C86.1188 29.2435 85.1835 30.628 83.8983 31.6207C82.4563 32.7388 80.6538 33.2978 78.4908 33.2978C76.0038 33.2978 73.9296 32.4096 72.2682 30.6332C70.659 28.9091 69.8544 26.8192 69.8544 24.3636C69.8544 21.7304 70.5597 19.4838 71.9704 17.6238C73.5691 15.5235 75.7217 14.4733 78.4281 14.4733C80.8837 14.4733 82.9056 15.325 84.4939 17.0282C86.0822 18.7314 86.8763 20.8892 86.8763 23.5016L86.892 24.8495ZM81.5785 21.7147C81.6203 21.5162 81.6412 21.2915 81.6412 21.0407C81.6412 20.2048 81.3852 19.4942 80.8732 18.9091C80.3194 18.2821 79.5984 17.9686 78.7102 17.9686C77.8533 17.9686 77.0853 18.2926 76.4061 18.9404C75.7269 19.5883 75.3873 20.3354 75.3873 21.1818C75.3873 21.3595 75.403 21.5371 75.4343 21.7147H81.5785Z" fill="#E30514"/>
<path d="M99.933 20.0846C99.1493 20.0846 98.6216 20.1108 98.3499 20.163C97.8484 20.257 97.4043 20.4974 97.0176 20.884C96.4952 21.396 96.1138 22.1118 95.8734 23.0313C95.6436 23.9509 95.5286 25.0115 95.5286 26.2132V33H90.4346V14.8965H95.2622V18.4702C95.3144 18.2403 95.398 17.9843 95.5129 17.7022C95.6279 17.4201 95.7167 17.2267 95.7794 17.1223C96.4691 16.0982 97.0385 15.4138 97.4879 15.069C97.9476 14.7137 98.4335 14.536 98.9455 14.536H99.933V20.0846Z" fill="#E30514"/>
<path d="M130.863 13.721H119.295L119.28 18.5172L128.496 18.5329V23.1567H119.28V33.0157L113.7 33V8.89341L130.863 8.90909V13.721Z" fill="#E30514"/>
<path d="M149.681 33H144.556L144.336 31.5737C144.315 31.3856 144.295 31.2184 144.274 31.0721C144.263 30.9154 144.258 30.7064 144.258 30.4451C144.08 30.7377 143.819 31.0564 143.474 31.4012C142.91 31.9551 142.299 32.3939 141.64 32.7179C140.731 33.1567 139.754 33.3762 138.709 33.3762C137.111 33.3762 135.799 32.9686 134.775 32.1536C133.626 31.2341 133.051 29.9279 133.051 28.2351C133.051 26.8035 133.5 25.6228 134.399 24.6928C135.172 23.8882 136.275 23.2612 137.706 22.8119C138.845 22.4566 140.214 22.2006 141.813 22.0439L144.039 21.8244V19.9436C144.039 19.4733 143.783 19.0763 143.271 18.7523C142.759 18.4284 142.199 18.2665 141.593 18.2665C140.684 18.2665 139.963 18.4911 139.43 18.9404C138.908 19.3898 138.6 20.0063 138.506 20.79L133.584 20.3668L133.631 20.0533C133.924 18.2665 134.974 16.908 136.782 15.9781C138.297 15.1944 140.078 14.8025 142.126 14.8025C143.871 14.8025 145.313 15.0533 146.452 15.5549C147.393 15.9728 148.103 16.5371 148.584 17.2476C148.96 17.8015 149.174 18.3866 149.227 19.0031L149.368 20.4922V30.9781C149.368 31.2288 149.373 31.4326 149.383 31.5893C149.404 31.7356 149.446 31.9603 149.509 32.2633L149.681 33ZM144.101 24.5204L142.487 24.6614C141.536 24.7346 140.669 25.0428 139.885 25.5862C138.997 26.1923 138.553 26.9028 138.553 27.7179C138.553 28.2403 138.756 28.7889 139.164 29.3636C139.331 29.604 139.545 29.7816 139.807 29.8965C140.078 30.0115 140.371 30.069 140.684 30.069C141.51 30.069 142.262 29.7503 142.941 29.1128C143.694 28.4127 144.07 27.5507 144.07 26.5266L144.101 24.5204Z" fill="#E30514"/>
<path d="M159.52 13.3918H154.254V8.54858H159.52V13.3918ZM159.536 33H154.254V14.8965H159.536V33Z" fill="#E30514"/>
<path d="M174.142 20.0846C173.358 20.0846 172.831 20.1108 172.559 20.163C172.057 20.257 171.613 20.4974 171.227 20.884C170.704 21.396 170.323 22.1118 170.082 23.0313C169.853 23.9509 169.738 25.0115 169.738 26.2132V33H164.644V14.8965H169.471V18.4702C169.523 18.2403 169.607 17.9843 169.722 17.7022C169.837 17.4201 169.926 17.2267 169.988 17.1223C170.678 16.0982 171.248 15.4138 171.697 15.069C172.157 14.7137 172.643 14.536 173.155 14.536H174.142V20.0846Z" fill="#E30514"/>
<path d="M193.152 24.8495H181.741V26.3856C181.741 27.2424 182.086 27.9948 182.776 28.6426C183.476 29.28 184.28 29.5987 185.189 29.5987C186.004 29.5987 186.736 29.3009 187.384 28.7053C187.927 28.2038 188.199 27.7492 188.199 27.3417V26.7461L193.105 27.0596L192.964 27.4671C192.379 29.2435 191.443 30.628 190.158 31.6207C188.716 32.7388 186.914 33.2978 184.751 33.2978C182.264 33.2978 180.189 32.4096 178.528 30.6332C176.919 28.9091 176.114 26.8192 176.114 24.3636C176.114 21.7304 176.819 19.4838 178.23 17.6238C179.829 15.5235 181.981 14.4733 184.688 14.4733C187.143 14.4733 189.165 15.325 190.754 17.0282C192.342 18.7314 193.136 20.8892 193.136 23.5016L193.152 24.8495ZM187.838 21.7147C187.88 21.5162 187.901 21.2915 187.901 21.0407C187.901 20.2048 187.645 19.4942 187.133 18.9091C186.579 18.2821 185.858 17.9686 184.97 17.9686C184.113 17.9686 183.345 18.2926 182.666 18.9404C181.987 19.5883 181.647 20.3354 181.647 21.1818C181.647 21.3595 181.663 21.5371 181.694 21.7147H187.838Z" fill="#E30514"/>
</svg>
