<svg width="343" height="315" viewBox="0 0 343 315" fill="none" xmlns="http://www.w3.org/2000/svg">
<g clip-path="url(#clip0)">
<path d="M284.019 100.992C239.32 62.9461 172.552 60.1624 124.484 97.7177C76.4149 135.273 62.9633 200.731 89.0653 253.307C92.7741 260.815 97.298 268.067 102.716 275.002C108.134 281.936 114.014 288.001 120.402 293.416L315.356 141.102C311.648 133.593 307.124 126.341 301.767 119.485C296.411 112.63 290.407 106.407 284.019 100.992ZM122.792 226.956C110.124 193.2 120.168 153.754 150.034 130.42C179.899 107.087 220.603 106.884 250.292 127.342L122.792 226.956Z" fill="#4E668D" stroke="#171D4D" stroke-width="3" stroke-miterlimit="10"/>
<path d="M269.065 145.035C274.544 152.049 278.674 159.609 281.629 167.452L154.129 267.066C147.234 262.301 140.836 256.386 135.418 249.452C130 242.517 125.809 234.878 122.792 226.956L250.292 127.342C257.249 132.186 263.586 138.022 269.065 145.035Z" fill="#4E668D" stroke="#171D4D" stroke-width="3" stroke-miterlimit="10"/>
<path d="M308.92 81.537L64.1642 272.761L95.5013 312.871L340.257 121.647L308.92 81.537Z" fill="#4E668D" stroke="#171D4D" stroke-width="3" stroke-miterlimit="10"/>
<path d="M105.745 304.868L98.7269 295.884" stroke="#171D4D" stroke-width="3" stroke-miterlimit="10"/>
<path d="M161.773 261.094L154.755 252.111" stroke="#171D4D" stroke-width="3" stroke-miterlimit="10"/>
<path d="M119.772 293.909L117.125 290.52L116.017 289.102" stroke="#171D4D" stroke-width="3" stroke-miterlimit="10"/>
<path d="M133.72 283.012L129.964 278.205" stroke="#171D4D" stroke-width="3" stroke-miterlimit="10"/>
<path d="M147.746 272.053L143.991 267.246" stroke="#171D4D" stroke-width="3" stroke-miterlimit="10"/>
<path d="M217.879 217.259L209.814 206.936" stroke="#171D4D" stroke-width="3" stroke-miterlimit="10"/>
<path d="M175.8 250.135L171.059 244.068" stroke="#171D4D" stroke-width="3" stroke-miterlimit="10"/>
<path d="M189.826 239.177L185.086 233.109" stroke="#171D4D" stroke-width="3" stroke-miterlimit="10"/>
<path d="M203.853 228.218L199.112 222.15" stroke="#171D4D" stroke-width="3" stroke-miterlimit="10"/>
<path d="M273.907 173.485L265.103 162.217" stroke="#171D4D" stroke-width="3" stroke-miterlimit="10"/>
<path d="M231.906 206.3L226.427 199.287" stroke="#171D4D" stroke-width="3" stroke-miterlimit="10"/>
<path d="M245.933 195.341L240.453 188.328" stroke="#171D4D" stroke-width="3" stroke-miterlimit="10"/>
<path d="M259.959 184.383L254.48 177.369" stroke="#171D4D" stroke-width="3" stroke-miterlimit="10"/>
<path d="M330.013 129.65L321.086 118.224" stroke="#171D4D" stroke-width="3" stroke-miterlimit="10"/>
<path d="M287.934 162.527L282.331 155.356" stroke="#171D4D" stroke-width="3" stroke-miterlimit="10"/>
<path d="M301.96 151.568L296.358 144.397" stroke="#171D4D" stroke-width="3" stroke-miterlimit="10"/>
<path d="M315.987 140.609L313.339 137.221L310.384 133.438" stroke="#171D4D" stroke-width="3" stroke-miterlimit="10"/>
<path d="M88.9587 220.522L78.3672 222.071" stroke="#171D4D" stroke-width="3" stroke-miterlimit="10"/>
<path d="M88.4775 176.863L77.8441 175.273" stroke="#171D4D" stroke-width="3" stroke-miterlimit="10"/>
<path d="M129.653 107.258L122.986 98.8875" stroke="#171D4D" stroke-width="3" stroke-miterlimit="10"/>
<path d="M104.112 138.888L93.4337 133.017" stroke="#171D4D" stroke-width="3" stroke-miterlimit="10"/>
<path d="M252.788 81.4841L247.937 93.142" stroke="#171D4D" stroke-width="3" stroke-miterlimit="10"/>
<path d="M206.834 71.0684L205.692 82.113" stroke="#171D4D" stroke-width="3" stroke-miterlimit="10"/>
<path d="M162.311 77.4277L165.062 88.0956" stroke="#171D4D" stroke-width="3" stroke-miterlimit="10"/>
</g>
<defs>
<clipPath id="clip0">
<rect width="313.6" height="154.7" fill="white" transform="translate(0 193.071) rotate(-38)"/>
</clipPath>
</defs>
</svg>
