<svg width="440" height="340" viewBox="0 0 440 340" fill="none" xmlns="http://www.w3.org/2000/svg">
<path d="M271.868 261.507C288.65 246.716 307.375 225.323 315.162 198.876L349.175 203.506C349.166 203.523 349.157 203.541 349.148 203.559C348.525 204.799 347.538 206.649 346.096 209.056C343.214 213.87 338.515 220.91 331.275 229.748C316.941 247.247 292.643 271.798 252.765 300.056L240.995 284.07C241.341 283.869 241.743 283.633 242.197 283.362C243.903 282.342 246.346 280.828 249.318 278.845C255.26 274.879 263.33 269.032 271.868 261.507Z" fill="#4E668D" stroke="#171D4D" stroke-width="3"/>
<path d="M348.752 138.257C348.931 138.199 349.088 138.149 349.222 138.106C349.401 138.198 349.621 138.309 349.88 138.44C350.657 138.834 351.781 139.399 353.171 140.086C355.95 141.46 359.797 143.326 364.065 145.29C372.557 149.198 382.867 153.569 389.734 155.175C391.812 155.661 394.051 155.279 396.273 154.417C398.505 153.551 400.842 152.156 403.189 150.445C407.881 147.023 412.802 142.197 417.252 137.33C421.712 132.452 425.743 127.482 428.657 123.736C428.755 123.61 428.852 123.485 428.947 123.362C428.458 125.134 427.859 127.177 427.141 129.422C424.642 137.243 420.721 147.471 415.028 157.172C409.328 166.885 401.909 175.971 392.458 181.631C383.061 187.26 371.565 189.56 357.508 185.585C342.704 181.4 325.716 182.603 308.671 186.659C291.609 190.719 274.364 197.668 258.978 205.107C243.585 212.55 230.013 220.502 220.291 226.592C215.429 229.637 211.527 232.219 208.838 234.041C207.617 234.868 206.647 235.539 205.95 236.025L194.138 217.797C225.72 192.315 264.369 172.422 295.296 158.851C310.921 151.994 324.556 146.76 334.282 143.24C339.144 141.481 343.029 140.15 345.696 139.26C347.029 138.815 348.058 138.48 348.752 138.257Z" fill="#4E668D" stroke="#171D4D" stroke-width="3"/>
<path d="M342.511 128.944C342.58 128.8 342.652 128.649 342.73 128.49C343.422 127.069 344.484 125.055 345.95 122.709C348.886 118.013 353.426 112.016 359.846 106.777C366.259 101.545 374.543 97.07 384.999 95.3842C394.77 93.8089 406.52 94.6555 420.514 99.698L381.575 121.817L381.095 122.091L380.906 122.61L376.889 133.682L342.511 128.944Z" fill="#4E668D" stroke="#171D4D" stroke-width="3"/>
<path d="M186.331 55.2682L187.362 56.3411L188.443 55.3184L202.316 42.1947C203.169 55.3524 195.751 68.2519 182.937 73.6913C181.961 74.1056 180.944 74.4549 179.951 74.7891L179.239 75.0288L179.004 75.743L140.852 192L140.53 192.982L141.333 193.633C146.863 198.117 151.405 204.04 154.384 211.057C164.196 234.172 153.434 260.953 130.249 270.794C116.553 276.608 101.557 275.167 89.5802 268.257L113.763 256.885L115.092 256.26L114.496 254.918L99.0632 220.205L98.4515 218.829L97.078 219.446L67.0053 232.95C65.2638 213.738 75.8761 194.803 94.6157 186.848C100.266 184.45 106.12 183.315 111.918 183.223L112.981 183.206L113.317 182.197L150.578 70.4187L150.901 69.4516L150.12 68.7959C146.358 65.6352 143.21 61.553 141.174 56.7569C134.313 40.5919 141.87 21.8873 158.035 15.0257C165.088 12.0318 172.603 11.7403 179.385 13.7421L163.547 29.433L162.497 30.4729L163.521 31.5381L186.331 55.2682Z" fill="#4E668D" stroke="#171D4D" stroke-width="3"/>
</svg>
