<svg width="262" height="259" viewBox="0 0 262 259" fill="none" xmlns="http://www.w3.org/2000/svg">
<path d="M2.0289 4.8588V256.976H256.995L2.0289 4.8588ZM47.4765 112.022L144.594 207.983H47.4765V112.022Z" fill="#4E668D" stroke="#171D4D" stroke-width="3" stroke-miterlimit="10"/>
<path d="M14.6082 256.976V240.915" stroke="#171D4D" stroke-width="3" stroke-miterlimit="10"/>
<path d="M110.914 256.976V238.62" stroke="#171D4D" stroke-width="3" stroke-miterlimit="10"/>
<path d="M38.6846 256.976V245.908" stroke="#171D4D" stroke-width="3" stroke-miterlimit="10"/>
<path d="M62.761 256.976V245.908" stroke="#171D4D" stroke-width="3" stroke-miterlimit="10"/>
<path d="M86.8374 256.976V245.908" stroke="#171D4D" stroke-width="3" stroke-miterlimit="10"/>
<path d="M207.084 256.976V237.001" stroke="#171D4D" stroke-width="3" stroke-miterlimit="10"/>
<path d="M134.99 256.976V244.289" stroke="#171D4D" stroke-width="3" stroke-miterlimit="10"/>
<path d="M159.067 256.976V244.289" stroke="#171D4D" stroke-width="3" stroke-miterlimit="10"/>
<path d="M183.008 256.976V244.289" stroke="#171D4D" stroke-width="3" stroke-miterlimit="10"/>
<path d="M231.161 256.976V244.019" stroke="#171D4D" stroke-width="3" stroke-miterlimit="10"/>
<path d="M25.8348 152.242H2.0289" stroke="#171D4D" stroke-width="3" stroke-miterlimit="10"/>
<path d="M13.2555 224.314H2.0289" stroke="#171D4D" stroke-width="3" stroke-miterlimit="10"/>
<path d="M13.2555 200.29H2.0289" stroke="#171D4D" stroke-width="3" stroke-miterlimit="10"/>
<path d="M13.2555 176.266H2.0289" stroke="#171D4D" stroke-width="3" stroke-miterlimit="10"/>
<path d="M24.2117 56.2809H2.0289" stroke="#171D4D" stroke-width="3" stroke-miterlimit="10"/>
<path d="M11.6324 128.218H2.0289" stroke="#171D4D" stroke-width="3" stroke-miterlimit="10"/>
<path d="M11.6324 104.329H2.0289" stroke="#171D4D" stroke-width="3" stroke-miterlimit="10"/>
<path d="M11.6324 80.3049H2.0289" stroke="#171D4D" stroke-width="3" stroke-miterlimit="10"/>
<path d="M11.3619 32.2569H2.0289" stroke="#171D4D" stroke-width="3" stroke-miterlimit="10"/>
</svg>
