<svg width="34" height="34" viewBox="0 0 34 34" fill="none" xmlns="http://www.w3.org/2000/svg">
<g clip-path="url(#clip0)">
<path d="M31.3352 14.4472L31.387 14.4585H9.17L16.1542 7.45337C16.4962 7.11136 16.6838 6.64806 16.6838 6.1618C16.6838 5.67554 16.4962 5.21548 16.1542 4.87267L15.0675 3.78452C14.7257 3.44252 14.2704 3.25342 13.7848 3.25342C13.2989 3.25342 12.8432 3.44117 12.5015 3.78317L0.529221 15.7638C0.186138 16.1072 -0.0014645 16.5646 -0.000114838 17.0511C-0.0014645 17.5403 0.186138 17.9979 0.529221 18.3408L12.5015 30.3225C12.8432 30.6642 13.2986 30.8523 13.7848 30.8523C14.2704 30.8523 14.7257 30.664 15.0675 30.3225L16.1542 29.2344C16.4962 28.8929 16.6838 28.4369 16.6838 27.9506C16.6838 27.4646 16.4962 27.0327 16.1542 26.6909L9.09118 19.6466H31.36C32.3606 19.6466 33.2015 18.7835 33.2015 17.7826V16.2436C33.2015 15.2427 32.3358 14.4472 31.3352 14.4472Z" fill="#32298D"/>
</g>
<defs>
<clipPath id="clip0">
<rect width="33.2016" height="33.2279" fill="white" transform="translate(0 0.438965)"/>
</clipPath>
</defs>
</svg>
