<svg xmlns="http://www.w3.org/2000/svg" viewBox="0 0 82.54 70"><defs><style>.cls-1{fill:none;stroke:#494949;stroke-miterlimit:10;}.cls-2{fill:#0057ff;}</style></defs><g id="Layer_2" data-name="Layer 2"><g id="Level"><line class="cls-1" y1="58.6" x2="81.39" y2="58.94"/><line class="cls-1" x1="1.15" y1="9.79" x2="82.54" y2="10.13"/><line class="cls-1" x1="74.04" y1="0.08" x2="73.7" y2="70"/><line class="cls-1" x1="12.48" x2="12.14" y2="69.92"/><path class="cls-2" d="M64.79,18.81a2.46,2.46,0,0,0-3.12-.3C58,21,39.54,33.63,37.56,35.61A7.38,7.38,0,0,0,48,46.05c2-2,14.59-20.44,17.1-24.12A2.46,2.46,0,0,0,64.79,18.81ZM44.51,42.57A2.46,2.46,0,0,1,41,39.09c.77-.76,6-4.5,12.46-9C49,36.56,45.27,41.8,44.51,42.57Z"/><path class="cls-2" d="M22.64,52.27l-3,1.48A26.46,26.46,0,0,1,18,31.4l3.47,1.67a2.42,2.42,0,0,0,1.07.24,2.46,2.46,0,0,0,1.06-4.67L20.12,27a26.58,26.58,0,0,1,20.19-12.6v3.7a2.46,2.46,0,0,0,4.92,0v-3.7a26.15,26.15,0,0,1,8.45,2.22,2.46,2.46,0,1,0,2-4.48A31.45,31.45,0,0,0,16.63,58.3a2.47,2.47,0,0,0,2.05,1.09,2.4,2.4,0,0,0,1.07-.25l5-2.45a2.46,2.46,0,1,0-2.15-4.42Z"/><path class="cls-2" d="M71.47,27.89a2.46,2.46,0,1,0-4.48,2,26.45,26.45,0,0,1-1.06,23.85l-3.17-1.51a2.46,2.46,0,1,0-2.11,4.44l5.16,2.45a2.33,2.33,0,0,0,1,.24,2.47,2.47,0,0,0,2-1.09,31.42,31.42,0,0,0,2.56-30.41Z"/></g></g></svg>