<svg xmlns="http://www.w3.org/2000/svg" viewBox="0 0 71.53 70"><defs><style>.cls-1{fill:none;stroke:#494949;stroke-miterlimit:10;}.cls-2{fill:#0057ff;}</style></defs><g id="Layer_2" data-name="Layer 2"><g id="time"><line class="cls-1" x1="10.24" x2="9.89" y2="70"/><line class="cls-1" x1="60.72" x2="60.37" y2="70"/><line class="cls-1" x1="1.52" y1="8.68" x2="71.52" y2="9.02"/><line class="cls-1" y1="59.16" x2="70" y2="59.5"/><path class="cls-2" d="M35.24,8.69A25.49,25.49,0,1,0,60.72,34.17,25.48,25.48,0,0,0,35.24,8.69Zm0,47.33A21.85,21.85,0,1,1,57.08,34.17,21.85,21.85,0,0,1,35.24,56Z"/><path class="cls-2" d="M35.24,17.79a1.82,1.82,0,0,0-1.82,1.82V32.35H20.68a1.82,1.82,0,1,0,0,3.64H35.24a1.82,1.82,0,0,0,1.82-1.82V19.61A1.83,1.83,0,0,0,35.24,17.79Z"/></g></g></svg>