<svg width="40" height="40" viewBox="0 0 40 40" fill="none" xmlns="http://www.w3.org/2000/svg">
<circle cx="20" cy="20" r="20" fill="#32298D"/>
<path d="M20.6867 7.80493C23.0034 7.80493 24.8503 8.41844 26.2272 9.64546C27.6042 10.8502 28.2926 12.5903 28.2926 14.8659C28.2926 16.9853 27.6151 18.6473 26.26 19.852C24.9268 21.0567 23.1346 21.6814 20.8834 21.726V24.7043H15.6052V18.045H17.8017C19.3753 18.045 20.5993 17.8219 21.4735 17.3757C22.3478 16.9072 22.7849 16.0817 22.7849 14.8993C22.7849 14.1408 22.5773 13.5496 22.162 13.1257C21.7467 12.7019 21.1894 12.4899 20.49 12.4899C19.7032 12.4899 19.0803 12.7353 18.6213 13.2261C18.1842 13.6946 17.9656 14.297 17.9656 15.0332H12.6874C12.6437 13.6946 12.9169 12.4788 13.507 11.3856C14.119 10.2701 15.0369 9.40006 16.2609 8.77539C17.4848 8.12842 18.9601 7.80493 20.6867 7.80493ZM21.1785 27.4484V33.1708H15.3429V27.4484H21.1785Z" fill="white"/>
</svg>
