<svg width="500" height="665" viewBox="0 0 500 665" fill="none" xmlns="http://www.w3.org/2000/svg">
<g opacity="0.5">
<path opacity="0.5" d="M499 635.967H479.839H460.678H441.543H422.383H403.222H384.061H364.926H345.765H326.604H307.444H288.309H269.148H249.987H230.852H211.691H192.53H173.37H154.235H135.074H115.913H96.7782H77.6174H58.4566H39.2957H20.1608H1" stroke="#FF8EEB" stroke-width="2" stroke-miterlimit="10"/>
<path opacity="0.5" d="M498 664H478.916H459.832H440.774H421.69H402.606H383.523H364.465H345.381H326.297H307.213H288.155H269.071H249.987L230.929 664H211.845H192.761H173.677H154.619H135.535H116.452H97.3936H78.3097H59.2258H40.1419H21.0839H2" stroke="#FF8EEB" stroke-width="2" stroke-miterlimit="10"/>
<path opacity="0.5" d="M1 604.052H499" stroke="#FF8EEB" stroke-width="2" stroke-miterlimit="10"/>
<path opacity="0.5" d="M1 572.138H499" stroke="#FF8EEB" stroke-width="2" stroke-miterlimit="10"/>
<path opacity="0.5" d="M1 540.223H499" stroke="#FF8EEB" stroke-width="2" stroke-miterlimit="10"/>
<path opacity="0.5" d="M1 508.973H499" stroke="#FF8EEB" stroke-width="2" stroke-miterlimit="10"/>
<path opacity="0.5" d="M1 477.059H499" stroke="#FF8EEB" stroke-width="2" stroke-miterlimit="10"/>
<path opacity="0.5" d="M1 445.144H499" stroke="#FF8EEB" stroke-width="2" stroke-miterlimit="10"/>
<path opacity="0.5" d="M1 413.23H499" stroke="#FF8EEB" stroke-width="2" stroke-miterlimit="10"/>
<path opacity="0.5" d="M1 381.98H499" stroke="#FF8EEB" stroke-width="2" stroke-miterlimit="10"/>
<path opacity="0.5" d="M1 349.401H499" stroke="#FF8EEB" stroke-width="2" stroke-miterlimit="10"/>
<path opacity="0.5" d="M1 318.151H499" stroke="#FF8EEB" stroke-width="2" stroke-miterlimit="10"/>
<path opacity="0.5" d="M1 286.901H499" stroke="#FF8EEB" stroke-width="2" stroke-miterlimit="10"/>
<path opacity="0.5" d="M1 254.987H499" stroke="#FF8EEB" stroke-width="2" stroke-miterlimit="10"/>
<path opacity="0.5" d="M1 223.072H499" stroke="#FF8EEB" stroke-width="2" stroke-miterlimit="10"/>
<path opacity="0.5" d="M1 191.158H499" stroke="#FF8EEB" stroke-width="2" stroke-miterlimit="10"/>
<path opacity="0.5" d="M1 159.908H499" stroke="#FF8EEB" stroke-width="2" stroke-miterlimit="10"/>
<path opacity="0.5" d="M1 127.993H499" stroke="#FF8EEB" stroke-width="2" stroke-miterlimit="10"/>
<path opacity="0.5" d="M1 96.0788H499" stroke="#FF8EEB" stroke-width="2" stroke-miterlimit="10"/>
<path opacity="0.5" d="M1 64.1642H499" stroke="#FF8EEB" stroke-width="2" stroke-miterlimit="10"/>
<path opacity="0.5" d="M1 32.9146L499 32.9145" stroke="#FF8EEB" stroke-width="2" stroke-miterlimit="10"/>
<path opacity="0.5" d="M500 1L480.762 1L461.524 1L442.313 1L423.075 1L403.837 1L384.599 1L365.388 1L346.15 1L326.912 1L307.674 1L288.463 1L269.225 1L249.987 1L230.775 1L211.537 1L192.3 1L173.062 1L153.85 1L134.612 1L115.375 1L96.1629 1L76.9251 1L57.6873 1L38.4495 1L19.2378 1L0 1" stroke="#FF8EEB" stroke-width="2" stroke-miterlimit="10"/>
<path opacity="0.5" d="M460.742 665V631.772V598.606V565.379V532.212V498.985V465.818V432.591V399.363V366.197V332.969V299.803V266.575V233.409V200.182V167.015V133.788V100.621V67.3939V34.2276V1" stroke="#FF8EEB" stroke-width="2" stroke-miterlimit="10"/>
<path opacity="0.5" d="M499 665V631.822V598.706V565.529V532.412V499.235V466.118V432.941V399.763V366.647V333.469V300.353V267.175V234.059V200.882V167.765V134.588V101.471V68.2939V35.1776V2" stroke="#FF8EEB" stroke-width="2" stroke-miterlimit="10"/>
<path opacity="0.5" d="M422.484 665V631.772V598.606V565.379V532.212V498.985V465.818V432.591V399.363V366.197V332.969V299.803V266.575V233.409V200.182V167.015V133.788V100.621V67.3939V34.2276V1" stroke="#FF8EEB" stroke-width="2" stroke-miterlimit="10"/>
<path opacity="0.5" d="M384.227 665V631.772V598.606V565.379V532.212V498.985V465.818V432.591V399.363V366.197V332.969V299.803V266.575V233.409V200.182V167.015V133.788V100.621V67.3939V34.2276V1" stroke="#FF8EEB" stroke-width="2" stroke-miterlimit="10"/>
<path opacity="0.5" d="M345.969 665V631.772V598.606V565.379V532.212V498.985V465.818V432.591V399.363V366.197V332.969V299.803V266.575V233.409V200.182V167.015V133.788V100.621V67.3939V34.2276V1" stroke="#FF8EEB" stroke-width="2" stroke-miterlimit="10"/>
<path opacity="0.5" d="M307.711 665L307.711 631.772L307.711 598.606L307.711 565.379L307.711 532.212L307.711 498.985L307.711 465.818L307.711 432.591L307.711 399.363L307.711 366.197L307.711 332.969L307.711 299.803L307.711 266.575L307.711 233.409L307.711 200.182L307.711 167.015L307.711 133.788L307.711 100.621L307.711 67.3939L307.711 34.2276L307.711 1" stroke="#FF8EEB" stroke-width="2" stroke-miterlimit="10"/>
<path opacity="0.5" d="M269.453 665V631.772V598.606V565.379V532.212V498.985V465.818V432.591V399.363V366.197V332.969V299.803V266.575V233.409V200.182V167.015V133.788V100.621V67.3939V34.2276V1" stroke="#FF8EEB" stroke-width="2" stroke-miterlimit="10"/>
<path opacity="0.5" d="M231.195 665V631.772V598.606V565.379V532.212V498.985V465.818V432.591V399.363V366.197V332.969V299.803V266.575V233.409V200.182V167.015V133.788V100.621V67.3939V34.2276V1" stroke="#FF8EEB" stroke-width="2" stroke-miterlimit="10"/>
<path opacity="0.5" d="M192.938 665V631.772V598.606V565.379V532.212V498.985V465.818V432.591V399.363V366.197V332.969V299.803V266.575V233.409V200.182V167.015V133.788V100.621V67.3939V34.2276V1" stroke="#FF8EEB" stroke-width="2" stroke-miterlimit="10"/>
<path opacity="0.5" d="M154.68 665V631.772V598.606V565.379V532.212V498.985V465.818V432.591V399.363V366.197V332.969V299.803V266.575V233.409V200.182V167.015V133.788V100.621V67.3939V34.2276V1" stroke="#FF8EEB" stroke-width="2" stroke-miterlimit="10"/>
<path opacity="0.5" d="M116.422 665V631.772V598.606V565.379V532.212V498.985V465.818V432.591V399.363V366.197V332.969V299.803V266.575V233.409V200.182V167.015V133.788V100.621V67.3939V34.2276V1" stroke="#FF8EEB" stroke-width="2" stroke-miterlimit="10"/>
<path opacity="0.5" d="M78 665L78 631.822L78 598.706L78 565.529L78 532.412L78 499.235L78 466.118L78 432.941L78 399.763L78 366.647L78 333.469L78 300.353L78 267.175L78 234.059L78 200.882L78 167.765L78 134.588L78 101.471L78 68.2939L78 35.1776L78 2" stroke="#FF8EEB" stroke-width="2" stroke-miterlimit="10"/>
<path opacity="0.5" d="M40 665L40 631.822L40 598.706L40 565.529L40 532.412L40 499.235L40 466.118L40 432.941L40 399.763L40 366.647L40 333.469L40 300.353L40 267.175L40 234.059L40 200.882L40 167.765L40 134.588L40 101.471L40 68.2939L40 35.1776L40 2" stroke="#FF8EEB" stroke-width="2" stroke-miterlimit="10"/>
<path opacity="0.5" d="M1 665V631.822V598.706V565.529V532.412V499.235V466.118V432.941V399.763V366.647V333.469V300.353V267.175V234.059V200.882V167.765V134.588V101.471V68.2939V35.1776V2" stroke="#FF8EEB" stroke-width="2" stroke-miterlimit="10"/>
</g>
</svg>
