<svg width="842" height="169" viewBox="0 0 842 169" fill="none" xmlns="http://www.w3.org/2000/svg">
<path d="M0 142.442H838.456" stroke="#494949" stroke-miterlimit="10"/>
<path d="M2.04456 58.4766H840.501" stroke="#494949" stroke-miterlimit="10"/>
<path d="M3.54382 30.1924H842" stroke="#494949" stroke-miterlimit="10"/>
<path d="M357.927 1.77197V156.618" stroke="#494949" stroke-miterlimit="10"/>
<path d="M380.28 0V154.846" stroke="#494949" stroke-miterlimit="10"/>
<path d="M104.475 8.38281V163.229" stroke="#494949" stroke-miterlimit="10"/>
<path d="M126.828 6.61084V161.525" stroke="#494949" stroke-miterlimit="10"/>
<path d="M543.024 9.40527V164.32" stroke="#494949" stroke-miterlimit="10"/>
<path d="M546.908 16.2891L492.388 165.342" stroke="#494949" stroke-miterlimit="10"/>
<path d="M520.875 11.9951L470.443 164.115" stroke="#494949" stroke-miterlimit="10"/>
<path d="M430.643 19.4238L486.868 167.864" stroke="#494949" stroke-miterlimit="10"/>
<path d="M453.814 19.4238L510.039 167.864" stroke="#494949" stroke-miterlimit="10"/>
<path d="M565.377 7.70166V162.548" stroke="#494949" stroke-miterlimit="10"/>
<path d="M779.506 3.68018V158.526" stroke="#494949" stroke-miterlimit="10"/>
<path d="M801.859 1.9082V156.754" stroke="#494949" stroke-miterlimit="10"/>
<path d="M71.8988 106.116H95.956L95.6834 107.411C91.3899 138.694 71.7625 142.851 53.2256 142.851C26.0335 142.851 11.0404 127.312 11.0404 99.0282C11.0404 84.2388 15.1976 72.9933 23.2394 65.4964C30.8041 58.5446 41.3674 55.2051 54.9975 55.2051C84.5749 55.2051 93.4344 73.1978 95.6834 88.3962L95.956 89.6911H72.0351L71.8988 88.9414C69.6499 79.945 64.3341 75.8558 54.9975 75.8558C42.0489 75.8558 34.9612 84.1024 34.9612 99.0964C34.9612 114.09 42.1171 122.337 54.9975 122.337C64.1978 122.337 70.8766 116.339 71.8988 107.139V106.116Z" fill="#32298D"/>
<path d="M160.972 57.045V83.8296L159.949 83.4206C156.542 82.3302 152.521 80.9671 148.364 80.9671C134.87 80.9671 127.714 89.2137 127.714 104.412L127.782 142.715H104.611L104.543 58.1354H126.965V71.9707C134.12 61.3387 140.322 56.0908 152.385 56.0908C155.656 56.0908 158.314 56.2953 160.426 56.8405L160.972 57.045Z" fill="#32298D"/>
<path d="M249.635 103.458C249.635 71.7663 234.779 55.1367 206.905 55.1367C193.275 55.1367 182.712 58.4763 175.147 65.428C167.105 72.925 162.948 84.1704 162.948 98.9598C162.948 113.749 167.105 124.995 175.147 132.492C182.712 139.239 193.275 142.783 206.905 142.783C228.441 142.783 242.412 133.582 248.341 115.453L248.818 113.954H224.147L223.875 114.499C221.08 120.837 215.288 124.245 206.973 124.245C193.752 124.245 187.346 114.295 186.937 107.002H249.772V103.458H249.635ZM186.937 89.4183C187.687 86.0787 191.367 73.6746 206.36 73.6746C221.08 73.6746 225.101 85.4653 225.51 89.4183H186.937Z" fill="#32298D"/>
<path d="M301.157 55.1367C283.165 55.1367 264.356 58.4763 261.834 83.4207L261.698 84.5112H283.983L284.256 83.7615C286.914 73.6747 291.071 72.7205 300.271 72.7205C311.584 72.7205 316.15 75.174 316.15 81.1716C316.15 86.4195 314.787 87.7144 308.313 88.2596L285.414 90.3043C273.488 91.3266 257.609 94.8706 257.609 115.862C257.609 133.446 267.832 142.851 287.459 142.851C292.229 142.851 307.972 142.101 317.173 132.764V142.783H339.322V83.2844C339.322 63.7923 327.6 55.1367 301.157 55.1367ZM294.887 125.199C287.05 125.199 282.28 121.246 282.28 115.112C282.28 109.115 285.074 106.661 292.843 105.912L305.178 104.617C309.199 104.071 313.22 103.526 316.9 101.618V106.457C316.9 118.861 305.723 125.199 294.887 125.199Z" fill="#32298D"/>
<path d="M398.544 121.246V141.079L397.795 141.284C393.501 141.829 385.459 142.783 380.893 142.783C359.358 142.783 357.722 131.947 357.722 117.839V78.1047H344.228V58.34H357.722V29.8516H380.893V58.34H398.135V78.1729H380.893V114.703C380.893 120.156 381.779 121.996 387.163 121.996C390.843 121.996 393.978 121.655 397.25 121.451L398.544 121.246Z" fill="#32298D"/>
<path d="M434.664 29.8516H411.493V50.4341H434.664V29.8516Z" fill="#32298D"/>
<path d="M434.664 58.1357H411.493V142.579H434.664V58.1357Z" fill="#32298D"/>
<path d="M532.051 58.1357L500.975 142.715L477.122 142.851L475.623 139.239L445.023 58.1357H468.808L488.162 109.456L504.996 58.2039L532.051 58.1357Z" fill="#32298D"/>
<path d="M565.718 29.8516H542.546V50.4341H565.718V29.8516Z" fill="#32298D"/>
<path d="M565.718 58.1357H542.546V142.579H565.718V58.1357Z" fill="#32298D"/>
<path d="M627.53 121.246V141.079L626.781 141.284C622.487 141.829 614.445 142.783 609.879 142.783C588.344 142.783 586.708 131.947 586.708 117.839V78.1047H573.146V58.34H586.64V29.8516H609.811V58.34H627.053V78.1729H609.811V114.703C609.811 120.156 610.697 121.996 616.081 121.996C619.761 121.996 622.896 121.655 626.167 121.451L627.53 121.246Z" fill="#32298D"/>
<path d="M723.282 103.458C723.282 71.7663 708.425 55.1367 680.551 55.1367C666.921 55.1367 656.358 58.4763 648.793 65.428C640.751 72.925 636.594 84.1704 636.594 98.9598C636.594 113.749 640.751 124.995 648.793 132.492C656.358 139.239 666.921 142.783 680.551 142.783C702.087 142.783 716.058 133.582 721.987 115.453L722.464 113.954H697.793L697.521 114.499C694.727 120.837 688.934 124.245 680.62 124.245C667.398 124.245 660.992 114.295 660.583 107.002H723.418V103.458H723.282ZM660.583 89.4183C661.333 86.0787 665.013 73.6746 680.006 73.6746C694.727 73.6746 698.748 85.4653 699.157 89.4183H660.583Z" fill="#32298D"/>
<path d="M758.311 29.8516H735.14V50.4341H758.311V29.8516Z" fill="#32298D"/>
<path d="M758.311 58.1357H735.14V142.647H758.311V58.1357Z" fill="#32298D"/>
<path d="M820.056 121.246V141.079L819.306 141.284C815.012 141.829 806.971 142.783 802.405 142.783C780.869 142.783 779.233 131.947 779.233 117.839V78.1047H765.74V58.34H779.233V29.8516H802.405V58.34H819.647V78.1729H802.405V114.703C802.405 120.156 803.291 121.996 808.674 121.996C812.355 121.996 815.49 121.655 818.761 121.451L820.056 121.246Z" fill="#32298D"/>
</svg>
