<svg width="602" height="188" viewBox="0 0 602 188" fill="none" xmlns="http://www.w3.org/2000/svg">
<path d="M1.68335 147.242H602" stroke="#494949" stroke-miterlimit="10"/>
<path d="M0.439209 57.916H600.756" stroke="#494949" stroke-miterlimit="10"/>
<path d="M0 26.7246H600.39" stroke="#494949" stroke-miterlimit="10"/>
<path d="M330.24 1.90381V168.256" stroke="#494949" stroke-miterlimit="10"/>
<path d="M354.174 0V166.352" stroke="#494949" stroke-miterlimit="10"/>
<path d="M470.768 3.51465V169.867" stroke="#494949" stroke-miterlimit="10"/>
<path d="M494.701 1.68408V168.036" stroke="#494949" stroke-miterlimit="10"/>
<path d="M27.4468 30.3857L73.2646 183.12" stroke="#494949" stroke-miterlimit="10"/>
<path d="M101.443 1.24463L151.58 182.607" stroke="#494949" stroke-miterlimit="10"/>
<path d="M83.1455 4.83252L133.282 186.195" stroke="#494949" stroke-miterlimit="10"/>
<path d="M52.7711 29.873L98.223 182.68" stroke="#494949" stroke-miterlimit="10"/>
<path d="M183.271 31.7769L137.454 184.511" stroke="#494949" stroke-miterlimit="10"/>
<path d="M158.313 31.4106L112.495 184.071" stroke="#494949" stroke-miterlimit="10"/>
<path d="M107.518 8.49316L60.8953 180.996" stroke="#494949" stroke-miterlimit="10"/>
<path d="M123.474 14.3506L76.8511 186.927" stroke="#494949" stroke-miterlimit="10"/>
<path d="M175.806 57.4761L148.871 147.608H122.888L105.688 92.9138L88.3421 147.608H62.4323L62.0664 146.437L35.571 57.4761H61.4076L78.3149 115.172L93.9047 57.4761H117.472L132.916 114.879L150.043 57.4761H175.806Z" fill="#32298D"/>
<path d="M211.743 26.4316H186.931V49.0562H211.743V26.4316Z" fill="#32298D"/>
<path d="M211.743 57.4761V147.535L187.004 147.608L186.931 57.4761H211.743Z" fill="#32298D"/>
<path d="M317.212 107.338C317.212 72.5595 301.329 54.2549 271.394 54.2549C256.756 54.2549 245.484 57.989 237.36 65.6037C228.797 73.8042 224.332 86.1781 224.332 102.433C224.332 118.687 228.797 131.061 237.36 139.262C245.484 146.657 256.756 150.61 271.394 150.61C294.449 150.61 309.38 140.506 315.748 120.591L316.26 118.98H289.838L289.546 119.566C286.545 126.595 280.323 130.256 271.394 130.256C257.268 130.256 250.388 119.346 249.949 111.292H317.212V107.338ZM250.095 91.8892C250.9 88.155 254.853 74.6096 270.955 74.6096C286.691 74.6096 291.009 87.5693 291.449 91.8892H250.095Z" fill="#32298D"/>
<path d="M354.613 26.4316H329.801V147.608H354.613V26.4316Z" fill="#32298D"/>
<path d="M459.935 107.338C459.935 72.5595 444.053 54.2549 414.117 54.2549C399.479 54.2549 388.208 57.989 380.083 65.6037C371.52 73.8042 367.055 86.1781 367.055 102.433C367.055 118.687 371.52 131.061 380.083 139.262C388.208 146.657 399.479 150.61 414.117 150.61C437.173 150.61 452.104 140.506 458.472 120.591L458.984 118.98H432.562L432.269 119.566C429.268 126.595 423.047 130.256 414.117 130.256C399.991 130.256 393.111 119.346 392.672 111.292H459.935V107.338ZM434.099 91.8892H392.745C393.551 88.155 397.503 74.6096 413.605 74.6096C429.341 74.6096 433.66 87.5693 434.099 91.8892Z" fill="#32298D"/>
<path d="M554.06 87.7888V147.242H529.248V96.4285C529.248 85.0797 524.637 79.7347 514.756 79.7347C507.729 79.7347 496.019 82.8099 496.019 103.824V147.242H471.207V57.4763H495.214V68.3859C500.117 61.5766 510.291 55.2065 523.026 55.2065C527.491 55.2065 535.908 56.0119 542.934 61.3569C550.254 66.9947 554.06 76.0006 554.06 87.7888Z" fill="#32298D"/>
</svg>
