<svg xmlns="http://www.w3.org/2000/svg" viewBox="0 0 761.16 211.93"><defs><style>.cls-1{fill:none;stroke:#494949;stroke-miterlimit:10;}.cls-2{fill:#32298d;}</style></defs><g id="Layer_2" data-name="Layer 2"><g id="Testen"><line class="cls-1" y1="190.11" x2="757.94" y2="190.11"/><line class="cls-1" x1="1.85" y1="66.91" x2="759.79" y2="66.91"/><line class="cls-1" x1="3.22" y1="25.4" x2="761.16" y2="25.4"/><line class="cls-1" x1="397.28" y1="4.48" x2="397.28" y2="211.93"/><line class="cls-1" x1="430.06" y1="2.15" x2="430.06" y2="209.6"/><line class="cls-1" x1="49.09" y1="2.29" x2="49.09" y2="206.22"/><line class="cls-1" x1="81.86" x2="81.86" y2="203.93"/><path class="cls-2" d="M107.14,159v29.1l-1,.28c-6,.82-17.31,2.19-23.77,2.19C52.09,190.52,49.8,174.6,49.8,154V95.81h-19V66.71h19V25H82.33V66.71h24.19v29.1H82.33v53.53c0,8,1.25,10.71,8.76,10.71,5.21,0,9.59-.55,14.19-.82Z"/><path class="cls-2" d="M241.64,132.87c0-46.39-20.86-70.82-60.06-70.82-19.18,0-34,4.94-44.62,15.09-11.26,11-17.1,27.46-17.1,49.14s5.84,38.16,17.1,49.14c10.63,9.89,25.44,15.1,44.62,15.1,30.24,0,49.84-13.45,58.18-40.08l.63-2.19H205.77l-.42.82c-4,9.33-12.09,14.27-23.77,14.27-18.55,0-27.52-14.55-28.15-25.25h88.21Zm-88-20.59c1-4.94,6.26-23.06,27.32-23.06,20.64,0,26.27,17.3,26.9,23.06Z"/><path class="cls-2" d="M365.7,149.62c0,36.78-32.94,40.9-57.75,40.9-35.45,0-53.39-13.72-55-42v-1.65h35.44l.21,1.38c1.05,7.13,4.17,15.09,21.27,15.09,7.51,0,20.44-1.37,20.44-11,0-4.94-1.46-7.41-16.06-10.15l-27.32-4.67c-27.31-4.67-31.06-19.49-31.06-34.87,0-26.9,17.09-40.62,51.08-40.62,36.28,0,52.76,12.07,55.47,40.62l.21,1.93H326.92v-1.38c-1.88-12.62-14.18-14-19.18-14-8.55,0-18.56,1.1-18.56,10.71,0,3.84,1.25,7.41,14.18,9.33L324.21,112C353.82,116.13,365.7,126.83,365.7,149.62Z"/><path class="cls-2" d="M455,159v29.1l-1,.28c-6.05.82-17.31,2.19-23.77,2.19-30.24,0-32.53-15.92-32.53-36.51V95.81h-19V66.71h19V25h32.53V66.71h24.19v29.1H430.14v53.53c0,8,1.25,10.71,8.75,10.71,5.22,0,9.6-.55,14.18-.82Z"/><path class="cls-2" d="M589.44,132.87c0-46.39-20.85-70.82-60.05-70.82-19.18,0-34,4.94-44.62,15.09-11.26,11-17.1,27.46-17.1,49.14s5.84,38.16,17.1,49.14c10.63,9.89,25.44,15.1,44.62,15.1,30.24,0,49.84-13.45,58.18-40.08l.62-2.19H553.58l-.42.82c-4,9.33-12.09,14.27-23.77,14.27-18.56,0-27.52-14.55-28.15-25.25h88.2Zm-33.78-20.59H501.45c1-4.94,6.26-23.06,27.32-23.06C549.41,89.22,555,106.52,555.66,112.28Z"/><path class="cls-2" d="M712.89,106.79v79.34H680.36V118.32c0-15.1-6.05-22.23-19-22.23-9.17,0-24.6,4.11-24.6,32.12v57.92H604.25V66.44h31.49V81c6.46-9.06,19.8-17.57,36.49-17.57,5.84,0,16.89,1.1,26.06,8.23C707.88,79.07,712.89,91.14,712.89,106.79Z"/></g></g></svg>