<svg width="552" height="501" viewBox="0 0 552 501" fill="none" xmlns="http://www.w3.org/2000/svg">
<g clip-path="url(#clip0)">
<path d="M109.658 321.223L106.772 321.154L103.955 323.696L102.787 321.017L99.764 320.948L101.688 325.207L96.6721 329.535L99.5579 329.604L102.444 326.993L103.68 329.741L106.703 329.81L104.78 325.413L109.658 321.223ZM116.804 430.793L113.918 430.724L111.101 433.266L109.933 430.587L106.91 430.518L108.833 434.777L103.818 439.174L106.703 439.242L109.589 436.632L110.826 439.38L113.849 439.448L111.925 435.052L116.804 430.793ZM197.879 65.0552L194.993 64.9865L192.176 67.5282L191.008 64.8491L187.985 64.7804L189.909 69.0396L184.893 73.3674L187.779 73.4361L190.665 70.8257L191.901 73.5735L194.925 73.6422L193.001 69.2457L197.879 65.0552ZM268.648 21.9828L265.762 21.9141L262.945 24.4558L261.777 21.7767L258.754 21.708L260.678 25.9672L255.662 30.295L258.548 30.3637L261.434 27.7533L262.671 30.5011L265.694 30.5698L263.77 26.1732L268.648 21.9828ZM297.643 435.67L294.757 435.601L291.94 438.143L290.772 435.464L287.749 435.395L289.673 439.655L284.657 443.982L287.543 444.051L290.429 441.441L291.665 444.188L294.689 444.257L292.765 439.861L297.643 435.67ZM390.811 328.504L387.925 328.436L385.108 330.977L383.94 328.298L380.917 328.23L382.841 332.489L377.825 336.817L380.711 336.885L383.597 334.275L384.833 337.023L387.857 337.091L385.933 332.695L390.811 328.504ZM402.629 92.1214L402.835 91.5032L255.388 87.7936L171.083 314.147H171.976L210.04 315.109L280.878 316.895L318.53 317.857L318.462 317.994L318.599 317.857L319.149 317.444L403.041 92.1214H402.629ZM318.805 317.17L288.78 295.668L288.23 295.255L232.302 255.274L218.904 245.657L201.864 233.498L213.27 202.928L243.707 224.773L274.695 247.031L300.116 265.304L330.073 286.875L318.805 317.17ZM390.88 123.584L345.395 143.643L325.058 152.643L259.785 181.495L222.614 197.913L213.682 201.829L224.125 173.732L270.572 152.574L273.252 151.337L356.663 113.28L372.741 105.929L402.491 92.3962L390.88 123.584ZM447.976 60.1778L414.79 59.3534L377.138 58.3917L306.3 56.6056L267.274 55.6438L235.462 54.8195H235.256L223.301 86.9692L217.667 102.082L200.009 149.483L182.351 196.883L164.693 244.283L147.035 291.683L138.996 313.323L129.377 339.152L129.308 339.29H129.515H130.82L161.326 340.045L161.395 339.908L130.751 339.152L130.476 338.809L139.958 313.323L224.194 86.9692L236.012 55.2317L267.068 55.9873L414.653 59.7656L447.083 60.5899L435.265 92.3275L350.96 318.681L341.616 343.824L340.654 344.442L308.98 343.618L308.911 343.755L340.448 344.579L342.097 344.648H342.372L342.441 344.511L352.06 318.681L360.099 297.11L377.757 249.71L395.414 202.31L413.072 154.91L430.73 107.509L436.364 92.3962L448.32 60.2465H447.976V60.1778ZM449.556 25.4176L446.671 25.3489L443.854 27.8906L442.686 25.2115L439.662 25.1428L441.586 29.402L436.571 33.7298L439.456 33.7985L442.342 31.1881L443.579 33.9359L446.602 34.0046L444.678 29.608L449.556 25.4176ZM486.934 72.5431L484.048 72.4744L481.231 75.0161L480.063 72.337L477.04 72.2683L478.963 76.5274L473.948 80.8553L476.833 80.924L479.719 78.3135L480.956 81.0614L483.979 81.1301L482.055 76.7335L486.934 72.5431Z" fill="#171D4D"/>
<path d="M318.599 317.856L280.947 316.895L210.109 315.109L172.045 314.147L187.916 340.595L161.533 339.908L161.464 340.045L187.916 340.732L200.421 341.076L271.259 342.862L283.489 343.205L308.911 343.823L308.98 343.686L283.695 343.068L318.599 318.062V317.856ZM182.145 5.1521L5.42798 479.842L360.236 488.772L536.953 14.0826L182.145 5.1521ZM413.004 154.841L395.346 202.241L377.688 249.641L360.03 297.041L351.991 318.612L342.372 344.442L342.303 344.579H342.028L340.379 344.51L298.261 372.057L308.842 343.686L308.911 343.549L283.627 342.93L318.53 317.925L318.599 317.788L280.947 316.826L210.109 315.04L172.045 314.078L187.916 340.526L161.533 339.839L161.464 339.976L151.226 367.524L130.957 339.289H129.652H129.446L129.515 339.152L139.134 313.322L147.173 291.683L164.831 244.283L182.488 196.883L200.146 149.482L217.804 102.082L223.438 86.969L235.394 54.8193H235.6L267.412 55.6437L306.438 56.6054L377.138 58.3915L414.79 59.3533L447.976 60.1776H448.251L436.296 92.3273L430.662 107.44L413.004 154.841ZM387.857 337.091L384.833 337.023L383.597 334.275L380.711 336.885L377.825 336.816L382.841 332.489L380.917 328.229L383.94 328.298L385.108 330.977L387.925 328.436L390.811 328.504L385.864 332.763L387.857 337.091ZM99.7641 321.016L102.787 321.085L103.955 323.764L106.772 321.222L109.658 321.291L104.711 325.55L106.635 329.947L103.612 329.878L102.375 327.13L99.4892 329.741L96.6035 329.672L101.619 325.344L99.7641 321.016ZM112.612 434.433L111.925 435.052L113.849 439.448L110.826 439.38L109.589 436.632L106.704 439.242L103.818 439.173L108.834 434.777L108.627 434.296L106.91 430.449L109.933 430.518L111.101 433.197L113.918 430.655L116.804 430.724L112.612 434.433ZM284.657 444.051L289.673 439.723L289.329 438.899L287.818 435.464L290.841 435.533L292.009 438.212L294.826 435.67L297.712 435.739L293.864 439.036L292.765 439.998L294.689 444.394L291.665 444.326L290.429 441.578L287.543 444.188L284.657 444.051ZM444.609 29.6766L446.533 34.0731L443.51 34.0044L442.273 31.2566L439.388 33.867L436.502 33.7983L441.518 29.4705L439.594 25.2113L442.617 25.28L443.785 27.9592L446.602 25.4174L449.488 25.4861L444.609 29.6766ZM258.754 21.7078L261.778 21.7765L262.946 24.4557L265.763 21.9139L268.648 21.9826L263.701 26.2418L265.625 30.6383L262.602 30.5696L261.365 27.8218L258.48 30.4322L255.594 30.3635L260.609 26.0357L258.754 21.7078ZM187.985 64.7802L191.008 64.8489L192.176 67.5281L194.993 64.9863L197.879 65.055L192.932 69.3142L194.856 73.7107L191.833 73.642L190.596 70.8942L187.71 73.5046L184.825 73.4359L189.84 69.1081L187.985 64.7802ZM483.979 81.1986L480.956 81.1299L479.719 78.382L476.834 80.9925L473.948 80.9238L478.963 76.5959L477.04 72.3368L480.063 72.4055L481.231 75.0846L484.048 72.5429L486.934 72.6116L481.987 76.8707L483.979 81.1986Z" fill="#0057FF" stroke="white" stroke-width="4" stroke-miterlimit="10"/>
<path d="M179.809 0L0 483.002L361.06 492.07L540.869 9.13657L179.809 0ZM360.236 488.841L5.42793 479.91L182.145 5.1522L536.953 14.0827L360.236 488.841Z" fill="#171D4D"/>
<path d="M45.4434 458.701L43.8822 462.895L37.5663 462.736L31.0116 480.345L25.3537 480.202L31.9083 462.593L25.6582 462.436L27.2194 458.242L45.4434 458.701ZM57.8178 463.464C59.9231 463.518 61.3449 464.217 62.0832 465.564C62.8434 466.911 62.795 468.736 61.9379 471.039L58.2186 481.031L52.5935 480.889L56.0832 471.514C56.5118 470.363 56.5157 469.46 56.095 468.806C55.704 468.132 54.9711 467.782 53.8965 467.755C52.7562 467.726 51.7198 468.042 50.7874 468.703C49.877 469.365 49.1883 470.323 48.7215 471.577L45.3237 480.706L39.6986 480.564L48.1932 457.743L53.8183 457.885L50.5582 466.643C51.4672 465.629 52.548 464.836 53.8006 464.266C55.0752 463.696 56.4143 463.429 57.8178 463.464ZM82.738 472.497C82.5772 472.929 82.3464 473.401 82.0454 473.912L69.315 473.591C68.8986 474.888 68.9013 475.832 69.323 476.424C69.7523 476.995 70.4605 477.293 71.4473 477.318C72.2807 477.339 73.0442 477.161 73.7378 476.784C74.4315 476.407 74.9808 475.913 75.3858 475.3L81.3399 475.45C80.6471 476.657 79.7152 477.734 78.5441 478.679C77.3807 479.605 76.0706 480.329 74.614 480.853C73.165 481.356 71.6729 481.588 70.1378 481.549C68.3395 481.504 66.8687 481.114 65.7254 480.38C64.6116 479.625 63.9087 478.57 63.6167 477.214C63.3246 475.857 63.5115 474.285 64.1773 472.496C64.8508 470.687 65.8162 469.134 67.0735 467.838C68.3604 466.521 69.8357 465.531 71.4995 464.868C73.1708 464.184 74.9057 463.864 76.7039 463.91C78.5241 463.955 79.995 464.345 81.1164 465.079C82.2378 465.813 82.934 466.827 83.2052 468.12C83.5059 469.394 83.3502 470.853 82.738 472.497ZM77.3455 471.552C77.7884 470.422 77.7732 469.571 77.3 468.998C76.8563 468.406 76.1411 468.098 75.1542 468.073C74.1235 468.047 73.1611 468.313 72.267 468.872C71.3729 469.43 70.6753 470.263 70.1744 471.371L77.3455 471.552ZM21.4563 508.869C22.9695 508.907 24.1843 509.301 25.1006 510.051C26.0466 510.78 26.6108 511.821 26.7932 513.175C27.0052 514.508 26.7744 516.08 26.101 517.889C25.4352 519.677 24.5027 521.231 23.3035 522.55C22.1262 523.869 20.8006 524.873 19.3266 525.562C17.8822 526.231 16.4033 526.547 14.8902 526.509C13.4866 526.473 12.3914 526.145 11.6046 525.523C10.8177 524.902 10.3854 524.071 10.3075 523.031L9.14806 526.146L3.52297 526.004L12.0176 503.184L17.6427 503.326L14.3941 512.053C15.2372 511.037 16.2742 510.243 17.5049 509.672C18.7356 509.101 20.0528 508.834 21.4563 508.869ZM17.9252 513.449C16.7409 513.419 15.6235 513.775 14.5728 514.516C13.5516 515.238 12.8 516.246 12.3179 517.541C11.8434 518.816 11.8374 519.843 12.2999 520.622C12.7843 521.403 13.6186 521.807 14.8028 521.837C16.009 521.868 17.1117 521.522 18.1108 520.8C19.132 520.079 19.8874 519.06 20.3772 517.745C20.867 516.429 20.8768 515.391 20.4067 514.632C19.9585 513.874 19.1313 513.48 17.9252 513.449ZM40.8887 509.359C42.7089 509.405 44.1978 509.806 45.3554 510.561C46.5426 511.297 47.2932 512.343 47.6071 513.7C47.9431 515.057 47.7781 516.63 47.1123 518.419C46.4465 520.207 45.4482 521.759 44.1175 523.075C42.8086 524.391 41.2966 525.39 39.5813 526.073C37.8957 526.736 36.1427 527.045 34.3225 526.999C32.5023 526.953 30.9986 526.562 29.8114 525.827C28.6319 525.071 27.8742 524.014 27.5382 522.657C27.2243 521.3 27.4002 519.727 28.066 517.938C28.7318 516.15 29.7191 514.598 31.0279 513.282C32.3587 511.966 33.8779 510.977 35.5855 510.315C37.3007 509.632 39.0684 509.313 40.8887 509.359ZM39.1897 513.923C38.1151 513.896 37.0673 514.243 36.0462 514.965C35.0546 515.666 34.3025 516.705 33.7897 518.083C33.277 519.46 33.2486 520.518 33.7044 521.256C34.1822 521.994 34.9584 522.377 36.0329 522.404C37.1075 522.431 38.1406 522.094 39.1321 521.393C40.1237 520.691 40.8758 519.652 41.3885 518.274C41.9013 516.897 41.9297 515.839 41.4739 515.101C41.0257 514.343 40.2643 513.95 39.1897 513.923ZM60.2861 509.848C61.6896 509.884 62.7848 510.212 63.5716 510.834C64.3585 511.456 64.7909 512.286 64.8688 513.326L68.1174 504.598L73.7425 504.74L65.2478 527.561L59.6228 527.419L60.7822 524.304C59.939 525.321 58.902 526.114 57.6713 526.685C56.4406 527.256 55.1235 527.523 53.7199 527.488C52.2068 527.45 50.9772 527.066 50.0312 526.337C49.1148 525.587 48.5545 524.535 48.3501 523.181C48.1677 521.828 48.4094 520.257 49.0752 518.468C49.7487 516.659 50.6702 515.105 51.8398 513.806C53.039 512.488 54.3609 511.494 55.8053 510.825C57.2793 510.136 58.7729 509.81 60.2861 509.848ZM60.3734 514.52C59.1673 514.489 58.0536 514.835 57.0325 515.556C56.0333 516.278 55.2888 517.297 54.799 518.613C54.3092 519.928 54.2884 520.965 54.7366 521.724C55.2068 522.483 56.0449 522.877 57.2511 522.908C58.4353 522.938 59.5418 522.582 60.5706 521.84C61.6213 521.098 62.3839 520.09 62.8584 518.816C63.3405 517.521 63.3355 516.493 62.8435 515.734C62.381 514.954 61.5576 514.55 60.3734 514.52ZM79.7696 510.558L80.2517 521.215L88.2895 510.772L94.5067 510.929L73.6003 536.051L67.416 535.895L75.0198 527.153L73.4867 510.399L79.7696 510.558Z" fill="white"/>
<path d="M552 11.4724L368.069 501L361.061 492.138L540.869 9.13672L552 11.4724Z" fill="#4E668D"/>
<path d="M368.069 501L4.74085 491.657L0 483.001L361.06 492.138L368.069 501Z" fill="#4E668D"/>
<path d="M402.629 92.1213L364.977 91.1595L359.618 105.654L372.81 105.998L402.56 92.4647L397.27 106.616L390.949 123.584L345.464 143.643L341.96 153.055L379.612 154.016L361.954 201.417H362.503L380.161 154.016L391.567 123.241L397.751 106.547L403.179 92.0526L402.629 92.1213ZM402.629 92.1213L402.835 91.503L365.183 90.5412L294.345 88.7551L255.319 87.7934L249.685 102.907L232.027 150.307L214.369 197.707H215.194L224.126 173.732L270.572 152.574L273.252 151.337L356.663 113.28L372.741 105.929L402.491 92.396L397.201 106.547L390.88 123.515L345.395 143.575L341.891 152.986L379.543 153.948L361.885 201.348H362.435L380.093 153.948L391.498 123.172L397.682 106.479L403.11 91.9838L402.629 92.1213ZM402.629 92.1213L402.835 91.503L365.183 90.5412L294.345 88.7551L255.319 87.7934L249.685 102.907L232.027 150.307L214.369 197.707L196.711 245.107L179.053 292.508H179.878L197.536 245.107L201.864 233.429L213.27 202.859L243.707 224.705L253.395 198.6L259.785 181.357L222.614 197.913L213.682 201.829L215.194 197.707L224.126 173.732L270.572 152.574L273.252 151.337L356.663 113.28L372.741 105.929L402.491 92.396L397.201 106.547L390.88 123.515L345.395 143.575L341.891 152.986L379.543 153.948L361.885 201.348H362.435L380.093 153.948L391.498 123.172L397.682 106.479L403.11 91.9838L402.629 92.1213ZM402.629 92.1213L402.835 91.503L365.183 90.5412L294.345 88.7551L255.319 87.7934L249.685 102.907L232.027 150.307L214.369 197.707L196.711 245.107L179.053 292.508H179.878L197.536 245.107L201.864 233.429L213.27 202.859L243.707 224.705L253.395 198.6L259.785 181.357L222.614 197.913L213.682 201.829L215.194 197.707L224.126 173.732L270.572 152.574L273.252 151.337L356.663 113.28L372.741 105.929L402.491 92.396L397.201 106.547L390.88 123.515L345.395 143.575L341.891 152.986L379.543 153.948L361.885 201.348H362.435L380.093 153.948L391.498 123.172L397.682 106.479L403.11 91.9838L402.629 92.1213ZM216.911 389.163L217.667 390.399L219.316 389.231L216.911 389.163ZM402.629 92.1213L402.835 91.503L365.183 90.5412L294.345 88.7551L255.319 87.7934L249.685 102.907L232.027 150.307L214.369 197.707L196.711 245.107L179.053 292.508H179.878L197.536 245.107L201.864 233.429L213.27 202.859L243.707 224.705L253.395 198.6L259.785 181.357L222.614 197.913L213.682 201.829L215.194 197.707L224.126 173.732L270.572 152.574L273.252 151.337L356.663 113.28L372.741 105.929L402.491 92.396L397.201 106.547L390.88 123.515L345.395 143.575L341.891 152.986L379.543 153.948L361.885 201.348H362.435L380.093 153.948L391.498 123.172L397.682 106.479L403.11 91.9838L402.629 92.1213ZM216.911 389.163L217.667 390.399L219.316 389.231L216.911 389.163ZM402.629 92.1213L402.835 91.503L365.183 90.5412L294.345 88.7551L255.319 87.7934L249.685 102.907L232.027 150.307L214.369 197.707L196.711 245.107L179.053 292.508H179.878L197.536 245.107L201.864 233.429L213.27 202.859L243.707 224.705L274.695 246.962L300.117 265.235L330.073 286.806L326.569 296.148L318.805 317.169L319.217 317.444L327.119 296.286L344.777 248.886L362.435 201.485L380.093 154.085L391.498 123.309L397.682 106.616L403.11 92.1213H402.629ZM397.201 106.616L390.88 123.584L345.395 143.643L325.058 152.642L259.785 181.495L222.614 197.913L213.682 201.829L215.194 197.707L224.126 173.732L270.572 152.574L273.252 151.337L356.663 113.28L372.741 105.929L402.491 92.396L397.201 106.616ZM216.911 389.163L217.667 390.399L219.316 389.231L216.911 389.163ZM402.629 92.1213L402.835 91.503L365.183 90.5412L294.345 88.7551L255.319 87.7934L249.685 102.907L232.027 150.307L214.369 197.707L196.711 245.107L179.053 292.508H179.878L197.536 245.107L201.864 233.429L213.27 202.859L243.707 224.705L274.695 246.962L300.117 265.235L330.073 286.806L326.569 296.148L318.805 317.169L319.217 317.444L327.119 296.286L344.777 248.886L362.435 201.485L380.093 154.085L391.498 123.309L397.682 106.616L403.11 92.1213H402.629ZM397.201 106.616L390.88 123.584L345.395 143.643L325.058 152.642L259.785 181.495L222.614 197.913L213.682 201.829L215.194 197.707L224.126 173.732L270.572 152.574L273.252 151.337L356.663 113.28L372.741 105.929L402.491 92.396L397.201 106.616ZM216.911 389.163L217.667 390.399L219.316 389.231L216.911 389.163ZM402.629 92.1213L402.835 91.503L365.183 90.5412L294.345 88.7551L255.319 87.7934L249.685 102.907L232.027 150.307L214.369 197.707L196.711 245.107L179.053 292.508H179.878L197.536 245.107L201.864 233.429L213.27 202.859L243.707 224.705L274.695 246.962L300.117 265.235L330.073 286.806L326.569 296.148L318.805 317.169L319.217 317.444L327.119 296.286L344.777 248.886L362.435 201.485L380.093 154.085L391.498 123.309L397.682 106.616L403.11 92.1213H402.629ZM397.201 106.616L390.88 123.584L345.395 143.643L325.058 152.642L259.785 181.495L222.614 197.913L213.682 201.829L215.194 197.707L224.126 173.732L270.572 152.574L273.252 151.337L356.663 113.28L372.741 105.929L402.491 92.396L397.201 106.616ZM402.629 92.1213L402.835 91.503L365.183 90.5412L294.345 88.7551L255.319 87.7934L249.685 102.907L232.027 150.307L214.369 197.707H215.194L224.126 173.732L270.572 152.574L273.252 151.337L356.663 113.28L372.741 105.929L402.491 92.396L397.201 106.547L390.88 123.515L345.395 143.575L325.058 152.574L259.785 181.426L253.395 198.669L243.707 224.773L274.695 247.031L306.644 247.855L344.296 248.817H344.845L362.503 201.417L380.161 154.016L391.567 123.241L397.751 106.547L403.179 92.0526L402.629 92.1213ZM402.629 92.1213L402.835 91.503L365.183 90.5412L294.345 88.7551L255.319 87.7934L249.685 102.907L232.027 150.307L214.369 197.707L196.711 245.107L179.053 292.508H179.878L197.536 245.107L201.864 233.429L213.27 202.859L243.707 224.705L274.695 246.962L300.117 265.235L330.073 286.806L326.569 296.148L318.805 317.169L319.217 317.444L327.119 296.286L344.777 248.886L362.435 201.485L380.093 154.085L391.498 123.309L397.682 106.616L403.11 92.1213H402.629ZM397.201 106.616L390.88 123.584L345.395 143.643L325.058 152.642L259.785 181.495L222.614 197.913L213.682 201.829L215.194 197.707L224.126 173.732L270.572 152.574L273.252 151.337L356.663 113.28L372.741 105.929L402.491 92.396L397.201 106.616ZM271.259 342.862L200.421 341.076L187.916 340.732L195.68 353.716L216.911 389.163L217.667 390.399L219.316 389.231L266.656 355.227L283.489 343.136L271.259 342.862ZM182.145 5.1521L5.42798 479.842L360.236 488.772L536.953 14.0826L182.145 5.1521ZM165.93 387.926L151.226 367.524L130.957 339.289L161.464 340.045L187.916 340.732L195.68 353.716L216.911 389.163L217.667 390.399L219.316 389.231L266.656 355.227L283.489 343.136L308.911 343.755L340.448 344.579L298.33 372.126L270.229 390.537L248.036 405.032L200.765 436.013H200.49L177.129 403.589L165.93 387.926ZM340.654 344.442L308.98 343.617L283.695 342.999L318.599 317.994L318.736 317.856L319.286 317.444L327.188 296.286L344.845 248.886L362.503 201.485L380.161 154.085L391.567 123.309L397.751 106.616L403.179 92.1213H402.629L402.835 91.503L365.183 90.5412L294.345 88.7551L255.319 87.7934L249.685 102.907L232.027 150.307L214.369 197.707L196.711 245.107L179.053 292.508L171.083 314.147H171.976L187.848 340.595L161.464 339.908L130.82 339.152L130.545 338.809L140.027 313.322L148.066 291.752L165.724 244.352L183.382 196.951L198.772 155.596L201.04 149.551L218.698 102.151L224.332 87.0377L236.149 55.3002L267.205 56.0558L306.232 57.0176L377.07 58.8037L414.721 59.7654L447.152 60.5898L435.334 92.3273L429.7 107.44L412.042 154.841L394.384 202.241L376.726 249.641L359.068 297.041L351.029 318.681L341.685 343.823L340.654 344.442ZM270.641 152.574L273.32 151.337L356.732 113.28L372.81 105.929L402.56 92.396L397.27 106.547L390.949 123.515L345.464 143.575L325.126 152.574L259.854 181.426L222.614 197.913L213.682 201.829L215.194 197.707L224.126 173.732L270.641 152.574ZM243.707 224.773L274.695 247.031L300.117 265.304L330.073 286.874L326.569 296.217L318.805 317.169L288.78 295.668L288.917 295.324H288.23L232.302 255.343L218.904 245.726L201.864 233.566L213.27 202.997L243.707 224.773ZM402.629 92.1213L402.835 91.503L365.183 90.5412L294.345 88.7551L255.319 87.7934L249.685 102.907L232.027 150.307L214.369 197.707H215.194L224.126 173.732L270.572 152.574L273.252 151.337L356.663 113.28L372.741 105.929L402.491 92.396L397.201 106.547L390.88 123.515L345.395 143.575L325.058 152.574L259.785 181.426L253.395 198.669L243.707 224.773L274.695 247.031L306.644 247.855L344.296 248.817H344.845L362.503 201.417L380.161 154.016L391.567 123.241L397.751 106.547L403.179 92.0526L402.629 92.1213ZM402.629 92.1213L402.835 91.503L365.183 90.5412L294.345 88.7551L255.319 87.7934L249.685 102.907L232.027 150.307L214.369 197.707L196.711 245.107L179.053 292.508H179.878L197.536 245.107L201.864 233.429L213.27 202.859L243.707 224.705L274.695 246.962L300.117 265.235L330.073 286.806L326.569 296.148L318.805 317.169L319.217 317.444L327.119 296.286L344.777 248.886L362.435 201.485L380.093 154.085L391.498 123.309L397.682 106.616L403.11 92.1213H402.629ZM397.201 106.616L390.88 123.584L345.395 143.643L325.058 152.642L259.785 181.495L222.614 197.913L213.682 201.829L215.194 197.707L224.126 173.732L270.572 152.574L273.252 151.337L356.663 113.28L372.741 105.929L402.491 92.396L397.201 106.616ZM216.911 389.163L217.667 390.399L219.316 389.231L216.911 389.163ZM402.629 92.1213L402.835 91.503L365.183 90.5412L294.345 88.7551L255.319 87.7934L249.685 102.907L232.027 150.307L214.369 197.707L196.711 245.107L179.053 292.508H179.878L197.536 245.107L201.864 233.429L213.27 202.859L243.707 224.705L274.695 246.962L300.117 265.235L330.073 286.806L326.569 296.148L318.805 317.169L319.217 317.444L327.119 296.286L344.777 248.886L362.435 201.485L380.093 154.085L391.498 123.309L397.682 106.616L403.11 92.1213H402.629ZM397.201 106.616L390.88 123.584L345.395 143.643L325.058 152.642L259.785 181.495L222.614 197.913L213.682 201.829L215.194 197.707L224.126 173.732L270.572 152.574L273.252 151.337L356.663 113.28L372.741 105.929L402.491 92.396L397.201 106.616ZM216.911 389.163L217.667 390.399L219.316 389.231L216.911 389.163ZM402.629 92.1213L402.835 91.503L365.183 90.5412L294.345 88.7551L255.319 87.7934L249.685 102.907L232.027 150.307L214.369 197.707L196.711 245.107L179.053 292.508H179.878L197.536 245.107L201.864 233.429L213.27 202.859L243.707 224.705L274.695 246.962L300.117 265.235L330.073 286.806L326.569 296.148L318.805 317.169L319.217 317.444L327.119 296.286L344.777 248.886L362.435 201.485L380.093 154.085L391.498 123.309L397.682 106.616L403.11 92.1213H402.629ZM397.201 106.616L390.88 123.584L345.395 143.643L325.058 152.642L259.785 181.495L222.614 197.913L213.682 201.829L215.194 197.707L224.126 173.732L270.572 152.574L273.252 151.337L356.663 113.28L372.741 105.929L402.491 92.396L397.201 106.616ZM216.911 389.163L217.667 390.399L219.316 389.231L216.911 389.163ZM402.629 92.1213L402.835 91.503L365.183 90.5412L294.345 88.7551L255.319 87.7934L249.685 102.907L232.027 150.307L214.369 197.707L196.711 245.107L179.053 292.508H179.878L197.536 245.107L201.864 233.429L213.27 202.859L243.707 224.705L253.395 198.6L259.785 181.357L222.614 197.913L213.682 201.829L215.194 197.707L224.126 173.732L270.572 152.574L273.252 151.337L356.663 113.28L372.741 105.929L402.491 92.396L397.201 106.547L390.88 123.515L345.395 143.575L341.891 152.986L379.543 153.948L361.885 201.348H362.435L380.093 153.948L391.498 123.172L397.682 106.479L403.11 91.9838L402.629 92.1213ZM216.911 389.163L217.667 390.399L219.316 389.231L216.911 389.163ZM402.629 92.1213L402.835 91.503L365.183 90.5412L294.345 88.7551L255.319 87.7934L249.685 102.907L232.027 150.307L214.369 197.707L196.711 245.107L179.053 292.508H179.878L197.536 245.107L201.864 233.429L213.27 202.859L243.707 224.705L253.395 198.6L259.785 181.357L222.614 197.913L213.682 201.829L215.194 197.707L224.126 173.732L270.572 152.574L273.252 151.337L356.663 113.28L372.741 105.929L402.491 92.396L397.201 106.547L390.88 123.515L345.395 143.575L341.891 152.986L379.543 153.948L361.885 201.348H362.435L380.093 153.948L391.498 123.172L397.682 106.479L403.11 91.9838L402.629 92.1213ZM216.911 389.163L217.667 390.399L219.316 389.231L216.911 389.163ZM402.629 92.1213L402.835 91.503L365.183 90.5412L294.345 88.7551L255.319 87.7934L249.685 102.907L232.027 150.307L214.369 197.707L196.711 245.107L179.053 292.508H179.878L197.536 245.107L201.864 233.429L213.27 202.859L243.707 224.705L253.395 198.6L259.785 181.357L222.614 197.913L213.682 201.829L215.194 197.707L224.126 173.732L270.572 152.574L273.252 151.337L356.663 113.28L372.741 105.929L402.491 92.396L397.201 106.547L390.88 123.515L345.395 143.575L341.891 152.986L379.543 153.948L361.885 201.348H362.435L380.093 153.948L391.498 123.172L397.682 106.479L403.11 91.9838L402.629 92.1213ZM402.629 92.1213L402.835 91.503L365.183 90.5412L294.345 88.7551L255.319 87.7934L249.685 102.907L232.027 150.307L214.369 197.707L196.711 245.107L179.053 292.508H179.878L197.536 245.107L201.864 233.429L213.27 202.859L243.707 224.705L253.395 198.6L259.785 181.357L222.614 197.913L213.682 201.829L215.194 197.707L224.126 173.732L270.572 152.574L273.252 151.337L356.663 113.28L372.741 105.929L402.491 92.396L397.201 106.547L390.88 123.515L345.395 143.575L341.891 152.986L379.543 153.948L361.885 201.348H362.435L380.093 153.948L391.498 123.172L397.682 106.479L403.11 91.9838L402.629 92.1213ZM402.629 92.1213L402.835 91.503L365.183 90.5412L294.345 88.7551L255.319 87.7934L249.685 102.907L232.027 150.307H232.851L271.053 151.269L273.252 151.337L356.663 113.28L372.741 105.929L402.491 92.396L397.201 106.547L390.88 123.515L345.395 143.575L341.891 152.986L379.543 153.948L361.885 201.348H362.435L380.093 153.948L391.498 123.172L397.682 106.479L403.11 91.9838L402.629 92.1213Z" fill="#171D4D"/>
<path d="M365.183 90.5413L294.345 88.7552L255.319 87.7935L249.685 102.907L232.027 150.307L214.369 197.707L196.711 245.107L179.053 292.508L171.083 314.147H171.976L171.907 314.009L179.878 292.508L197.536 245.107L201.864 233.429L213.27 202.859L213.682 201.76L215.194 197.638L224.126 173.663L232.851 150.238L250.509 102.838L255.869 88.343L294.07 89.3048L364.908 91.0909L402.56 92.0526L402.766 91.4343L365.183 90.5413ZM179.946 292.576H179.122L171.083 314.147H171.976L171.907 314.009L179.946 292.576ZM179.946 292.576H179.122L171.083 314.147H171.976L171.907 314.009L179.946 292.576ZM179.946 292.576H179.122L171.083 314.147H171.976L171.907 314.009L179.946 292.576ZM179.946 292.576H179.122L171.083 314.147H171.976L171.907 314.009L179.946 292.576ZM179.946 292.576H179.122L171.083 314.147H171.976L171.907 314.009L179.946 292.576ZM214.438 197.707L196.78 245.107L179.122 292.508L171.083 314.147H171.976L171.907 314.009L179.878 292.508L197.536 245.107L201.864 233.429L213.27 202.859L213.682 201.76L215.194 197.638L214.438 197.707ZM161.464 339.908L130.82 339.152L130.889 339.29L161.395 340.045L187.848 340.732L187.779 340.595L161.464 339.908ZM214.438 197.707L196.78 245.107L179.122 292.508L171.083 314.147H171.976L171.907 314.009L179.878 292.508L197.536 245.107L201.864 233.429L213.27 202.859L213.682 201.76L215.194 197.638L214.438 197.707ZM179.946 292.576H179.122L171.083 314.147H171.976L171.907 314.009L179.946 292.576ZM179.946 292.576H179.122L171.083 314.147H171.976L171.907 314.009L179.946 292.576ZM179.946 292.576H179.122L171.083 314.147H171.976L171.907 314.009L179.946 292.576ZM179.946 292.576H179.122L171.083 314.147H171.976L171.907 314.009L179.946 292.576ZM179.946 292.576H179.122L171.083 314.147H171.976L171.907 314.009L179.946 292.576ZM308.98 343.686L283.695 343.068L283.489 343.205L308.911 343.824L340.448 344.648L340.654 344.51L308.98 343.686ZM179.946 292.576H179.122L171.083 314.147H171.976L171.907 314.009L179.946 292.576Z" stroke="white" stroke-width="3" stroke-miterlimit="10"/>
<path d="M308.911 343.823L298.33 372.126L270.297 390.537L248.105 405.032L200.833 436.013H200.559L177.129 403.52L165.93 387.926L151.226 367.524L161.395 340.045L187.916 340.732L195.68 353.784L216.911 389.163L217.667 390.399L219.247 389.231L266.656 355.227L283.489 343.136L308.911 343.823Z" fill="#0057FF" stroke="white" stroke-width="3" stroke-miterlimit="10"/>
<path d="M224.194 173.732L223.851 173.87" stroke="white" stroke-width="3" stroke-miterlimit="10"/>
<path d="M403.179 92.1213L402.491 92.3961" stroke="white" stroke-width="3" stroke-miterlimit="10"/>
<path d="M213.682 201.829L213.407 201.966" stroke="white" stroke-width="3" stroke-miterlimit="10"/>
<path d="M390.88 123.584L391.567 123.309L391.773 123.172" stroke="white" stroke-width="3" stroke-miterlimit="10"/>
<path d="M330.486 287.218L330.073 286.943" stroke="white" stroke-width="3" stroke-miterlimit="10"/>
<path d="M213.27 202.928L213.132 202.791" stroke="white" stroke-width="3" stroke-miterlimit="10"/>
<path d="M201.933 233.498L201.864 233.429" stroke="white" stroke-width="3" stroke-miterlimit="10"/>
<path d="M288.848 295.668L288.299 295.255" stroke="white" stroke-width="3" stroke-miterlimit="10"/>
<path d="M319.286 317.444L318.805 317.101" stroke="white" stroke-width="3" stroke-miterlimit="10"/>
<path d="M47.1079 446.512L45.5735 450.634L39.3661 450.478L32.9239 467.784L27.3631 467.644L33.8052 450.337L27.6624 450.182L29.1968 446.06L47.1079 446.512ZM59.2699 451.194C61.3391 451.246 62.7365 451.934 63.4621 453.257C64.2093 454.582 64.1617 456.375 63.3193 458.638L59.6639 468.458L54.1353 468.319L57.5651 459.105C57.9863 457.973 57.9902 457.086 57.5767 456.444C57.1924 455.781 56.4721 455.437 55.416 455.41C54.2952 455.382 53.2766 455.693 52.3602 456.343C51.4654 456.993 50.7886 457.935 50.3298 459.167L46.9903 468.139L41.4617 467.999L49.8105 445.571L55.3391 445.71L52.1349 454.318C53.0283 453.321 54.0906 452.542 55.3217 451.981C56.5744 451.421 57.8905 451.159 59.2699 451.194ZM83.7623 460.072C83.6044 460.496 83.3775 460.959 83.0817 461.462L70.5697 461.146C70.1605 462.421 70.1632 463.349 70.5776 463.93C70.9996 464.492 71.6956 464.785 72.6655 464.809C73.4845 464.83 74.2349 464.655 74.9167 464.285C75.5984 463.914 76.1383 463.428 76.5364 462.826L82.3882 462.974C81.7074 464.16 80.7915 465.218 79.6405 466.148C78.497 467.057 77.2094 467.769 75.7778 468.283C74.3537 468.778 72.8872 469.006 71.3785 468.968C69.6111 468.923 68.1655 468.54 67.0418 467.818C65.9472 467.077 65.2563 466.04 64.9693 464.707C64.6823 463.374 64.8659 461.828 65.5203 460.07C66.1822 458.292 67.131 456.766 68.3667 455.492C69.6316 454.198 71.0816 453.225 72.7167 452.573C74.3594 451.901 76.0645 451.587 77.8319 451.631C79.6208 451.676 81.0664 452.059 82.1685 452.781C83.2707 453.502 83.955 454.498 84.2215 455.769C84.5171 457.021 84.364 458.455 83.7623 460.072ZM78.4625 459.143C78.8977 458.032 78.8828 457.195 78.4177 456.633C77.9817 456.051 77.2787 455.747 76.3088 455.723C75.2958 455.697 74.3499 455.959 73.4711 456.508C72.5923 457.057 71.9068 457.876 71.4144 458.965L78.4625 459.143ZM107.425 452.377C108.912 452.415 110.106 452.802 111.007 453.539C111.937 454.255 112.491 455.279 112.671 456.609C112.879 457.92 112.652 459.464 111.99 461.242C111.336 463 110.419 464.527 109.241 465.823C108.084 467.12 106.781 468.107 105.332 468.784C103.912 469.442 102.459 469.752 100.972 469.714C99.5924 469.679 98.516 469.357 97.7426 468.746C96.9693 468.135 96.5443 467.318 96.4678 466.297L95.3283 469.358L89.7997 469.218L98.1486 446.79L103.677 446.929L100.484 455.507C101.313 454.508 102.332 453.728 103.542 453.167C104.751 452.606 106.046 452.343 107.425 452.377ZM103.955 456.879C102.791 456.85 101.693 457.199 100.66 457.928C99.6563 458.637 98.9175 459.628 98.4437 460.901C97.9773 462.153 97.9714 463.163 98.426 463.929C98.9021 464.696 99.7221 465.094 100.886 465.123C102.071 465.153 103.155 464.813 104.137 464.104C105.141 463.395 105.883 462.394 106.365 461.1C106.846 459.807 106.856 458.788 106.394 458.042C105.953 457.296 105.14 456.909 103.955 456.879ZM126.524 452.859C128.313 452.904 129.776 453.298 130.914 454.041C132.081 454.763 132.819 455.792 133.127 457.125C133.457 458.459 133.295 460.005 132.641 461.763C131.986 463.521 131.005 465.046 129.697 466.339C128.411 467.632 126.925 468.615 125.239 469.286C123.582 469.938 121.86 470.241 120.071 470.196C118.282 470.151 116.804 469.767 115.637 469.044C114.478 468.301 113.733 467.262 113.403 465.928C113.094 464.595 113.267 463.049 113.921 461.291C114.576 459.533 115.546 458.007 116.833 456.714C118.14 455.421 119.634 454.45 121.312 453.798C122.998 453.127 124.735 452.814 126.524 452.859ZM124.854 457.345C123.798 457.318 122.768 457.659 121.765 458.368C120.79 459.058 120.051 460.079 119.547 461.433C119.043 462.787 119.015 463.826 119.463 464.551C119.933 465.277 120.696 465.653 121.752 465.68C122.808 465.706 123.823 465.375 124.798 464.686C125.772 463.997 126.511 462.975 127.015 461.621C127.519 460.267 127.547 459.228 127.099 458.503C126.659 457.757 125.91 457.371 124.854 457.345ZM145.588 453.34C146.968 453.375 148.044 453.697 148.818 454.308C149.591 454.919 150.016 455.736 150.092 456.757L153.285 448.18L158.814 448.319L150.465 470.748L144.937 470.609L146.076 467.548C145.247 468.546 144.228 469.326 143.019 469.887C141.809 470.448 140.514 470.711 139.135 470.677C137.648 470.639 136.439 470.262 135.51 469.545C134.609 468.808 134.058 467.775 133.857 466.444C133.678 465.114 133.916 463.57 134.57 461.812C135.232 460.034 136.138 458.506 137.287 457.23C138.466 455.934 139.765 454.957 141.185 454.3C142.633 453.622 144.101 453.302 145.588 453.34ZM145.674 457.931C144.489 457.901 143.394 458.241 142.391 458.95C141.409 459.659 140.677 460.66 140.196 461.954C139.714 463.247 139.694 464.266 140.134 465.011C140.596 465.757 141.42 466.145 142.606 466.175C143.769 466.204 144.857 465.855 145.868 465.125C146.901 464.397 147.65 463.406 148.117 462.153C148.59 460.88 148.586 459.871 148.102 459.124C147.647 458.358 146.838 457.96 145.674 457.931ZM164.738 454.037L165.211 464.512L173.111 454.248L179.222 454.402L158.674 479.093L152.596 478.94L160.069 470.348L158.562 453.881L164.738 454.037Z" fill="white"/>
<path d="M447.083 60.5897L435.265 92.3273L402.835 91.5029L414.653 59.7654L447.083 60.5897Z" fill="#0057FF" stroke="white" stroke-width="3" stroke-miterlimit="10"/>
<path d="M340.448 344.579L298.33 372.126L308.911 343.823L340.448 344.579Z" fill="#0057FF" stroke="white" stroke-width="3" stroke-miterlimit="10"/>
<path d="M304.789 445.562L307.056 439.311L324.714 391.911L342.303 344.648" stroke="white" stroke-width="3" stroke-miterlimit="10"/>
<path d="M448.251 60.1777V60.0403L457.733 34.6228" stroke="white" stroke-width="3" stroke-miterlimit="10"/>
<path d="M255.319 87.7933L171.083 314.147L140.027 313.322L224.263 86.969L255.319 87.7933Z" fill="#0057FF" stroke="white" stroke-width="3" stroke-miterlimit="10"/>
<path d="M171.083 314.147L161.464 339.908L130.82 339.152L130.545 338.809L140.027 313.322L171.083 314.147Z" fill="#0057FF" stroke="white" stroke-width="3" stroke-miterlimit="10"/>
<path d="M161.395 340.045L151.226 367.524L130.889 339.29L161.395 340.045Z" fill="#0057FF" stroke="white" stroke-width="3" stroke-miterlimit="10"/>
<path d="M92.481 438.418L94.1299 433.953L111.788 386.552L129.377 339.29" stroke="white" stroke-width="3" stroke-miterlimit="10"/>
<path d="M235.325 54.8192V54.6818L244.188 30.9817" stroke="white" stroke-width="3" stroke-miterlimit="10"/>
<path d="M267.137 56.0559L255.319 87.7935L224.263 86.9692L236.081 55.3003L267.137 56.0559Z" fill="#0057FF" stroke="white" stroke-width="3" stroke-miterlimit="10"/>
<path d="M414.653 59.7655L402.835 91.503L255.319 87.7935L267.137 56.0559L414.653 59.7655Z" fill="#0057FF" stroke="white" stroke-width="3" stroke-miterlimit="10"/>
<path d="M235.325 54.8192L205.231 53.9949" stroke="white" stroke-width="3" stroke-miterlimit="10"/>
<path d="M480.612 61.0018L448.251 60.1775" stroke="white" stroke-width="3" stroke-miterlimit="10"/>
<path d="M435.265 92.3274H436.021H436.227L467.901 93.1517" stroke="white" stroke-width="3" stroke-miterlimit="10"/>
<path d="M224.263 86.9691H223.576H223.301L191.283 86.1448" stroke="white" stroke-width="3" stroke-miterlimit="10"/>
<path d="M271.328 444.738L273.664 438.487L291.322 391.086L298.33 372.126" stroke="white" stroke-width="3" stroke-miterlimit="10"/>
<path d="M350.961 318.681L341.616 343.824L340.654 344.442L308.98 343.686L318.53 317.994L318.668 317.856L350.961 318.681Z" fill="#0057FF" stroke="white" stroke-width="3" stroke-miterlimit="10"/>
<path d="M318.805 317.169L318.599 317.856" stroke="white" stroke-width="3" stroke-miterlimit="10"/>
<path d="M402.491 92.3961L402.629 92.1213" stroke="white" stroke-width="3" stroke-miterlimit="10"/>
<path d="M402.491 92.396L390.88 123.584L345.395 143.643L325.126 152.642L259.854 181.426L222.614 197.913L213.682 201.829L224.194 173.732L270.641 152.574L273.252 151.337L356.732 113.28L372.741 105.998L402.491 92.396Z" fill="#0057FF" stroke="white" stroke-width="3" stroke-miterlimit="10"/>
<path d="M330.073 286.943L344.296 248.817L361.885 201.417L379.543 154.016L390.88 123.584" stroke="white" stroke-width="3" stroke-miterlimit="10"/>
<path d="M318.53 317.994L308.98 343.686L283.627 342.999L318.53 317.994Z" fill="#0057FF" stroke="white" stroke-width="3" stroke-miterlimit="10"/>
<path d="M414.653 59.7653L414.79 59.2844L414.859 59.147L424.203 34.073" stroke="white" stroke-width="3" stroke-miterlimit="10"/>
<path d="M187.848 340.595L161.464 339.908L171.083 314.147H171.564H171.976L187.848 340.595Z" fill="#0057FF" stroke="white" stroke-width="3" stroke-miterlimit="10"/>
<path d="M124.43 439.517L126.148 434.777L143.806 387.377L151.226 367.523" stroke="white" stroke-width="3" stroke-miterlimit="10"/>
<path d="M267.137 56.056L267.343 55.5751L267.412 55.4377L276.275 31.5315" stroke="white" stroke-width="3" stroke-miterlimit="10"/>
<path d="M373.565 345.403L342.303 344.648" stroke="white" stroke-width="3" stroke-miterlimit="10"/>
<path d="M283.489 343.137L271.259 342.862L200.421 341.076L187.917 340.732" stroke="white" stroke-width="3" stroke-miterlimit="10"/>
<path d="M129.377 339.289L103.474 338.603" stroke="white" stroke-width="3" stroke-miterlimit="10"/>
<path d="M383.185 319.505L351.991 318.681H351.716H350.96" stroke="white" stroke-width="3" stroke-miterlimit="10"/>
<path d="M112.956 312.635L139.065 313.322H139.271H140.027" stroke="white" stroke-width="3" stroke-miterlimit="10"/>
<path d="M435.265 92.3273L350.96 318.681L318.668 317.856L319.286 317.444L403.179 92.1212H402.629L402.835 91.5029L435.265 92.3273Z" fill="#0057FF" stroke="white" stroke-width="3" stroke-miterlimit="10"/>
<path d="M330.073 286.943L318.805 317.169L288.848 295.668L288.299 295.255L232.371 255.274L218.972 245.657L201.933 233.498L213.27 202.928L243.707 224.773L274.695 247.1L300.117 265.373L330.073 286.943Z" fill="#0057FF" stroke="white" stroke-width="3" stroke-miterlimit="10"/>
<path d="M318.668 317.856H318.599L171.083 314.147" stroke="white" stroke-width="3" stroke-miterlimit="10"/>
<path d="M268.648 21.9825L265.763 21.9139L262.946 24.4556L261.778 21.7765L258.754 21.7078L260.678 25.9669L255.663 30.2948L258.548 30.3635L261.434 27.753L262.671 30.5009L265.694 30.5696L263.77 26.173L268.648 21.9825Z" fill="white"/>
<path d="M197.879 65.0551L194.993 64.9864L192.176 67.5281L191.008 64.849L187.985 64.7803L189.909 69.0394L184.893 73.3673L187.779 73.436L190.665 70.8255L191.902 73.5734L194.925 73.6421L193.001 69.2455L197.879 65.0551Z" fill="white"/>
<path d="M109.658 321.223L106.772 321.154L103.955 323.696L102.787 321.016L99.764 320.948L101.688 325.207L96.6721 329.535L99.5579 329.603L102.444 326.993L103.68 329.741L106.703 329.81L104.78 325.413L109.658 321.223Z" fill="white"/>
<path d="M390.811 328.504L387.925 328.436L385.108 330.977L383.94 328.298L380.917 328.229L382.841 332.489L377.825 336.817L380.711 336.885L383.597 334.275L384.833 337.023L387.857 337.091L385.933 332.695L390.811 328.504Z" fill="white"/>
<path d="M297.643 435.67L294.757 435.601L291.94 438.143L290.772 435.464L287.749 435.395L289.673 439.654L284.657 443.982L287.543 444.051L290.429 441.44L291.665 444.188L294.689 444.257L292.765 439.86L297.643 435.67Z" fill="white"/>
<path d="M116.804 430.793L113.918 430.724L111.101 433.266L109.933 430.587L106.91 430.518L108.834 434.777L103.818 439.174L106.704 439.242L109.589 436.632L110.826 439.38L113.849 439.448L111.925 435.052L116.804 430.793Z" fill="white"/>
<path d="M486.934 72.5429L484.048 72.4742L481.231 75.0159L480.063 72.3368L477.04 72.2681L478.963 76.5272L473.948 80.8551L476.834 80.9238L479.719 78.3133L480.956 81.0611L483.979 81.1298L482.055 76.7333L486.934 72.5429Z" fill="white"/>
<path d="M449.556 25.4174L446.671 25.3487L443.854 27.8904L442.686 25.2113L439.662 25.1426L441.586 29.4017L436.571 33.7296L439.456 33.7983L442.342 31.1878L443.579 33.9357L446.602 34.0044L444.678 29.6078L449.556 25.4174Z" fill="white"/>
</g>
<defs>
<clipPath id="clip0">
<rect width="552" height="501" fill="white"/>
</clipPath>
</defs>
</svg>
