<svg xmlns="http://www.w3.org/2000/svg" viewBox="0 0 479.24 778.17"><defs><style>.cls-1{fill:#171d4d;}.cls-2{fill:#4e668d;}.cls-2,.cls-3,.cls-5{stroke:#fff;stroke-miterlimit:10;}.cls-2,.cls-5{stroke-width:3px;}.cls-3{fill:none;}.cls-4,.cls-6{fill:#fff;}.cls-5{fill:#0057ff;}.cls-6{font-size:32px;font-family:Poppins-Bold, Poppins;font-weight:700;}</style></defs><g id="Layer_2" data-name="Layer 2"><g id="Acuator"><rect class="cls-1" width="479.24" height="778.17"/><rect class="cls-2" x="116.73" y="151.15" width="80.91" height="68.1"/><polygon class="cls-2" points="197.64 151.16 451.53 151.16 451.53 218.12 199.2 218.12 199.2 219.26 197.64 219.26 197.64 151.16"/><polyline class="cls-3" points="357.07 149.03 236.13 149.03 197.64 149.03 115.57 149.03 115.23 149.03 50.53 149.03"/><rect class="cls-2" x="197.64" y="529.17" width="253.89" height="65.27"/><polyline class="cls-3" points="357.07 596.46 236.13 596.46 197.64 596.46 115.57 596.46 115.23 596.46 54.92 596.46"/><rect class="cls-2" x="116.73" y="529.17" width="80.91" height="65.27"/><rect class="cls-2" x="116.73" y="219.25" width="80.91" height="309.91"/><polyline class="cls-3" points="115.56 81.01 115.56 149.02 115.56 149.56 115.56 219.25 115.56 298.38 115.56 447.2 115.56 529.16 115.56 596.01 115.56 596.46 115.56 659.7"/><polyline class="cls-3" points="197.63 151.15 197.63 149.56 197.63 149.02 197.63 82.52"/><polyline class="cls-3" points="197.63 594.43 197.63 596.01 197.63 596.46 197.63 663.81"/><line class="cls-3" x1="199.99" y1="219.26" x2="199.2" y2="219.26"/><polygon class="cls-2" points="199.99 219.26 279.45 219.26 333.11 298.39 357.07 333.71 434.06 447.21 451.53 472.97 451.53 527.49 416.77 527.49 360.31 447.21 357.07 442.6 255.65 298.39 236.13 270.63 218.35 245.35 199.99 219.26"/><polyline class="cls-3" points="279.45 219.26 357.07 219.26 451.53 219.26"/><polyline class="cls-3" points="116.73 219.25 115.56 219.25 115.22 219.25 51.27 219.25"/><polyline class="cls-3" points="116.73 529.16 115.56 529.16 115.22 529.16 54.28 529.16"/><path class="cls-4" d="M41.57,559.45,30.5,552.51v6.07l6.62,3.89L30.5,567v6.32l10.67-7.25,11.33,7V567l-6.85-4,6.85-4.64V552Z"/><path class="cls-4" d="M155,673.29l-11.07-6.94v6.07l6.63,3.89-6.63,4.51v6.32l10.67-7.25,11.33,7v-6.1l-6.85-4,6.85-4.64v-6.31Z"/><path class="cls-4" d="M155.49,65.72l-11.07-6.93v6.06L151,68.74l-6.62,4.51v6.32l10.67-7.25,11.33,7v-6.1l-6.85-4,6.85-4.63V58.32Z"/><path class="cls-4" d="M38.79,180.13l-11.08-6.94v6.07l6.63,3.89-6.63,4.51V194l10.67-7.25,11.33,7v-6.1l-6.85-4L49.71,179v-6.32Z"/><rect class="cls-5" x="90.95" y="173.41" width="127.07" height="184.04" transform="translate(308.97 530.85) rotate(180)"/><rect class="cls-5" x="148.04" y="97.87" width="12.9" height="75.45" transform="translate(308.97 271.2) rotate(180)"/><rect class="cls-5" x="92.58" y="390.73" width="127.07" height="184.04"/><rect class="cls-5" x="149.67" y="574.85" width="12.9" height="75.45"/><text class="cls-6" transform="translate(23.1 750.3)">The actuator</text></g></g></svg>