<svg width="957" height="189" viewBox="0 0 957 189" fill="none" xmlns="http://www.w3.org/2000/svg">
<path d="M220.918 26.6377V165.981" stroke="#494949" stroke-miterlimit="10"/>
<path d="M243.628 35.686V165.474" stroke="#494949" stroke-miterlimit="10"/>
<path d="M534.545 6.08057L598.506 176.984" stroke="#494949" stroke-miterlimit="10"/>
<path d="M657.222 8.5415L594.338 176.405" stroke="#494949" stroke-miterlimit="10"/>
<path d="M632.93 4.05322L572.346 166.126" stroke="#494949" stroke-miterlimit="10"/>
<path d="M561.782 9.62744L622.366 171.7" stroke="#494949" stroke-miterlimit="10"/>
<path d="M112.471 7.16602V189" stroke="#494949" stroke-miterlimit="10"/>
<path d="M89.9773 0V181.761" stroke="#494949" stroke-miterlimit="10"/>
<path d="M27.4529 136.086H899.555" stroke="#494949" stroke-miterlimit="10"/>
<path d="M0 170.469H956.762" stroke="#494949" stroke-miterlimit="10"/>
<path d="M9.271 50.0913H890.07" stroke="#494949" stroke-miterlimit="10"/>
<path d="M7.04285 41.2603H719.242" stroke="#494949" stroke-miterlimit="10"/>
<path d="M6.97095 19.9062H719.17" stroke="#494949" stroke-miterlimit="10"/>
<path d="M72.801 46.3999C53.9719 46.3999 34.2086 50.0192 31.5495 76.5125L31.4058 77.7431H54.7625L55.0499 76.9468C57.8527 66.1613 62.1647 65.1479 71.8667 65.1479C83.7248 65.1479 88.5398 67.7538 88.5398 74.1238C88.5398 79.6975 87.1025 81.0728 80.2752 81.7243L56.2717 83.8959C43.8387 84.9093 27.1656 88.6734 27.1656 110.968C27.1656 129.716 37.9457 139.706 58.4995 139.706C63.4583 139.706 79.9877 138.909 89.6178 128.92V136.521H112.831V76.3677C112.831 55.5929 100.47 46.3999 72.801 46.3999ZM66.2611 120.958C57.9965 120.958 53.0377 116.759 53.0377 110.172C53.0377 103.802 55.9842 101.196 64.1051 100.4L77.0411 99.0246C81.2813 98.4455 85.4496 97.794 89.3304 95.8396V101.051C89.2585 114.153 77.6161 120.958 66.2611 120.958Z" fill="#32298D"/>
<path d="M168.096 46.3999C149.267 46.3999 129.504 50.0192 126.845 76.5125L126.701 77.7431H150.058L150.345 76.9468C153.148 66.1613 157.532 65.2203 167.162 65.2203C179.02 65.2203 183.835 67.8262 183.835 74.1962C183.835 79.7699 182.398 81.1452 175.57 81.7967L151.567 83.9683C139.134 84.9817 122.461 88.7458 122.461 111.041C122.461 129.789 133.241 139.778 153.795 139.778C158.753 139.778 175.283 138.982 184.913 128.992V136.593H208.126V76.4401C208.126 55.5929 195.837 46.3999 168.096 46.3999ZM161.556 120.958C153.292 120.958 148.333 116.759 148.333 110.172C148.333 103.802 151.279 101.196 159.4 100.4L172.336 99.0246C176.576 98.4455 180.745 97.794 184.625 95.8396V101.051C184.625 114.153 172.911 120.958 161.556 120.958Z" fill="#32298D"/>
<path d="M301.553 78.9005V136.447H277.262V87.2249C277.262 76.2946 272.734 71.0828 263.104 71.0828C256.277 71.0828 243.988 75.0641 243.988 95.4046L244.131 136.447H220.487V49.5842H243.988V60.1525C248.803 53.5654 258.792 47.4126 271.225 47.4126C275.609 47.4126 283.874 48.2088 290.701 53.4206C297.816 58.7772 301.553 67.5359 301.553 78.9005Z" fill="#32298D"/>
<path d="M375.36 19.5444V58.4158C370.185 51.2495 361.058 47.4855 349.847 47.4855C338.923 47.4855 329.15 51.901 321.963 60.0083C314.633 68.5498 310.752 80.3487 310.752 94.1021C310.752 121.826 325.987 139.778 349.847 139.778C357.321 139.778 367.886 138.402 376.15 127.617V136.593H399.651V19.5444H375.36ZM356.1 116.759C345.966 116.759 335.833 109.593 335.833 93.4506C335.833 77.5257 345.966 70.1423 356.1 70.1423C366.089 70.1423 376.222 77.5257 376.222 93.4506C376.15 109.593 366.017 116.759 356.1 116.759Z" fill="#32298D"/>
<path d="M473.817 48.4265V76.9466L472.739 76.5123C469.146 75.2817 464.978 73.9064 460.594 73.9064C446.436 73.9064 438.962 82.6651 438.962 98.8072V136.448H414.671V49.5847H438.171V64.3514C445.645 52.9868 452.185 47.4131 464.834 47.4131C468.283 47.4131 471.086 47.6302 473.242 48.2093L473.817 48.4265Z" fill="#32298D"/>
<path d="M508.529 19.5444H484.238V41.6946H508.529V19.5444Z" fill="#32298D"/>
<path d="M508.529 49.5845H484.238V136.448H508.529V49.5845Z" fill="#32298D"/>
<path d="M539.719 49.8018V136.448C539.719 156.137 537.85 170.325 513.991 170.325C511.188 170.325 508.672 170.107 506.373 169.89C505.151 169.673 503.714 169.673 502.492 169.673L501.558 169.456V146.22L503.139 146.437C505.151 146.872 507.163 147.016 508.313 147.016C514.709 147.016 515.5 144.41 515.5 134.276V49.8018H539.719Z" fill="#32298D"/>
<path d="M539.718 19.688H515.427V41.621H539.718V19.688Z" fill="#32298D"/>
<path d="M642.201 49.7291L609.574 136.448H582.983L582.839 135.869L550.499 49.7291L577.234 49.6567L596.35 101.051L615.395 49.7291H642.201Z" fill="#32298D"/>
<path d="M677.344 19.5444H653.053V41.4774H677.344V19.5444Z" fill="#32298D"/>
<path d="M677.344 49.5845H653.053V136.448H677.344V49.5845Z" fill="#32298D"/>
<path d="M773.429 78.901V136.448H749.138V87.2254C749.138 76.2951 744.611 71.0833 734.981 71.0833C728.153 71.0833 716.583 74.0512 716.583 94.3916V136.448H692.292V49.5847H715.792V60.153C720.607 53.5659 730.597 47.4131 743.03 47.4131C747.414 47.4131 755.678 48.2093 762.506 53.4211C769.692 58.7777 773.429 67.5364 773.429 78.901Z" fill="#32298D"/>
<path d="M850.399 49.802V58.5607C842.925 49.0057 831.57 47.6304 825.03 47.6304C786.438 47.6304 783.419 80.928 783.419 91.062C783.419 111.185 793.84 134.494 823.305 134.494C834.66 134.494 843.572 130.874 849.608 123.708V127.689C849.608 147.813 840.122 150.636 829.845 150.636C816.765 150.636 813.172 146.872 812.094 140.864L811.807 140.067H786.078L786.222 141.443C788.594 166.923 810.369 170.325 829.055 170.325C859.742 170.325 873.899 157.15 873.899 128.703V49.802H850.399ZM808.501 91.4239C808.501 76.8743 815.328 69.491 829.055 69.491C842.781 69.491 849.608 76.8743 849.608 91.4239C849.608 106.191 842.781 113.502 829.055 113.502C815.328 113.502 808.501 106.191 808.501 91.4239Z" fill="#32298D"/>
</svg>
