<svg xmlns="http://www.w3.org/2000/svg" viewBox="0 0 479.24 778.17"><defs><style>.cls-1{fill:#171d4d;}.cls-2{font-size:32px;font-family:Poppins-Bold, Poppins;font-weight:700;}.cls-2,.cls-4{fill:#fff;}.cls-3,.cls-6{fill:#4e668d;}.cls-5{fill:none;}.cls-5,.cls-6{stroke:#fff;stroke-miterlimit:10;stroke-width:2px;}</style></defs><g id="Layer_2" data-name="Layer 2"><g id="Wielen"><rect class="cls-1" width="479.24" height="778.17"/><text class="cls-2" transform="translate(16.75 758.02)">The sketch</text></g><g id="Body"><rect class="cls-3" x="143.28" y="652.14" width="241.69" height="23.46"/><path class="cls-4" d="M385.87,676.51H142.38V651.24H385.87ZM144.19,674.7H384.07V653H144.19Z"/><polygon class="cls-3" points="159.72 676.54 51.11 673.53 51.11 655.36 159.72 653.08 159.72 676.54"/><path class="cls-4" d="M160.62,677.47,50.2,674.41V654.47h.89l109.53-2.3ZM52,672.66l106.81,3V654L52,656.24Z"/><line class="cls-3" x1="339.87" y1="652.18" x2="452.19" y2="652.18"/><rect class="cls-4" x="339.87" y="651.28" width="112.32" height="1.8"/><line class="cls-3" x1="336.08" y1="675.71" x2="451.81" y2="675.71"/><rect class="cls-4" x="336.08" y="674.81" width="115.73" height="1.8"/><rect class="cls-3" x="354.01" y="593.57" width="55.37" height="66.64"/><path class="cls-4" d="M410.29,661.11H353.11V592.67h57.18Zm-55.38-1.8h53.58V594.48H354.91Z"/><circle class="cls-3" cx="145.65" cy="663.87" r="36.98"/><path class="cls-4" d="M145.65,701.75a37.88,37.88,0,1,1,37.88-37.88A37.92,37.92,0,0,1,145.65,701.75Zm0-74a36.08,36.08,0,1,0,36.08,36.07A36.11,36.11,0,0,0,145.65,627.8Z"/><circle class="cls-3" cx="382.17" cy="663.87" r="36.98"/><path class="cls-4" d="M382.17,701.75a37.88,37.88,0,1,1,37.88-37.88A37.92,37.92,0,0,1,382.17,701.75Zm0-74a36.08,36.08,0,1,0,36.07,36.07A36.12,36.12,0,0,0,382.17,627.8Z"/><rect class="cls-4" x="22.82" y="654.58" width="34.92" height="1.2" transform="translate(-19.17 1.46) rotate(-1.68)"/><rect class="cls-4" x="39.55" y="656.34" width="1.2" height="34.86" transform="translate(-634.5 694.37) rotate(-88.34)"/><path class="cls-4" d="M18.87,669.75l-2.07-3-1.77,3H12.31l3.13-5L12.21,660H15l2,2.95L18.77,660h2.7l-3.09,4.93,3.3,4.87Z"/><path class="cls-4" d="M147.5,580.2l-2.06-3.05-1.78,3.05h-2.72l3.14-5.05-3.23-4.75h2.81l2,3,1.73-3h2.71L147,575.33l3.3,4.87Z"/><path class="cls-4" d="M459.4,667.47l-2.06-3.05-1.78,3.05h-2.71l3.13-5-3.23-4.76h2.81l2,3,1.74-3H462l-3.09,4.94,3.3,4.86Z"/><line class="cls-4" x1="108.68" y1="663.87" x2="108.68" y2="577.81"/><rect class="cls-4" x="108.08" y="577.81" width="1.2" height="86.06"/><line class="cls-4" x1="182.63" y1="663.87" x2="182.63" y2="578.19"/><rect class="cls-4" x="182.03" y="578.19" width="1.2" height="85.68"/><path class="cls-5" d="M173.06,104.84V369.37h.88l-.11-.13V105.55H315.08v-.71Zm.77,264.4V344.13h-.77v25.24h.88Zm0,0V344.13h-.77v25.24h.88Zm0,0V344.13h-.77v25.24h.88Zm0,0V344.13h-.77v25.24h.88Zm0,0V344.13h-.77v25.24h.88Zm24.61,30.29H143.53l.14.17h54.9Zm-24.61-30.29V344.13h-.77v25.24h.88Zm0,0V344.13h-.77v25.24h.88Zm0,0V344.13h-.77v25.24h.88Zm0,0V344.13h-.77v25.24h.88Zm0,0V344.13h-.77v25.24h.88Zm116.88,30.29-.14.17h54.87l.15-.17ZM173.83,369.24V344.13h-.77v25.24h.88Z"/><polygon class="cls-6" points="315.08 399.69 315.08 432.83 294.81 454.94 278.82 472.4 244.71 509.63 244.44 509.63 210.62 472.73 194.32 454.94 173.06 431.76 173.06 399.69 198.57 399.69 210.62 414.54 243.43 454.94 244.57 456.35 245.71 454.94 278.82 414.18 290.57 399.69 315.08 399.69"/><line class="cls-5" x1="173.83" y1="205.25" x2="173.6" y2="205.41"/><line class="cls-5" x1="315.6" y1="105.55" x2="315.08" y2="105.91"/><line class="cls-5" x1="173.83" y1="238.12" x2="173.6" y2="238.27"/><polyline class="cls-5" points="315.08 142.32 315.6 141.97 315.79 141.84"/><line class="cls-5" x1="315.54" y1="333.53" x2="315.08" y2="333.22"/><line class="cls-5" x1="173.83" y1="239.38" x2="173.66" y2="239.27"/><line class="cls-5" x1="173.83" y1="275.09" x2="173.77" y2="275.05"/><line class="cls-5" x1="278.82" y1="344.55" x2="278.18" y2="344.13"/><line class="cls-5" x1="315.6" y1="368.88" x2="315.08" y2="368.54"/><rect class="cls-6" x="315.08" y="67.76" width="31.21" height="37.07"/><polygon class="cls-6" points="346.28 104.84 346.28 369.37 315.2 369.37 315.6 368.88 315.6 105.55 315.08 105.55 315.08 104.84 346.28 104.84"/><polygon class="cls-6" points="345.44 399.69 315.08 432.83 315.08 399.69 345.44 399.69"/><polygon class="cls-6" points="346.28 369.37 346.28 398.78 345.59 399.53 315.08 399.53 315.08 369.52 315.2 369.37 346.28 369.37"/><polyline class="cls-5" points="347.26 37.43 347.26 67.07 347.26 67.23 347.26 104.84 347.26 122.47 347.26 177.89 347.26 233.3 347.26 288.71 347.26 344.13 347.26 369.37 347.26 399.53 347.26 399.69 347.26 454.94 347.26 510.36 347.26 517.63"/><rect class="cls-6" x="143.15" y="104.84" width="29.91" height="264.54"/><polygon class="cls-6" points="173.06 369.37 173.06 399.53 143.53 399.53 143.15 399.13 143.15 369.37 173.06 369.37"/><polygon class="cls-6" points="173.06 399.69 173.06 431.76 143.68 399.69 173.06 399.69"/><polyline class="cls-5" points="142.23 39.44 142.23 67.07 142.23 67.23 142.23 104.84 142.23 122.47 142.23 177.89 142.23 233.3 142.23 288.71 142.23 344.13 142.23 369.37 142.23 399.53 142.23 399.69 142.23 454.94 142.23 510.36 142.23 515.57"/><rect class="cls-6" x="143.15" y="67.76" width="29.91" height="37.07"/><rect class="cls-6" x="173.06" y="67.76" width="142.01" height="37.07"/><polyline class="cls-5" points="378.42 67.23 347.26 67.23 347.01 67.23 315.08 67.23 278.82 67.23 210.62 67.23 173.06 67.23 142.43 67.23 142.23 67.23 113.25 67.23"/><polyline class="cls-5" points="346.28 104.84 347.01 104.84 347.26 104.84 377.73 104.84"/><polyline class="cls-5" points="143.15 104.84 142.43 104.84 142.23 104.84 111.36 104.84"/><polyline class="cls-5" points="315.08 517.68 315.08 510.36 315.08 454.94 315.08 432.83"/><polyline class="cls-5" points="315.08 369.52 315.08 369.37 315.08 368.54"/><line class="cls-5" x1="315.08" y1="105.91" x2="315.08" y2="105.55"/><polygon class="cls-6" points="315.08 105.91 315.08 142.32 278.82 166.91 262.63 177.89 210.62 213.17 180.94 233.3 173.83 238.12 173.83 205.25 210.62 179.38 212.73 177.89 278.82 131.42 291.54 122.47 315.08 105.91"/><polyline class="cls-5" points="315.08 333.22 315.08 288.71 315.08 233.3 315.08 177.89 315.08 142.32"/><polygon class="cls-6" points="315.08 369.52 315.08 399.53 290.71 399.53 315.08 369.52"/><line class="cls-5" x1="315.08" y1="399.7" x2="315.08" y2="399.53"/><polyline class="cls-5" points="315.08 67.76 315.08 67.23 315.08 67.07 315.08 37.77"/><polygon class="cls-6" points="198.44 399.53 173.06 399.53 173.06 369.37 173.94 369.37 198.44 399.53"/><polyline class="cls-5" points="173.06 515.91 173.06 510.36 173.06 454.94 173.06 431.76"/><line class="cls-5" x1="173.06" y1="399.7" x2="173.06" y2="399.53"/><polyline class="cls-5" points="173.06 67.76 173.06 67.23 173.06 67.07 173.06 39.14"/><polyline class="cls-5" points="345.44 399.69 347.01 399.69 347.26 399.69 377.32 399.69"/><polyline class="cls-5" points="290.57 399.69 278.82 399.69 210.62 399.69 198.57 399.69"/><polyline class="cls-5" points="143.68 399.69 142.43 399.69 142.23 399.69 117.23 399.69"/><polyline class="cls-5" points="377.32 369.37 347.26 369.37 347.01 369.37 346.28 369.37"/><polyline class="cls-5" points="117.11 369.37 142.23 369.37 142.43 369.37 143.15 369.37"/><polygon class="cls-6" points="278.82 344.55 315.08 368.54 315.08 333.22 278.82 309.13 248.08 288.71 210.62 263.82 173.83 239.38 173.83 275.09 194.42 288.71 210.62 299.43 278.18 344.13 278.82 344.55"/><polyline class="cls-5" points="173.94 369.37 210.62 369.37 278.82 369.37 315.08 369.37 315.2 369.37"/><path class="cls-4" d="M159.69,38.33l-2.13-3.14-1.82,3.14h-2.8l3.22-5.19-3.32-4.89h2.9l2.06,3,1.79-3h2.78l-3.18,5.08,3.39,5Z"/><path class="cls-4" d="M334.29,516.5l-2.13-3.14-1.82,3.14h-2.8l3.23-5.19-3.33-4.89h2.9l2.07,3,1.78-3H337l-3.18,5.08,3.39,5Z"/><path class="cls-4" d="M160,516.07l-2.12-3.13-1.83,3.13H153.3l3.22-5.19L153.2,506h2.89l2.07,3,1.79-3h2.78l-3.18,5.08,3.39,5Z"/><path class="cls-4" d="M333.5,37.05l-2.12-3.14-1.83,3.14h-2.79L330,31.86,326.66,27h2.89l2.07,3,1.78-3h2.78L333,32l3.4,5Z"/><rect class="cls-6" x="167.24" y="44.37" width="56.87" height="82.36" transform="translate(281.23 -110.12) rotate(90)"/><rect class="cls-6" x="134.69" y="68.67" width="5.77" height="33.77" transform="translate(223.13 -52.01) rotate(90)"/><rect class="cls-6" x="264.5" y="43.64" width="56.87" height="82.36" transform="translate(208.11 377.76) rotate(-90)"/><rect class="cls-6" x="348.15" y="67.94" width="5.77" height="33.77" transform="translate(266.21 435.87) rotate(-90)"/><rect class="cls-6" x="355.91" y="44.06" width="52.72" height="87.58" rx="8"/><rect class="cls-6" x="81.96" y="44.06" width="52.72" height="87.58" rx="8"/><rect class="cls-6" x="120.68" y="382.12" width="27.43" height="5.72"/><rect class="cls-6" x="340.87" y="382.12" width="27.43" height="5.72"/><rect class="cls-6" x="355.76" y="341.78" width="52.72" height="87.58" rx="8"/><rect class="cls-6" x="81.81" y="341.78" width="52.72" height="87.58" rx="8"/></g></g></svg>