<svg width="544" height="154" viewBox="0 0 544 154" fill="none" xmlns="http://www.w3.org/2000/svg">
<path d="M0 134H539" stroke="#494949" stroke-miterlimit="10"/>
<path d="M5 43H544" stroke="#494949" stroke-miterlimit="10"/>
<path d="M5 17H544" stroke="#494949" stroke-miterlimit="10"/>
<path d="M194.02 0V147.039" stroke="#494949" stroke-miterlimit="10"/>
<path d="M216.905 2.29639V149.264" stroke="#494949" stroke-miterlimit="10"/>
<path d="M388.183 4.73633V151.704" stroke="#494949" stroke-miterlimit="10"/>
<path d="M411.067 7.03271V154" stroke="#494949" stroke-miterlimit="10"/>
<path d="M90.1802 105.633C90.1802 131.754 66.3658 134.696 48.4156 134.696C22.7417 134.696 9.79754 124.937 8.58179 104.843V103.695H34.2556L34.3986 104.7C35.1853 109.795 37.4023 115.464 49.7743 115.464C55.2095 115.464 64.5779 114.459 64.5779 107.642C64.5779 104.126 63.5052 102.403 52.9925 100.394L33.2544 97.0931C13.5163 93.7921 10.7987 83.2431 10.7987 72.3354C10.7987 53.1751 23.1708 43.4873 47.7719 43.4873C74.0179 43.4873 85.9609 52.0987 87.8918 72.3354L88.0348 73.6989H62.1464V72.6942C60.7876 63.6523 51.8483 62.7194 48.201 62.7194C42.0507 62.7194 34.7562 63.5087 34.7562 70.3261C34.7562 73.053 35.6859 75.5647 44.9828 76.9281L60.0725 78.8657C81.5985 81.8079 90.1802 89.4146 90.1802 105.633Z" fill="#32298D"/>
<path d="M160.336 96.4474H184.794L184.508 97.8109C180.146 130.391 160.193 134.696 141.385 134.696C113.78 134.696 98.5475 118.478 98.5475 89.056C98.5475 73.6273 102.767 61.9302 110.92 54.1082C118.643 46.8603 129.299 43.344 143.173 43.344C173.209 43.344 182.22 62.0737 184.508 77.8612L184.794 79.2247H160.479L160.336 78.4353C158.048 69.0346 152.613 64.8007 143.173 64.8007C130.014 64.8007 122.791 73.412 122.791 88.9843C122.791 104.628 130.014 113.168 143.173 113.168C152.541 113.168 159.335 106.925 160.336 97.3803V96.4474Z" fill="#32298D"/>
<path d="M272.257 75.206V134.696H248.729V83.4585C248.729 72.6943 244.366 67.671 234.998 67.671C228.347 67.671 217.191 70.6132 217.191 90.4911V134.696H193.662V16.5051H217.191V56.6198C221.553 50.1612 231.208 44.3486 242.864 44.3486C247.084 44.3486 255.094 45.1379 261.744 50.233C268.61 55.4716 272.257 64.0829 272.257 75.206Z" fill="#32298D"/>
<path d="M369.589 93.7205C369.589 60.7103 354.499 43.344 326.108 43.344C312.234 43.344 301.507 46.8603 293.854 54.1082C285.702 61.9302 281.482 73.6273 281.482 89.056C281.482 104.485 285.702 116.182 293.854 124.004C301.578 131.036 312.234 134.768 326.108 134.768C347.991 134.768 362.151 125.224 368.23 106.279L368.659 104.7H343.629L343.343 105.274C340.482 111.876 334.618 115.392 326.179 115.392C312.734 115.392 306.298 105.059 305.797 97.4521H369.589V93.7205ZM345.131 79.0812H305.94C306.727 75.5649 310.446 62.7196 325.679 62.7196C340.625 62.7196 344.702 74.9908 345.131 79.0812Z" fill="#32298D"/>
<path d="M429.733 112.235V132.902L428.946 133.118C424.584 133.692 416.431 134.696 411.783 134.696C389.899 134.696 388.254 123.358 388.254 108.719V67.3841H374.523V42.8417H388.254V17.0076H411.783V42.7699H429.304V67.3123H411.783V105.346C411.783 111.015 412.712 112.953 418.147 112.953C421.938 112.953 425.084 112.594 428.374 112.378L429.733 112.235Z" fill="#32298D"/>
<path d="M520.557 105.633C520.557 131.754 496.742 134.696 478.792 134.696C453.118 134.696 440.174 124.937 438.958 104.843V103.695H464.632L464.775 104.7C465.562 109.795 467.779 115.464 480.151 115.464C485.586 115.464 494.954 114.459 494.954 107.642C494.954 104.126 493.882 102.403 483.369 100.394L463.631 97.0931C443.893 93.7921 441.175 83.2431 441.175 72.3354C441.175 53.1751 453.547 43.4873 478.148 43.4873C504.394 43.4873 516.337 52.0987 518.268 72.3354L518.411 73.6989H492.594V72.6942C491.236 63.724 482.368 62.7194 478.721 62.7194C472.57 62.7194 465.276 63.5087 465.276 70.3261C465.276 73.053 466.205 75.5647 475.502 76.9281L490.592 78.8657C511.975 81.8079 520.557 89.4146 520.557 105.633Z" fill="#32298D"/>
</svg>
