<svg xmlns="http://www.w3.org/2000/svg" viewBox="0 0 479.24 778.17"><defs><style>.cls-1{fill:#171d4d;}.cls-2,.cls-6{fill:none;}.cls-2,.cls-3,.cls-5,.cls-6{stroke:#fff;stroke-miterlimit:10;}.cls-2,.cls-3{stroke-width:3px;}.cls-3,.cls-5{fill:#0057ff;}.cls-4{font-size:32px;font-family:Poppins-Bold, Poppins;font-weight:700;}.cls-4,.cls-7{fill:#fff;}.cls-5{stroke-width:2px;}</style></defs><g id="Layer_2" data-name="Layer 2"><g id="Body"><path class="cls-1" d="M338.3,132.19v-1H139.11V233.66h55.64l92.69-65.19,17.84-12.54,33-23.23v51.07l-50.86,34.49v15.4H338.3v77.71H339V132.19Zm0,0v-1H139.11V466.82h1.08V319.9l51.6,34.28v-71l-41.63,28.23-10,6.76V272l51.6-36.29,3-2.08,92.69-65.19,17.84-12.54,33-23.23v51.07l-50.86,34.49v15.4H338.3v77.71H339V132.19Zm0,0v-1H139.11V466.82h1.08V319.9l51.6,34.28v-71l-41.63,28.23-10,6.76V272l51.6-36.29,3-2.08,92.69-65.19,17.84-12.54,33-23.23v51.07l-50.86,34.49v15.4H338.3v77.71H339V132.19ZM237.81,622.25l1.6,2,1.6-2ZM338.3,132.19v-1H139.11V466.82h1.08V319.9l51.6,34.28v-71l-41.63,28.23-10,6.76V272l51.6-36.29,3-2.08,92.69-65.19,17.84-12.54,33-23.23v51.07l-50.86,34.49v15.4H338.3v77.71H339V132.19ZM237.81,622.25l1.6,2,1.6-2ZM338.3,132.19v-1H139.11V466.82h1.08V319.9l51.6,34.28v-71l-41.63,28.23-10,6.76V272l51.6-36.29,3-2.08,92.69-65.19,17.84-12.54,33-23.23v51.07l-50.86,34.49v15.4H338.3v77.71H339V132.19ZM237.81,622.25l1.6,2,1.6-2ZM338.3,132.19v-1H139.11V466.82h1.08V319.9l51.6,34.28,52.54,34.91,43.11,28.64,50.86,33.79v49.54l.73.48V132.19Zm0,51.58-50.86,34.49-22.7,15.4-73,49.48-41.63,28.23-10,6.76V272l51.6-36.29,3-2.08,92.69-65.19,17.84-12.54,33-23.23ZM237.81,622.25l1.6,2,1.6-2ZM338.3,132.19v-1H139.11V466.82h1.08V319.9l51.6,34.28,52.54,34.91,43.11,28.64,50.86,33.79v49.54l.73.48V132.19Zm0,51.58-50.86,34.49-22.7,15.4-73,49.48-41.63,28.23-10,6.76V272l51.6-36.29,3-2.08,92.69-65.19,17.84-12.54,33-23.23ZM237.81,622.25l1.6,2,1.6-2ZM338.3,132.19v-1H139.11V466.82h1.08V319.9l51.6,34.28,52.54,34.91,43.11,28.64,50.86,33.79v49.54l.73.48V132.19Zm0,51.58-50.86,34.49-22.7,15.4-73,49.48-41.63,28.23-10,6.76V272l51.6-36.29,3-2.08,92.69-65.19,17.84-12.54,33-23.23ZM0,0V778.17H479.24V0ZM382.07,543.47l-1,1.06h-77l34.18-42.09.17-.21.56-.69V132.19h-.73v-1H139.11v371h1.23l34.36,42.3h-77l-.52-.57V79.19H382.07ZM140.19,272l51.6-36.29,3-2.08,92.69-65.19,17.84-12.54,33-23.23v51.07l-50.86,34.49-22.7,15.4-73,49.48-41.63,28.23-10,6.76Zm198.11,229-50.86-33.65v-.59h-.89l-94.76-62.69-22.73-15L140.19,370V319.9l51.6,34.28,52.54,34.91,43.11,28.64,50.86,33.79ZM139.11,589.73l-41.22-45h77l16.91,20.82,46,56.67,1.6,2,1.6-2,46.43-57.18,16.49-20.31h77L338.3,591.24l-28.42,31-22.44,24.49L239.6,699h-.38L191.79,647.2l-22.87-25ZM338.3,132.19v-1H139.11V466.82h1.08V319.9l51.6,34.28,52.54,34.91,43.11,28.64,50.86,33.79v49.54l.73.48V132.19Zm0,51.58-50.86,34.49-22.7,15.4-73,49.48-41.63,28.23-10,6.76V272l51.6-36.29,3-2.08,92.69-65.19,17.84-12.54,33-23.23ZM237.81,622.25l1.6,2,1.6-2ZM338.3,132.19v-1H139.11V466.82h1.08V319.9l51.6,34.28,52.54,34.91,43.11,28.64,50.86,33.79v49.54l.73.48V132.19Zm0,51.58-50.86,34.49-22.7,15.4-73,49.48-41.63,28.23-10,6.76V272l51.6-36.29,3-2.08,92.69-65.19,17.84-12.54,33-23.23ZM237.81,622.25l1.6,2,1.6-2ZM338.3,132.19v-1H139.11V466.82h1.08V319.9l51.6,34.28,52.54,34.91,43.11,28.64,50.86,33.79v49.54l.73.48V132.19Zm0,51.58-50.86,34.49-22.7,15.4-73,49.48-41.63,28.23-10,6.76V272l51.6-36.29,3-2.08,92.69-65.19,17.84-12.54,33-23.23ZM237.81,622.25l1.6,2,1.6-2ZM338.3,132.19v-1H139.11V466.82h1.08V319.9l51.6,34.28v-71l-41.63,28.23-10,6.76V272l51.6-36.29,3-2.08,92.69-65.19,17.84-12.54,33-23.23v51.07l-50.86,34.49v15.4H338.3v77.71H339V132.19ZM237.81,622.25l1.6,2,1.6-2ZM338.3,132.19v-1H139.11V466.82h1.08V319.9l51.6,34.28v-71l-41.63,28.23-10,6.76V272l51.6-36.29,3-2.08,92.69-65.19,17.84-12.54,33-23.23v51.07l-50.86,34.49v15.4H338.3v77.71H339V132.19Zm0,0v-1H139.11V466.82h1.08V319.9l51.6,34.28v-71l-41.63,28.23-10,6.76V272l51.6-36.29,3-2.08,92.69-65.19,17.84-12.54,33-23.23v51.07l-50.86,34.49v15.4H338.3v77.71H339V132.19Zm0,0v-1H139.11V311.37h1.08V272l51.6-36.29,3-2.08,92.69-65.19,17.84-12.54,33-23.23v51.07l-50.86,34.49v15.4H338.3v77.71H339V132.19Zm-50.86,0v23.74h17.84l33-23.23v51.07l-50.86,34.49v15.4H338.3v77.71H339V132.19Z"/><path class="cls-2" d="M139.11,131.19v371h1.23l-.15-.19V132.19H338.3v-1ZM140.19,502V466.82h-1.08v35.41h1.23Zm0,0V466.82h-1.08v35.41h1.23Zm0,0V466.82h-1.08v35.41h1.23Zm0,0V466.82h-1.08v35.41h1.23Zm0,0V466.82h-1.08v35.41h1.23Zm34.51,42.49h-77l.21.23h77ZM140.19,502V466.82h-1.08v35.41h1.23Zm0,0V466.82h-1.08v35.41h1.23Zm0,0V466.82h-1.08v35.41h1.23Zm0,0V466.82h-1.08v35.41h1.23Zm0,0V466.82h-1.08v35.41h1.23Zm163.93,42.49-.19.23h77l.21-.23ZM140.19,502V466.82h-1.08v35.41h1.23Z"/><polygon class="cls-3" points="338.3 544.76 338.3 591.24 309.88 622.25 287.44 646.74 239.6 698.95 239.22 698.95 191.79 647.2 168.92 622.25 139.11 589.73 139.11 544.76 174.88 544.76 191.79 565.58 237.81 622.25 239.41 624.22 241.01 622.25 287.44 565.07 303.93 544.76 338.3 544.76"/><line class="cls-2" x1="140.19" y1="272.03" x2="139.87" y2="272.26"/><line class="cls-2" x1="339.03" y1="132.19" x2="338.3" y2="132.7"/><line class="cls-2" x1="140.19" y1="318.13" x2="139.87" y2="318.35"/><polyline class="cls-2" points="338.3 183.77 339.03 183.27 339.3 183.09"/><line class="cls-2" x1="338.95" y1="451.95" x2="338.3" y2="451.52"/><line class="cls-2" x1="140.19" y1="319.9" x2="139.95" y2="319.74"/><line class="cls-2" x1="140.19" y1="369.99" x2="140.1" y2="369.93"/><line class="cls-2" x1="287.44" y1="467.41" x2="286.55" y2="466.82"/><line class="cls-2" x1="339.03" y1="501.54" x2="338.3" y2="501.06"/><text class="cls-4" transform="translate(19.39 750.35)">The body</text><rect class="cls-3" x="338.3" y="79.19" width="43.77" height="52"/><polygon class="cls-3" points="382.07 131.19 382.07 502.23 338.47 502.23 339.03 501.54 339.03 132.19 338.3 132.19 338.3 131.19 382.07 131.19"/><polygon class="cls-3" points="380.89 544.76 338.3 591.24 338.3 544.76 380.89 544.76"/><polygon class="cls-5" points="382.07 502.23 382.07 543.47 381.1 544.53 338.3 544.53 338.3 502.44 338.47 502.23 382.07 502.23"/><polyline class="cls-6" points="383.44 36.64 383.44 78.22 383.44 78.44 383.44 131.19 383.44 155.93 383.44 233.66 383.44 311.37 383.44 389.09 383.44 466.82 383.44 502.23 383.44 544.53 383.44 544.76 383.44 622.25 383.44 699.98 383.44 710.18"/><rect class="cls-3" x="97.16" y="131.19" width="41.95" height="371.04"/><polygon class="cls-5" points="139.11 502.23 139.11 544.53 97.68 544.53 97.16 543.96 97.16 502.23 139.11 502.23"/><polygon class="cls-3" points="139.11 544.76 139.11 589.73 97.89 544.76 139.11 544.76"/><polyline class="cls-6" points="95.86 39.46 95.86 78.22 95.86 78.44 95.86 131.19 95.86 155.93 95.86 233.66 95.86 311.37 95.86 389.09 95.86 466.82 95.86 502.23 95.86 544.53 95.86 544.76 95.86 622.25 95.86 699.98 95.86 707.29"/><rect class="cls-3" x="97.16" y="79.19" width="41.95" height="52"/><rect class="cls-3" x="139.11" y="79.19" width="199.19" height="52"/><polyline class="cls-6" points="427.15 78.44 383.44 78.44 383.09 78.44 338.3 78.44 287.44 78.44 191.79 78.44 139.11 78.44 96.15 78.44 95.86 78.44 55.21 78.44"/><polyline class="cls-6" points="382.07 131.19 383.09 131.19 383.44 131.19 426.18 131.19"/><polyline class="cls-6" points="97.16 131.19 96.15 131.19 95.86 131.19 52.57 131.19"/><polyline class="cls-6" points="338.3 710.24 338.3 699.98 338.3 622.25 338.3 591.24"/><polyline class="cls-6" points="338.3 502.44 338.3 502.23 338.3 501.06"/><line class="cls-6" x1="338.3" y1="132.7" x2="338.3" y2="132.19"/><polygon class="cls-3" points="338.3 132.7 338.3 183.77 287.44 218.26 264.74 233.66 191.79 283.14 150.16 311.37 140.19 318.13 140.19 272.03 191.79 235.74 194.75 233.66 287.44 168.47 305.28 155.93 338.3 132.7"/><polyline class="cls-6" points="338.3 451.52 338.3 389.09 338.3 311.37 338.3 233.66 338.3 183.77"/><polygon class="cls-5" points="338.3 502.44 338.3 544.53 304.12 544.53 338.3 502.44"/><line class="cls-6" x1="338.3" y1="544.76" x2="338.3" y2="544.53"/><polyline class="cls-6" points="338.3 79.19 338.3 78.44 338.3 78.22 338.3 37.12"/><polygon class="cls-3" points="174.7 544.53 139.11 544.53 139.11 502.23 140.34 502.23 174.7 544.53"/><polyline class="cls-6" points="139.11 707.77 139.11 699.98 139.11 622.25 139.11 589.73"/><line class="cls-6" x1="139.11" y1="544.76" x2="139.11" y2="544.53"/><polyline class="cls-6" points="139.11 79.19 139.11 78.44 139.11 78.22 139.11 39.05"/><polyline class="cls-6" points="380.89 544.76 383.09 544.76 383.44 544.76 425.6 544.76"/><polyline class="cls-6" points="303.93 544.76 287.44 544.76 191.79 544.76 174.88 544.76"/><polyline class="cls-6" points="97.89 544.76 96.15 544.76 95.86 544.76 60.8 544.76"/><polyline class="cls-6" points="425.6 502.23 383.44 502.23 383.09 502.23 382.07 502.23"/><polyline class="cls-6" points="60.63 502.23 95.86 502.23 96.15 502.23 97.16 502.23"/><polygon class="cls-3" points="287.44 467.41 338.3 501.06 338.3 451.52 287.44 417.73 244.33 389.09 191.79 354.18 140.19 319.9 140.19 369.99 169.06 389.09 191.79 404.13 286.55 466.82 287.44 467.41"/><polyline class="cls-6" points="140.34 502.23 191.79 502.23 287.44 502.23 338.3 502.23 338.47 502.23"/><path class="cls-7" d="M120.35,37.91l-3-4.4-2.56,4.4h-3.92l4.52-7.28-4.66-6.86h4.06l2.9,4.26,2.5-4.26h3.9l-4.46,7.12,4.76,7Z"/><path class="cls-7" d="M47.17,110.78l-3-4.4-2.56,4.4H37.71l4.52-7.28-4.66-6.86h4.06l2.9,4.26L47,96.64h3.9l-4.46,7.12,4.76,7Z"/><path class="cls-7" d="M56.71,530.43l-3-4.4-2.56,4.4H47.25l4.52-7.28-4.66-6.86h4.06l2.9,4.26,2.5-4.26h3.9L56,523.41l4.76,7Z"/><path class="cls-7" d="M436.53,530.69l-3-4.4-2.56,4.4h-3.92l4.52-7.28-4.66-6.86H431l2.9,4.26,2.5-4.26h3.9l-4.46,7.12,4.76,7Z"/><path class="cls-7" d="M365.24,708.59l-3-4.4-2.57,4.4h-3.92l4.53-7.28-4.66-6.86h4.05l2.91,4.26,2.5-4.26H369l-4.46,7.12,4.77,7Z"/><path class="cls-7" d="M120.85,708l-3-4.4-2.56,4.4h-3.92l4.52-7.28-4.66-6.86h4.06l2.9,4.26,2.5-4.26h3.9L120.15,701l4.76,7Z"/><path class="cls-7" d="M437.68,111.12l-3-4.4-2.56,4.4h-3.92l4.52-7.28L428.08,97h4.06l2.9,4.26,2.5-4.26h3.9L437,104.1l4.76,7Z"/><path class="cls-7" d="M364.14,36.11l-3-4.4-2.56,4.4h-3.92l4.52-7.28L354.54,22h4.06l2.9,4.26L364,22h3.9l-4.46,7.12,4.76,7Z"/></g></g></svg>