<svg width="517" height="231" viewBox="0 0 517 231" fill="none" xmlns="http://www.w3.org/2000/svg">
<path d="M15.8419 76.2371H516.247" stroke="#494949" stroke-miterlimit="10"/>
<path d="M0.975708 170.814H412.712" stroke="#494949" stroke-miterlimit="10"/>
<path d="M351.597 11.822V214.692" stroke="#494949" stroke-miterlimit="10"/>
<path d="M0 48.425H493.047" stroke="#494949" stroke-miterlimit="10"/>
<path d="M41.5188 0V190.29" stroke="#494949" stroke-miterlimit="10"/>
<path d="M370.292 17.051L438.465 206.431" stroke="#494949" stroke-miterlimit="10"/>
<path d="M453.48 23.114L386.809 213.177" stroke="#494949" stroke-miterlimit="10"/>
<path d="M485.84 18.2637L401.526 230" stroke="#494949" stroke-miterlimit="10"/>
<path d="M343.038 9.01831L417.592 215.905" stroke="#494949" stroke-miterlimit="10"/>
<path d="M67.5715 15.0046L66.7456 179.983" stroke="#494949" stroke-miterlimit="10"/>
<path d="M327.872 26.2966L327.046 191.199" stroke="#494949" stroke-miterlimit="10"/>
<path d="M89.4197 97.5325C72.9773 97.5325 65.5444 110.643 65.5444 123.753C65.5444 136.864 72.9773 150.201 89.4197 150.201C106.012 150.201 113.445 136.864 113.445 123.753C113.445 110.719 106.012 97.5325 89.4197 97.5325ZM89.4197 147.776C78.6083 147.776 67.5716 140.425 67.5716 123.829C67.5716 107.46 78.6083 99.8818 89.4197 99.8818C100.381 99.8818 111.418 107.46 111.418 123.829C111.418 140.425 100.456 147.776 89.4197 147.776ZM89.4197 97.5325C72.9773 97.5325 65.5444 110.643 65.5444 123.753C65.5444 136.864 72.9773 150.201 89.4197 150.201C106.012 150.201 113.445 136.864 113.445 123.753C113.445 110.719 106.012 97.5325 89.4197 97.5325ZM89.4197 147.776C78.6083 147.776 67.5716 140.425 67.5716 123.829C67.5716 107.46 78.6083 99.8818 89.4197 99.8818C100.381 99.8818 111.418 107.46 111.418 123.829C111.418 140.425 100.456 147.776 89.4197 147.776ZM126.509 89.348C118.776 80.9361 108.039 76.465 96.252 76.465C84.0891 76.465 74.1035 80.3299 68.4725 87.7566V47.7434H42.0446L42.1196 171.193H67.6467L67.5716 158.613C76.5811 169.071 84.6897 171.345 94.6753 171.345C121.779 171.345 138.672 153.308 138.672 124.435C138.672 110.264 134.467 98.2146 126.509 89.348ZM94.6753 168.92C84.6897 168.92 76.7313 166.646 67.5716 155.203L67.2713 154.824H65.5444V165.661H44.0717V50.2442H66.4454V91.8488H68.3224L68.4725 91.2426C73.2025 83.437 83.7137 78.7385 96.252 78.7385C120.127 78.7385 136.87 97.6083 136.87 124.435C136.795 145.958 125.683 168.92 94.6753 168.92ZM89.4197 97.5325C72.9773 97.5325 65.5444 110.643 65.5444 123.753C65.5444 136.864 72.9773 150.201 89.4197 150.201C106.012 150.201 113.445 136.864 113.445 123.753C113.445 110.719 106.012 97.5325 89.4197 97.5325ZM89.4197 147.776C78.6083 147.776 67.5716 140.425 67.5716 123.829C67.5716 107.46 78.6083 99.8818 89.4197 99.8818C100.381 99.8818 111.418 107.46 111.418 123.829C111.418 140.425 100.456 147.776 89.4197 147.776Z" fill="#32298D"/>
<path d="M96.177 78.7384C83.6387 78.7384 73.1276 83.4369 68.3975 91.2425L68.2474 91.8487H66.3704V50.2441H43.9967L43.9216 170.814H65.3944L65.4694 154.748H67.1963L67.4966 155.127C76.6563 166.57 84.6147 168.844 94.6003 168.844C125.608 168.844 136.72 145.882 136.72 124.359C136.795 97.5324 120.052 78.7384 96.177 78.7384ZM89.4198 150.201C72.9774 150.201 65.5445 136.864 65.5445 123.753C65.5445 110.643 72.9774 97.5324 89.4198 97.5324C106.012 97.5324 113.445 110.643 113.445 123.753C113.445 136.939 106.012 150.201 89.4198 150.201Z" fill="#32298D"/>
<path d="M197.234 95.4857C181.467 95.4857 172.382 105.716 172.382 123.374C172.382 141.031 181.542 151.262 197.234 151.262C213 151.262 222.16 141.031 222.16 123.374C222.16 105.792 213 95.4857 197.234 95.4857ZM197.234 148.837C182.518 148.837 174.41 139.818 174.41 123.449C174.41 107.08 182.518 98.0623 197.234 98.0623C211.949 98.0623 220.058 107.08 220.058 123.449C220.133 139.818 211.949 148.837 197.234 148.837ZM197.234 95.4857C181.467 95.4857 172.382 105.716 172.382 123.374C172.382 141.031 181.542 151.262 197.234 151.262C213 151.262 222.16 141.031 222.16 123.374C222.16 105.792 213 95.4857 197.234 95.4857ZM197.234 148.837C182.518 148.837 174.41 139.818 174.41 123.449C174.41 107.08 182.518 98.0623 197.234 98.0623C211.949 98.0623 220.058 107.08 220.058 123.449C220.133 139.818 211.949 148.837 197.234 148.837ZM233.497 86.6949C224.863 79.1167 212.7 75.4033 197.309 75.4033C181.767 75.4033 169.755 79.1167 161.12 86.6949C151.961 94.8794 147.231 107.156 147.231 123.374C147.231 139.591 151.961 151.868 161.12 160.052C169.755 167.403 181.767 171.344 197.309 171.344C212.7 171.344 224.938 167.479 233.497 160.052C242.657 151.868 247.387 139.591 247.387 123.374C247.387 107.156 242.582 94.8794 233.497 86.6949ZM197.234 168.919C175.235 168.919 149.183 161.113 149.183 123.449C149.183 85.7855 175.235 77.9799 197.234 77.9799C219.232 77.9799 245.285 85.7855 245.285 123.449C245.285 161.113 219.232 168.919 197.234 168.919ZM197.234 95.4857C181.467 95.4857 172.382 105.716 172.382 123.374C172.382 141.031 181.542 151.262 197.234 151.262C213 151.262 222.16 141.031 222.16 123.374C222.16 105.792 213 95.4857 197.234 95.4857ZM197.234 148.837C182.518 148.837 174.41 139.818 174.41 123.449C174.41 107.08 182.518 98.0623 197.234 98.0623C211.949 98.0623 220.058 107.08 220.058 123.449C220.133 139.818 211.949 148.837 197.234 148.837Z" fill="#32298D"/>
<path d="M197.234 77.9045C175.236 77.9045 149.183 85.7101 149.183 123.374C149.183 161.038 175.236 168.844 197.234 168.844C219.232 168.844 245.285 161.038 245.285 123.374C245.285 85.7101 219.232 77.9045 197.234 77.9045ZM197.234 151.262C181.467 151.262 172.383 141.031 172.383 123.374C172.383 105.717 181.542 95.4861 197.234 95.4861C213.001 95.4861 222.16 105.717 222.16 123.374C222.16 141.031 213.001 151.262 197.234 151.262Z" fill="#32298D"/>
<path d="M304.898 97.5323C288.305 97.5323 280.872 110.643 280.872 123.753C280.872 136.863 288.305 150.201 304.898 150.201C321.34 150.201 328.773 136.863 328.773 123.753C328.773 110.718 321.34 97.5323 304.898 97.5323ZM304.898 147.776C293.936 147.776 282.9 140.425 282.9 123.829C282.9 107.46 293.936 99.8815 304.898 99.8815C315.709 99.8815 326.746 107.46 326.746 123.829C326.746 140.425 315.709 147.776 304.898 147.776ZM304.898 97.5323C288.305 97.5323 280.872 110.643 280.872 123.753C280.872 136.863 288.305 150.201 304.898 150.201C321.34 150.201 328.773 136.863 328.773 123.753C328.773 110.718 321.34 97.5323 304.898 97.5323ZM304.898 147.776C293.936 147.776 282.9 140.425 282.9 123.829C282.9 107.46 293.936 99.8815 304.898 99.8815C315.709 99.8815 326.746 107.46 326.746 123.829C326.746 140.425 315.709 147.776 304.898 147.776ZM325.92 47.7432V87.6805C320.364 80.3296 310.379 76.389 298.141 76.389C286.278 76.389 275.617 80.8601 267.809 89.272C259.85 98.0627 255.646 110.188 255.646 124.283C255.646 152.778 272.238 171.193 298.141 171.193C306.249 171.193 317.812 169.753 326.746 158.689L326.671 170.966H352.123L352.273 47.7432H325.92ZM350.471 165.585H328.773V154.748H327.046L326.746 155.127C320.139 164.751 311.205 168.844 298.141 168.844C268.334 168.844 257.673 145.882 257.673 124.359C257.673 97.5323 274.265 78.6624 298.141 78.6624C310.829 78.6624 321.19 83.3609 325.92 91.1665L326.22 91.7728H327.947V50.244H350.471V165.585ZM304.898 97.5323C288.305 97.5323 280.872 110.643 280.872 123.753C280.872 136.863 288.305 150.201 304.898 150.201C321.34 150.201 328.773 136.863 328.773 123.753C328.773 110.718 321.34 97.5323 304.898 97.5323ZM304.898 147.776C293.936 147.776 282.9 140.425 282.9 123.829C282.9 107.46 293.936 99.8815 304.898 99.8815C315.709 99.8815 326.746 107.46 326.746 123.829C326.746 140.425 315.709 147.776 304.898 147.776Z" fill="#32298D"/>
<path d="M327.947 50.2441V91.8487H326.221L325.92 91.2425C321.19 83.4369 310.829 78.7384 298.141 78.7384C274.266 78.7384 257.673 97.6082 257.673 124.435C257.673 145.957 268.334 168.92 298.141 168.92C311.205 168.92 320.139 164.827 326.746 155.203L327.046 154.824H328.773V171.041H350.471V50.2441H327.947ZM304.898 150.201C288.305 150.201 280.873 136.864 280.873 123.753C280.873 110.643 288.305 97.5324 304.898 97.5324C321.34 97.5324 328.773 110.643 328.773 123.753C328.773 136.939 321.34 150.201 304.898 150.201Z" fill="#32298D"/>
<path d="M434.335 76.6918L413.538 135.651L392.215 76.6161L367.739 76.5403L399.723 165.66L397.546 171.572C394.993 176.876 392.666 179.983 386.885 179.983C383.356 179.983 379.602 179.604 376.373 179.377L375.397 179.15V202.112L376.373 202.339C381.629 202.567 387.71 202.945 393.642 202.945C406.48 202.945 414.289 199.838 420.595 183.924L463.015 76.7676H434.335V76.6918ZM418.643 182.787C413.388 196.504 407.682 200.445 393.567 200.445C388.011 200.445 382.38 200.217 377.349 199.838V181.802C380.202 182.029 383.581 182.408 386.809 182.408C393.416 182.408 396.42 178.695 399.348 172.557L401.9 165.585L373.37 80.5568L390.939 81.2388L413.538 141.637L434.71 81.163H458.585L418.643 182.787Z" fill="#32298D"/>
<path d="M459.712 78.8896L418.643 182.787C413.388 196.504 407.682 200.445 393.567 200.445C388.011 200.445 382.38 200.217 377.349 199.839V181.802C380.202 182.03 383.581 182.409 386.809 182.409C393.416 182.409 396.42 178.695 399.348 172.557L401.9 165.585L370.968 78.738L390.038 78.8896L413.613 141.562L435.536 78.8896H459.712Z" fill="#32298D"/>
</svg>
