<svg width="563" height="511" viewBox="0 0 563 511" fill="none" xmlns="http://www.w3.org/2000/svg">
<path d="M293.949 113.493L299.197 99.4291L293.949 113.493ZM293.949 113.493L299.197 99.4291L293.949 113.493ZM293.949 113.493L299.197 99.4291L293.949 113.493ZM293.949 113.493L299.197 99.4291L293.949 113.493ZM293.949 113.493L299.197 99.4291L293.949 113.493ZM293.949 113.493L299.197 99.4291L293.949 113.493ZM293.949 113.493L299.197 99.4291L293.949 113.493ZM293.949 113.493L299.197 99.4291L293.949 113.493ZM293.949 113.493L299.197 99.4291L293.949 113.493ZM183.115 0L0 491.968L367.699 501.204L550.813 9.30617L183.115 0ZM345.938 144.001L368.468 195.08L378.544 217.89L410.871 291.15L418.218 307.803L405.413 342.299L378.754 341.599L354.334 289.681L352.935 286.742L309.063 193.61L300.596 175.698L292.899 159.394L292.76 159.115L266.24 230.205L250.567 229.785L242.8 250.847L259.663 251.267L227.057 338.801L404.923 343.279L389.6 384.562L194.8 379.664L199.418 367.209L194.8 379.664L167.861 378.964L167.371 380.224L154.706 414.23L144.84 413.95L157.505 379.944L157.995 378.684L132.735 378.054L137.353 365.6H136.444L118.811 365.18L129.517 336.352L162.123 248.818L179.756 249.237H180.666L188.502 228.176H187.593L168.701 227.686L201.237 140.292L212.013 111.324L230.905 111.814H231.815L237.062 97.7498L261.063 98.3795L261.552 97.0501L273.587 64.7234L283.453 65.0033L271.488 97.3299L270.998 98.6594L299.127 99.3591L493.927 104.257L478.183 146.59L299.057 142.042L298.777 142.741L345.938 144.001ZM293.949 113.493L299.197 99.4291L293.949 113.493ZM293.949 113.493L299.197 99.4291L293.949 113.493ZM293.949 113.493L299.197 99.4291L293.949 113.493ZM293.949 113.493L299.197 99.4291L293.949 113.493ZM293.949 113.493L299.197 99.4291L293.949 113.493ZM293.949 113.493L299.197 99.4291L293.949 113.493ZM293.949 113.493L299.197 99.4291L293.949 113.493ZM293.949 113.493L299.197 99.4291L293.949 113.493ZM293.949 113.493L299.197 99.4291L293.949 113.493ZM293.949 113.493L299.197 99.4291L293.949 113.493Z" fill="#171D4D"/>
<path d="M493.997 104.327L478.183 146.659L299.057 142.111L309.553 113.843L293.949 113.493L299.197 99.3589L493.997 104.327Z" fill="#4E668D" stroke="white" stroke-width="3" stroke-miterlimit="10"/>
<path d="M421.996 101.109L329.215 98.7995L299.687 98.0298L271.488 97.3301" stroke="white" stroke-miterlimit="10"/>
<path d="M261.622 97.1202L236.712 96.4904L236.433 96.4205L186.823 95.231" stroke="white" stroke-miterlimit="10"/>
<path d="M404.993 343.279L389.669 384.562L194.87 379.664L199.488 367.209L216.351 367.629L227.126 338.801L404.993 343.279Z" fill="#4E668D" stroke="white" stroke-width="3" stroke-miterlimit="10"/>
<path d="M84.875 378.194L131.196 379.314H131.406L157.575 380.014" stroke="white" stroke-miterlimit="10"/>
<path d="M167.511 380.224L194.38 380.923L223.908 381.693L316.69 384.002" stroke="white" stroke-miterlimit="10"/>
<path d="M199.488 367.209L194.87 379.664L167.931 378.964L172.549 366.579L162.683 366.369L158.065 378.684L132.805 378.054L137.423 365.669L199.488 367.209Z" fill="#4E668D" stroke="white" stroke-width="3" stroke-miterlimit="10"/>
<path d="M250.637 229.785L242.8 250.847L180.736 249.307L188.572 228.246L250.637 229.785Z" fill="#4E668D" stroke="white" stroke-width="3" stroke-miterlimit="10"/>
<path d="M136.514 365.6L131.546 379.034L131.406 379.314L116.572 419.337" stroke="white" stroke-miterlimit="10"/>
<path d="M252.736 53.458L236.712 96.4203V96.4903L236.573 96.7702L230.975 111.884" stroke="white" stroke-miterlimit="10"/>
<path d="M187.663 228.246L179.826 249.237" stroke="white" stroke-miterlimit="10"/>
<path d="M299.197 99.3592L293.949 113.493L231.885 111.884L237.132 97.8198L261.132 98.4496L255.885 112.444L265.821 112.724L270.998 98.6595L299.197 99.3592Z" fill="#4E668D" stroke="white" stroke-miterlimit="10"/>
<path d="M315.36 55.9771L299.687 98.0298L299.547 98.3796L299.197 99.3592" stroke="white" stroke-miterlimit="10"/>
<path d="M194.87 379.664L194.52 380.644L194.38 380.924L178.566 423.536" stroke="white" stroke-miterlimit="10"/>
<path d="M418.218 307.734L405.413 342.229L378.754 341.53L354.334 289.681L352.935 286.742L309.063 193.611L300.596 175.698L292.899 159.325L292.759 159.045L298.777 142.812L345.937 144.001L368.468 195.08L378.544 217.891L410.871 291.15L418.218 307.734Z" fill="#4E668D" stroke="white" stroke-width="3" stroke-miterlimit="10"/>
<path d="M345.938 144.001L405.483 145.54L477.903 147.36" stroke="white" stroke-miterlimit="10"/>
<path d="M201.307 140.362L170.87 139.593" stroke="white" stroke-miterlimit="10"/>
<path d="M129.656 336.352L100.269 335.582" stroke="white" stroke-miterlimit="10"/>
<path d="M83.3356 354.474L76.4784 349.856L75.079 353.704L79.2773 356.293L73.1198 359.022L71.6504 363.011L81.5163 358.602L88.5834 363.29L90.0528 359.442L85.7146 356.783L92.082 353.984L93.5514 349.996L83.3356 354.474Z" fill="white"/>
<path d="M143.581 428.643L136.724 424.025L135.324 427.874L139.522 430.463L133.365 433.192L131.896 437.18L141.761 432.772L148.829 437.46L150.298 433.611L145.96 430.953L152.327 428.154L153.796 424.165L143.581 428.643Z" fill="white"/>
<path d="M286.952 44.5717L280.095 39.9536L278.695 43.802L282.893 46.391L276.736 49.1198L275.267 53.1082L285.133 48.7L292.2 53.3881L293.669 49.5397L289.331 46.8808L295.698 44.0819L297.168 40.0936L286.952 44.5717Z" fill="white"/>
<path d="M170.52 114.613L163.662 109.995L162.263 113.844L166.461 116.432L160.304 119.161L158.834 123.15L168.7 118.742L175.768 123.43L177.237 119.581L172.899 116.922L179.266 114.123L180.735 110.135L170.52 114.613Z" fill="white"/>
<path d="M309.552 113.844L299.057 142.112L298.777 142.812L292.759 159.045L266.24 230.206L250.637 229.786L188.572 228.246H187.662L168.77 227.757L201.307 140.363L212.082 111.395L230.975 111.884H231.884L293.949 113.494L309.552 113.844Z" fill="#0057FF" stroke="white" stroke-width="3" stroke-miterlimit="10"/>
<path d="M283.523 65.0035L271.488 97.3302L270.998 98.6597L265.82 112.724L255.885 112.444L261.132 98.4498L261.622 97.1203L273.657 64.7236L283.523 65.0035Z" fill="#0057FF" stroke="white" stroke-width="3" stroke-miterlimit="10"/>
<path d="M259.663 251.267L227.126 338.801L216.351 367.629L199.488 367.209L137.423 365.67L136.514 365.6L118.881 365.18L129.656 336.352L162.193 248.818L179.826 249.238L180.735 249.308L242.8 250.847L259.663 251.267Z" fill="#0057FF" stroke="white" stroke-width="3" stroke-miterlimit="10"/>
<path d="M172.549 366.579L167.931 378.964L167.511 380.223L154.776 414.299L144.91 414.02L157.575 380.014L158.065 378.684L162.683 366.369L172.549 366.579Z" fill="#0057FF" stroke="white" stroke-width="3" stroke-miterlimit="10"/>
<path d="M51.0185 455.986L49.4576 460.18L43.1417 460.021L36.588 477.63L30.9301 477.487L37.4837 459.878L31.2336 459.72L32.7945 455.526L51.0185 455.986ZM63.3932 460.749C65.4985 460.802 66.9203 461.502 67.6587 462.849C68.419 464.196 68.3707 466.021 67.5137 468.324L63.795 478.316L58.1699 478.174L61.659 468.799C62.0875 467.648 62.0914 466.745 61.6707 466.091C61.2796 465.417 60.5468 465.067 59.4722 465.04C58.3318 465.011 57.2955 465.327 56.3631 465.988C55.4527 466.65 54.7641 467.608 54.2974 468.862L50.9 477.991L45.275 477.849L53.7683 455.028L59.3934 455.17L56.1338 463.928C57.0427 462.913 58.1234 462.121 59.3761 461.551C60.6506 460.981 61.9896 460.714 63.3932 460.749ZM88.3138 469.783C88.1531 470.214 87.9223 470.686 87.6214 471.197L74.8909 470.876C74.4746 472.173 74.4774 473.117 74.8991 473.709C75.3285 474.28 76.0366 474.578 77.0235 474.603C77.8568 474.624 78.6203 474.446 79.3139 474.069C80.0076 473.692 80.5569 473.198 80.9619 472.586L86.9159 472.736C86.2232 473.943 85.2914 475.019 84.1203 475.965C82.9569 476.89 81.6469 477.615 80.1903 478.138C78.7414 478.641 77.2493 478.873 75.7142 478.835C73.9159 478.789 72.4451 478.399 71.3017 477.665C70.1879 476.91 69.485 475.855 69.1929 474.499C68.9007 473.143 69.0875 471.57 69.7532 469.781C70.4265 467.972 71.3919 466.419 72.6491 465.123C73.936 463.806 75.4112 462.816 77.0749 462.153C78.7463 461.469 80.4811 461.149 82.2793 461.195C84.0995 461.24 85.5704 461.63 86.6918 462.364C87.8132 463.098 88.5096 464.112 88.7808 465.405C89.0816 466.679 88.9259 468.138 88.3138 469.783ZM82.9213 468.837C83.3641 467.707 83.3489 466.856 82.8756 466.284C82.432 465.691 81.7167 465.383 80.7299 465.358C79.6992 465.332 78.7368 465.598 77.8427 466.157C76.9486 466.715 76.2511 467.548 75.7502 468.656L82.9213 468.837ZM107.916 461.841C109.319 461.877 110.415 462.205 111.201 462.827C111.988 463.448 112.432 464.279 112.532 465.319L113.691 462.205L119.283 462.346L112.879 479.554L107.286 479.413L108.446 476.298C107.581 477.314 106.533 478.107 105.302 478.678C104.071 479.249 102.754 479.517 101.351 479.481C99.8375 479.443 98.6079 479.059 97.6619 478.33C96.7455 477.58 96.1851 476.529 95.9806 475.174C95.7982 473.821 96.0398 472.25 96.7055 470.461C97.3788 468.652 98.3003 467.098 99.4698 465.799C100.669 464.481 101.991 463.487 103.435 462.818C104.909 462.128 106.403 461.803 107.916 461.841ZM108.003 466.513C106.797 466.482 105.684 466.828 104.663 467.549C103.663 468.271 102.919 469.29 102.429 470.606C101.94 471.921 101.919 472.958 102.367 473.717C102.837 474.476 103.675 474.87 104.882 474.901C106.066 474.931 107.172 474.575 108.201 473.833C109.252 473.092 110.014 472.084 110.489 470.809C110.971 469.514 110.966 468.486 110.474 467.727C110.011 466.947 109.188 466.543 108.003 466.513ZM131.526 462.437C133.894 462.496 135.649 463.163 136.791 464.437C137.941 465.691 138.326 467.392 137.947 469.54L131.993 469.39C132.093 468.646 131.945 468.061 131.55 467.636C131.155 467.211 130.54 466.988 129.707 466.967C128.72 466.942 127.771 467.291 126.86 468.015C125.956 468.719 125.244 469.77 124.723 471.168C124.203 472.566 124.123 473.643 124.484 474.399C124.852 475.135 125.529 475.515 126.516 475.54C127.35 475.561 128.117 475.373 128.818 474.975C129.52 474.578 130.096 474.012 130.547 473.276L136.501 473.426C135.288 475.554 133.652 477.214 131.592 478.407C129.54 479.58 127.329 480.136 124.961 480.077C123.162 480.031 121.692 479.641 120.548 478.907C119.434 478.153 118.731 477.097 118.439 475.741C118.147 474.385 118.334 472.812 119 471.023C119.673 469.214 120.638 467.661 121.896 466.365C123.182 465.049 124.658 464.058 126.321 463.395C127.993 462.711 129.728 462.391 131.526 462.437ZM149.04 475.89L147.353 480.423L144.82 480.36C142.67 480.305 141.176 479.77 140.338 478.752C139.528 477.715 139.552 476.045 140.409 473.742L142.762 467.42L140.295 467.358L141.948 462.917L144.415 462.98L145.987 458.755L151.612 458.897L150.04 463.121L153.724 463.214L152.071 467.655L148.387 467.562L146 473.977C145.747 474.655 145.714 475.132 145.899 475.406C146.107 475.681 146.562 475.828 147.263 475.845L149.04 475.89ZM175.175 463.755L168.771 480.964L163.113 480.821L164.272 477.706C163.371 478.7 162.283 479.482 161.008 480.052C159.756 480.622 158.439 480.89 157.057 480.855C154.952 480.802 153.519 480.102 152.759 478.754C152.02 477.408 152.08 475.583 152.937 473.28L156.655 463.288L162.248 463.429L158.77 472.774C158.334 473.946 158.311 474.868 158.702 475.542C159.123 476.196 159.882 476.537 160.978 476.565C162.119 476.594 163.144 476.277 164.054 475.615C164.965 474.953 165.653 473.995 166.12 472.741L169.517 463.613L175.175 463.755ZM186.106 463.813C187.51 463.849 188.605 464.177 189.392 464.799C190.179 465.421 190.622 466.251 190.722 467.292L191.881 464.177L197.473 464.318L191.069 481.526L185.477 481.385L186.636 478.27C185.771 479.286 184.723 480.079 183.492 480.65C182.262 481.221 180.945 481.489 179.541 481.453C178.028 481.415 176.798 481.031 175.852 480.302C174.936 479.552 174.376 478.501 174.171 477.147C173.989 475.793 174.23 474.222 174.896 472.433C175.569 470.624 176.491 469.07 177.66 467.771C178.859 466.453 180.181 465.459 181.626 464.79C183.1 464.101 184.593 463.775 186.106 463.813ZM186.194 468.485C184.988 468.454 183.874 468.8 182.853 469.521C181.854 470.243 181.109 471.262 180.62 472.578C180.13 473.893 180.109 474.931 180.558 475.689C181.028 476.448 181.866 476.843 183.072 476.873C184.256 476.903 185.363 476.547 186.391 475.805C187.442 475.064 188.205 474.056 188.679 472.781C189.161 471.486 189.156 470.458 188.664 469.699C188.201 468.919 187.378 468.515 186.194 468.485ZM207.024 477.353L205.337 481.886L202.804 481.822C200.655 481.768 199.161 481.232 198.322 480.215C197.513 479.178 197.536 477.508 198.393 475.205L200.746 468.883L198.279 468.821L199.932 464.38L202.399 464.442L203.971 460.217L209.597 460.359L208.024 464.584L211.708 464.677L210.056 469.118L206.371 469.025L203.984 475.439C203.732 476.118 203.698 476.594 203.884 476.869C204.091 477.144 204.546 477.29 205.248 477.308L207.024 477.353ZM223.569 464.758C225.389 464.804 226.878 465.205 228.036 465.96C229.223 466.696 229.973 467.742 230.288 469.099C230.624 470.456 230.459 472.029 229.793 473.818C229.127 475.607 228.129 477.159 226.798 478.474C225.49 479.79 223.978 480.789 222.262 481.472C220.577 482.135 218.824 482.444 217.004 482.398C215.183 482.352 213.68 481.961 212.493 481.226C211.313 480.47 210.555 479.413 210.219 478.056C209.905 476.699 210.081 475.126 210.747 473.337C211.412 471.549 212.4 469.997 213.708 468.681C215.039 467.365 216.558 466.376 218.266 465.714C219.981 465.031 221.749 464.712 223.569 464.758ZM221.87 469.322C220.796 469.295 219.748 469.642 218.727 470.364C217.735 471.065 216.983 472.104 216.47 473.482C215.958 474.859 215.929 475.917 216.385 476.655C216.863 477.393 217.639 477.776 218.714 477.803C219.788 477.83 220.821 477.493 221.813 476.792C222.804 476.09 223.557 475.051 224.069 473.674C224.582 472.296 224.61 471.238 224.154 470.501C223.706 469.742 222.945 469.349 221.87 469.322ZM240.332 468.667C241.424 467.636 242.633 466.826 243.959 466.237C245.307 465.649 246.628 465.371 247.922 465.403L245.822 471.047L244.21 471.006C242.718 470.969 241.445 471.238 240.39 471.813C239.357 472.389 238.576 473.386 238.048 474.804L235.133 482.637L229.508 482.496L235.912 465.287L241.537 465.429L240.332 468.667Z" fill="white"/>
<path d="M367.699 501.274L374.836 510.3L562.149 11.6852L550.813 9.30615L367.699 501.274Z" fill="#4E668D"/>
<path d="M374.836 510.3L4.82801 500.784L0 491.968L367.699 501.274L374.836 510.3Z" fill="#4E668D"/>
</svg>
