<svg width="552" height="500" viewBox="0 0 552 500" fill="none" xmlns="http://www.w3.org/2000/svg">
<path d="M540.869 9.11833L361.06 491.156L0 482.038L179.809 0L540.869 9.11833Z" fill="#171D4D"/>
<path d="M552 11.4492L368.069 500L361.061 491.156L540.869 9.11816L552 11.4492Z" fill="#4E668D"/>
<path d="M368.069 500L4.74085 490.676L0 482.038L361.06 491.156L368.069 500Z" fill="#4E668D"/>
<path d="M262.052 90.4292L173.213 309.886H174.037L173.968 309.749L262.533 90.9777L400.155 93.103L400.361 92.486L262.052 90.4292ZM174.037 309.749L182.488 288.907H181.732L173.213 309.886H174.037V309.749ZM174.037 309.749L182.488 288.907H181.732L173.213 309.886H174.037V309.749ZM174.037 309.749L182.488 288.907H181.732L173.213 309.886H174.037V309.749ZM174.037 309.749L182.488 288.907H181.732L173.213 309.886H174.037V309.749ZM174.037 309.749L182.488 288.907H181.732L173.213 309.886H174.037V309.749ZM187.847 335.253L134.324 334.43L134.393 334.567L187.847 335.39V335.253ZM174.037 309.749L182.488 288.907H181.732L173.213 309.886H174.037V309.749ZM174.037 309.749L182.488 288.907H181.732L173.213 309.886H174.037V309.749ZM174.037 309.749L182.488 288.907H181.732L173.213 309.886H174.037V309.749ZM174.037 309.749L182.488 288.907H181.732L173.213 309.886H174.037V309.749ZM174.037 309.749L182.488 288.907H181.732L173.213 309.886H174.037V309.749ZM277.718 336.693L277.511 336.83L330.966 337.653L331.172 337.515L277.718 336.693ZM174.037 309.749L182.488 288.907H181.732L173.213 309.886H174.037V309.749Z" stroke="white" stroke-width="3" stroke-miterlimit="10"/>
<path d="M301.422 337.173L290.291 364.665L263.083 382.696L241.646 396.956L195.955 427.328H195.68L175.137 396.202L165.243 381.187L152.257 361.648L163.044 335.047L187.916 335.39L194.65 347.936L213.063 381.942L213.682 383.107L215.262 381.942L261.228 348.622L277.511 336.83L301.422 337.173Z" fill="#4E668D" stroke="white" stroke-width="3" stroke-miterlimit="10"/>
<path d="M229.072 173.728L228.797 173.865" stroke="white" stroke-width="3" stroke-miterlimit="10"/>
<path d="M400.705 93.1714L400.018 93.4456" stroke="white" stroke-width="3" stroke-miterlimit="10"/>
<path d="M218.079 201.015L217.804 201.152" stroke="white" stroke-width="3" stroke-miterlimit="10"/>
<path d="M387.788 123.68L388.475 123.406L388.681 123.269" stroke="white" stroke-width="3" stroke-miterlimit="10"/>
<path d="M324.095 282.257L323.752 282.051" stroke="white" stroke-width="3" stroke-miterlimit="10"/>
<path d="M217.667 202.043L217.529 201.975" stroke="white" stroke-width="3" stroke-miterlimit="10"/>
<path d="M205.643 231.661H205.574" stroke="white" stroke-width="3" stroke-miterlimit="10"/>
<path d="M284.588 290.896L284.107 290.553" stroke="white" stroke-width="3" stroke-miterlimit="10"/>
<path d="M312.278 311.6L311.865 311.326" stroke="white" stroke-width="3" stroke-miterlimit="10"/>
<path d="M443.235 62.2517L430.799 93.0346L400.43 92.5547L412.866 61.8403L443.235 62.2517Z" fill="#4E668D" stroke="white" stroke-width="3" stroke-miterlimit="10"/>
<path d="M430.799 93.0341L341.96 312.491L311.728 312.011L312.278 311.6L400.705 93.1712H400.155L400.43 92.5542L430.799 93.0341Z" fill="#4E668D" stroke="white" stroke-width="3" stroke-miterlimit="10"/>
<path d="M330.966 337.653L290.291 364.665L301.422 337.173L330.966 337.653Z" fill="#4E668D" stroke="white" stroke-width="3" stroke-miterlimit="10"/>
<path d="M341.96 312.491L332.134 336.898L331.172 337.515L301.422 337.035L311.522 312.148L311.728 312.011L341.96 312.491Z" fill="#4E668D" stroke="white" stroke-width="2" stroke-miterlimit="10"/>
<path d="M454.366 37.1592L444.472 61.7033L444.403 61.8404L431.761 93.0347L425.852 107.706L407.232 153.641L388.612 199.644L369.992 245.578L351.441 291.581L342.921 312.492L332.821 337.516L332.753 337.653L314.201 383.519L295.582 429.453L293.177 435.486" stroke="white" stroke-miterlimit="10"/>
<path d="M262.052 90.4291L173.213 309.886L144.081 309.406L232.92 89.9492L262.052 90.4291Z" fill="#4E668D" stroke="white" stroke-width="3" stroke-miterlimit="10"/>
<path d="M173.213 309.886L163.113 334.91L134.324 334.43L134.118 334.087L144.081 309.406L173.213 309.886Z" fill="#4E668D" stroke="white" stroke-width="2" stroke-miterlimit="10"/>
<path d="M163.044 335.047L152.257 361.648L134.461 334.567L163.044 335.047Z" fill="#4E668D" stroke="white" stroke-width="3" stroke-miterlimit="10"/>
<path d="M254.013 35.7192L244.738 58.6179L244.669 58.755L232.027 89.9493L226.118 104.552L207.498 150.555L188.878 196.49L170.258 242.493L151.707 288.496L143.187 309.406L133.087 334.43L133.019 334.567L114.467 380.365L95.8476 426.368L94.1299 430.687" stroke="white" stroke-miterlimit="10"/>
<path d="M274.488 59.6462L262.052 90.4292L232.92 89.9493L245.356 59.2349L274.488 59.6462Z" fill="#4E668D" stroke="white" stroke-width="3" stroke-miterlimit="10"/>
<path d="M412.866 61.8399L400.43 92.5543L262.052 90.4289L274.488 59.646L412.866 61.8399Z" fill="#4E668D" stroke="white" stroke-width="3" stroke-miterlimit="10"/>
<path d="M474.772 62.3202L444.403 61.8403H444.128L413.072 61.3603L377.688 60.8119L311.316 59.7835L274.695 59.235L244.875 58.7551H244.669L216.43 58.3438" stroke="white" stroke-miterlimit="10"/>
<path d="M430.799 93.0342H431.486H431.761L461.443 93.5141" stroke="white" stroke-miterlimit="10"/>
<path d="M232.92 89.9492H232.233H232.027L201.933 89.4692" stroke="white" stroke-miterlimit="10"/>
<path d="M261.777 435.074L264.251 428.973L282.871 383.038L290.291 364.665" stroke="white" stroke-miterlimit="10"/>
<path d="M311.522 312.148L311.591 312.011L311.865 311.326" stroke="white" stroke-miterlimit="10"/>
<path d="M400.018 93.4456L400.155 93.1714" stroke="white" stroke-miterlimit="10"/>
<path d="M400.018 93.4458L387.788 123.68L344.227 143.494L324.783 152.406L262.258 180.858L226.599 197.107L218.079 201.015L229.072 173.728L273.595 152.818L276.206 151.652L356.182 114.082L371.573 106.815L400.018 93.4458Z" fill="#4E668D" stroke="white" stroke-width="3" stroke-miterlimit="10"/>
<path d="M323.752 282.051L338.662 245.098L357.281 199.164L375.901 153.161L387.788 123.68" stroke="white" stroke-miterlimit="10"/>
<path d="M311.522 312.148L301.422 337.035L277.718 336.693L311.522 312.148Z" fill="#4E668D" stroke="white" stroke-width="2" stroke-miterlimit="10"/>
<path d="M301.422 337.172V337.035" stroke="white" stroke-miterlimit="10"/>
<path d="M412.866 61.84L413.072 61.3601V61.223L422.898 36.9531" stroke="white" stroke-miterlimit="10"/>
<path d="M187.847 335.253L163.113 334.91L173.213 309.886H174.106L187.847 335.253Z" fill="#4E668D" stroke="white" stroke-width="3" stroke-miterlimit="10"/>
<path d="M124.018 431.441L125.873 426.847L144.493 380.844L152.257 361.648" stroke="white" stroke-miterlimit="10"/>
<path d="M163.044 335.047L163.113 334.91" stroke="white" stroke-miterlimit="10"/>
<path d="M274.488 59.6462L274.694 59.2348L274.763 59.0977L284.107 35.9248" stroke="white" stroke-miterlimit="10"/>
<path d="M330.966 337.652H332.478H332.753L362.022 338.132" stroke="white" stroke-miterlimit="10"/>
<path d="M277.511 336.83L266.106 336.624L199.665 335.596L187.916 335.39" stroke="white" stroke-miterlimit="10"/>
<path d="M134.461 334.568H133.225H133.018L108.696 334.156" stroke="white" stroke-miterlimit="10"/>
<path d="M372.191 312.971L342.921 312.491H342.715H341.959" stroke="white" stroke-miterlimit="10"/>
<path d="M118.727 308.995L143.187 309.406H143.393H144.081" stroke="white" stroke-miterlimit="10"/>
<path d="M284.588 290.895L311.865 311.326L323.752 282.051L296.475 261.484L273.389 244.07L245.287 222.885L217.667 202.043L205.643 231.66L221.102 243.247L233.332 252.434L284.107 290.552L284.588 290.895Z" fill="#4E668D" stroke="white" stroke-width="3" stroke-miterlimit="10"/>
<path d="M174.106 309.886L209.834 310.435L276.275 311.463L311.591 312.012H311.728" stroke="white" stroke-miterlimit="10"/>
<path d="M271.397 35.0338L270.366 32.4286L267.549 35.0338L264.801 34.9653L269.679 30.7146L268.099 26.6011L270.916 26.6696L271.877 29.2063L274.626 26.7382L277.305 26.8068L272.496 30.9888L274.145 35.1709L271.397 35.0338Z" fill="white"/>
<path d="M280.878 434.389L279.848 431.784L277.031 434.389L274.282 434.321L279.16 430.07L277.58 425.957L280.397 426.025L281.359 428.562L284.107 426.094L286.787 426.162L281.978 430.344L283.627 434.526L280.878 434.389Z" fill="white"/>
<path d="M111.307 431.373L110.276 428.767L107.459 431.373L104.711 431.304L109.589 427.053L108.009 422.94L110.826 423.008L111.788 425.545L114.536 423.077L117.216 423.146L112.406 427.328L114.055 431.51L111.307 431.373Z" fill="white"/>
<path d="M441.105 36.6105L440.075 34.0052L437.258 36.6105L434.509 36.5419L439.388 32.2913L437.807 28.1777L440.624 28.2463L441.586 30.783L444.335 28.3149L447.014 28.3834L442.205 32.5655L443.854 36.7476L441.105 36.6105Z" fill="white"/>
<path d="M240.89 97.6963L259.991 50.5278L340.242 51.7619L321.141 98.999L240.89 97.6963Z" fill="#4E668D" stroke="white" stroke-width="3" stroke-miterlimit="10"/>
<path d="M216.567 76.0315L218.491 71.2324L251.402 71.7123L249.479 76.5115L216.567 76.0315Z" fill="#4E668D" stroke="white" stroke-width="3" stroke-miterlimit="10"/>
<path d="M435.196 52.653L416.095 99.8215L335.913 98.5875L355.014 51.4189L435.196 52.653Z" fill="#4E668D" stroke="white" stroke-width="3" stroke-miterlimit="10"/>
<path d="M459.587 74.3864L457.664 79.1855L424.752 78.637L426.676 73.8379L459.587 74.3864Z" fill="#4E668D" stroke="white" stroke-width="3" stroke-miterlimit="10"/>
<path d="M472.436 116.07L441.243 115.59C435.677 115.522 432.723 111.614 434.647 106.815L457.114 51.3507C459.038 46.6201 465.084 42.8494 470.65 42.9179L501.843 43.3978C507.408 43.4664 510.363 47.3742 508.439 52.1734L486.04 107.638C484.116 112.368 478.001 116.139 472.436 116.07Z" fill="#0057FF" stroke="white" stroke-width="3" stroke-miterlimit="10"/>
<path d="M205.574 111.888L174.381 111.408C168.815 111.34 165.861 107.432 167.785 102.633L190.252 47.1685C192.176 42.438 198.222 38.6672 203.788 38.7358L234.981 39.2157C240.547 39.2843 243.501 43.1921 241.577 47.9912L219.178 103.455C217.255 108.186 211.139 112.025 205.574 111.888Z" fill="#0057FF" stroke="white" stroke-width="3" stroke-miterlimit="10"/>
<path d="M142.706 324.832L115.979 324.421L117.903 319.69L144.63 320.101L142.706 324.832Z" fill="#4E668D" stroke="white" stroke-width="2" stroke-miterlimit="10"/>
<path d="M357.213 328.123L330.485 327.712L332.409 322.981L359.137 323.392L357.213 328.123Z" fill="#4E668D" stroke="white" stroke-width="2" stroke-miterlimit="10"/>
<path d="M372.329 363.02L341.135 362.54C335.57 362.471 332.615 358.563 334.539 353.764L357.007 298.3C358.93 293.569 364.977 289.799 370.542 289.867L401.736 290.347C407.301 290.416 410.255 294.323 408.332 299.123L385.864 354.587C384.009 359.386 377.894 363.157 372.329 363.02Z" fill="#0057FF" stroke="white" stroke-width="3" stroke-miterlimit="10"/>
<path d="M105.467 358.906L74.2733 358.426C68.7079 358.357 65.7535 354.449 67.6773 349.65L90.1448 294.186C92.0687 289.456 98.115 285.685 103.68 285.753L134.874 286.233C140.439 286.302 143.394 290.21 141.47 295.009L119.002 350.473C117.147 355.204 111.032 358.974 105.467 358.906Z" fill="#0057FF" stroke="white" stroke-width="3" stroke-miterlimit="10"/>
<path d="M43.6728 450.106L42.0461 454.125L35.9262 454.029L29.0964 470.902L23.614 470.817L30.4438 453.944L24.3877 453.85L26.0144 449.831L43.6728 450.106ZM55.5433 454.542C57.5833 454.574 58.9431 455.23 59.6227 456.509C60.3236 457.789 60.2275 459.531 59.3344 461.738L55.4591 471.312L50.0085 471.227L53.6447 462.244C54.0912 461.141 54.1194 460.279 53.7291 459.658C53.368 459.019 52.6668 458.69 51.6256 458.674C50.5206 458.657 49.5072 458.968 48.5853 459.608C47.6847 460.248 46.9912 461.169 46.5048 462.371L42.9643 471.118L37.5138 471.033L46.3649 449.166L51.8155 449.251L48.4185 457.643C49.3272 456.666 50.3965 455.9 51.6265 455.344C52.8778 454.789 54.1834 454.521 55.5433 454.542ZM79.4639 462.943C79.2964 463.356 79.0599 463.809 78.7543 464.299L66.4189 464.108C65.9803 465.35 65.9575 466.251 66.3504 466.813C66.7514 467.354 67.4299 467.632 68.3862 467.647C69.1937 467.66 69.9388 467.483 70.6215 467.117C71.3043 466.751 71.8503 466.274 72.2595 465.685L78.0287 465.775C77.3245 466.934 76.3919 467.97 75.2309 468.883C74.0779 469.777 72.7881 470.481 71.3616 470.994C69.943 471.487 68.49 471.722 67.0025 471.699C65.26 471.672 63.8444 471.313 62.7555 470.622C61.6959 469.912 61.0427 468.911 60.7961 467.618C60.5494 466.326 60.7729 464.823 61.4667 463.109C62.1684 461.375 63.1463 459.884 64.4003 458.635C65.6836 457.366 67.1408 456.408 68.7719 455.759C70.411 455.091 72.1018 454.77 73.8442 454.797C75.6079 454.825 77.0236 455.184 78.0912 455.874C79.1588 456.565 79.8067 457.526 80.0348 458.759C80.2921 459.972 80.1018 461.367 79.4639 462.943ZM74.2606 462.089C74.7204 461.006 74.7286 460.193 74.2852 459.651C73.8709 459.089 73.1857 458.801 72.2295 458.786C71.2307 458.771 70.2904 459.034 69.4084 459.575C68.5264 460.116 67.8276 460.918 67.312 461.981L74.2606 462.089ZM117.853 455.689L106.621 472.107L100.533 472.012L101.787 460.911L94.0627 471.912L87.9747 471.817L90.0909 455.258L95.5414 455.342L93.0918 467.258L101.215 455.431L107.016 455.521L105.606 467.482L112.785 455.61L117.853 455.689ZM131.183 455.718C133.223 455.75 134.583 456.405 135.262 457.684C135.963 458.964 135.867 460.707 134.974 462.913L131.098 472.487L125.648 472.403L129.284 463.42C129.731 462.316 129.759 461.455 129.369 460.834C129.007 460.194 128.306 459.866 127.265 459.85C126.16 459.833 125.147 460.144 124.225 460.784C123.324 461.424 122.631 462.345 122.144 463.547L118.604 472.293L113.153 472.208L122.004 450.342L127.455 450.427L124.058 458.819C124.967 457.842 126.036 457.075 127.266 456.519C128.517 455.964 129.823 455.697 131.183 455.718ZM155.103 464.118C154.936 464.532 154.699 464.984 154.394 465.475L142.058 465.283C141.62 466.525 141.597 467.427 141.99 467.988C142.391 468.53 143.069 468.808 144.026 468.823C144.833 468.835 145.578 468.658 146.261 468.292C146.944 467.926 147.49 467.449 147.899 466.861L153.668 466.95C152.964 468.109 152.031 469.145 150.87 470.059C149.717 470.953 148.428 471.656 147.001 472.169C145.582 472.663 144.129 472.898 142.642 472.875C140.899 472.848 139.484 472.489 138.395 471.798C137.335 471.088 136.682 470.086 136.436 468.794C136.189 467.501 136.412 465.998 137.106 464.285C137.808 462.551 138.786 461.06 140.04 459.81C141.323 458.542 142.78 457.583 144.411 456.935C146.05 456.266 147.741 455.946 149.484 455.973C151.247 456 152.663 456.359 153.731 457.05C154.798 457.74 155.446 458.702 155.674 459.934C155.932 461.148 155.741 462.542 155.103 464.118ZM149.9 463.264C150.36 462.181 150.368 461.368 149.925 460.826C149.51 460.265 148.825 459.977 147.869 459.962C146.87 459.946 145.93 460.209 145.048 460.751C144.166 461.292 143.467 462.094 142.951 463.156L149.9 463.264ZM174.838 464.425C174.671 464.839 174.434 465.291 174.128 465.782L161.793 465.59C161.354 466.832 161.332 467.734 161.725 468.295C162.126 468.836 162.804 469.114 163.76 469.129C164.568 469.142 165.313 468.965 165.996 468.599C166.678 468.233 167.224 467.756 167.634 467.167L173.403 467.257C172.699 468.416 171.766 469.452 170.605 470.366C169.452 471.26 168.162 471.963 166.736 472.476C165.317 472.969 163.864 473.205 162.377 473.181C160.634 473.154 159.219 472.795 158.13 472.104C157.07 471.394 156.417 470.393 156.17 469.101C155.924 467.808 156.147 466.305 156.841 464.591C157.543 462.858 158.52 461.366 159.775 460.117C161.058 458.848 162.515 457.89 164.146 457.241C165.785 456.573 167.476 456.252 169.218 456.279C170.982 456.307 172.398 456.666 173.465 457.356C174.533 458.047 175.181 459.008 175.409 460.241C175.666 461.454 175.476 462.849 174.838 464.425ZM169.635 463.571C170.095 462.488 170.103 461.675 169.659 461.133C169.245 460.571 168.56 460.283 167.604 460.268C166.605 460.253 165.665 460.516 164.783 461.057C163.901 461.599 163.202 462.4 162.686 463.463L169.635 463.571ZM188.464 451.375L179.613 473.241L174.163 473.156L183.014 451.29L188.464 451.375ZM196.605 456.705C198.857 456.74 200.442 457.29 201.358 458.355C202.295 459.42 202.587 460.812 202.233 462.531L197.133 462.452C197.256 461.78 197.127 461.253 196.747 460.87C196.397 460.468 195.828 460.261 195.042 460.249C194.426 460.239 193.907 460.36 193.484 460.611C193.07 460.843 192.771 461.185 192.587 461.638C192.38 462.15 192.511 462.539 192.982 462.804C193.473 463.069 194.294 463.34 195.444 463.615C196.684 463.932 197.676 464.254 198.42 464.583C199.171 464.892 199.726 465.396 200.085 466.096C200.443 466.795 200.387 467.726 199.917 468.888C199.534 469.834 198.919 470.667 198.071 471.387C197.224 472.107 196.196 472.666 194.987 473.064C193.778 473.461 192.462 473.649 191.038 473.627C188.637 473.59 186.913 473.067 185.867 472.06C184.821 471.052 184.509 469.63 184.932 467.793L190.191 467.875C189.989 468.585 190.089 469.132 190.49 469.515C190.912 469.898 191.569 470.097 192.462 470.111C193.078 470.12 193.597 469.999 194.02 469.748C194.45 469.477 194.753 469.125 194.928 468.692C195.16 468.121 195.026 467.712 194.526 467.466C194.056 467.201 193.218 466.921 192.012 466.625C190.799 466.348 189.826 466.055 189.096 465.747C188.366 465.438 187.824 464.954 187.471 464.294C187.126 463.615 187.184 462.704 187.647 461.561C188.245 460.084 189.333 458.901 190.911 458.014C192.497 457.107 194.395 456.671 196.605 456.705Z" fill="white"/>
</svg>
