<svg xmlns="http://www.w3.org/2000/svg" viewBox="0 0 479.24 778.17"><defs><style>.cls-1{fill:#171d4d;}.cls-2,.cls-5{fill:none;}.cls-2,.cls-3,.cls-4,.cls-5,.cls-7{stroke:#fff;stroke-miterlimit:10;}.cls-2,.cls-3,.cls-7{stroke-width:3px;}.cls-3,.cls-4{fill:#4e668d;}.cls-4{stroke-width:2px;}.cls-6,.cls-8{fill:#fff;}.cls-7{fill:#0057ff;}.cls-8{font-size:32px;font-family:Poppins-Bold, Poppins;font-weight:700;}</style></defs><g id="Layer_2" data-name="Layer 2"><g id="Wielen"><rect class="cls-1" width="479.24" height="778.17"/><path class="cls-2" d="M141.77,138V499.23H143l-.15-.19V139H335.69v-1Zm1,361V464.75h-1v34.48H143Zm0,0V464.75h-1v34.48H143Zm0,0V464.75h-1v34.48H143Zm0,0V464.75h-1v34.48H143Zm0,0V464.75h-1v34.48H143Zm33.6,41.37h-75l.2.22h75ZM142.82,499V464.75h-1v34.48H143Zm0,0V464.75h-1v34.48H143Zm0,0V464.75h-1v34.48H143Zm0,0V464.75h-1v34.48H143Zm0,0V464.75h-1v34.48H143Zm159.59,41.37-.18.22h74.92l.21-.22ZM142.82,499V464.75h-1v34.48H143Z"/><polygon class="cls-3" points="335.69 540.63 335.69 585.88 308.02 616.07 286.17 639.91 239.6 690.74 239.23 690.74 193.06 640.36 170.79 616.07 141.77 584.41 141.77 540.63 176.59 540.63 193.06 560.9 237.86 616.07 239.41 617.99 240.97 616.07 286.17 560.4 302.23 540.63 335.69 540.63"/><line class="cls-2" x1="142.82" y1="275.12" x2="142.51" y2="275.34"/><line class="cls-2" x1="336.4" y1="138.98" x2="335.69" y2="139.48"/><line class="cls-2" x1="142.82" y1="320" x2="142.51" y2="320.21"/><polyline class="cls-2" points="335.69 189.19 336.4 188.71 336.66 188.53"/><line class="cls-2" x1="336.32" y1="450.28" x2="335.69" y2="449.86"/><line class="cls-2" x1="142.82" y1="321.72" x2="142.59" y2="321.57"/><line class="cls-2" x1="142.82" y1="370.49" x2="142.73" y2="370.43"/><line class="cls-2" x1="286.17" y1="465.33" x2="285.31" y2="464.75"/><line class="cls-2" x1="336.4" y1="498.55" x2="335.69" y2="498.09"/><rect class="cls-3" x="335.69" y="87.38" width="42.61" height="50.62"/><polygon class="cls-3" points="378.3 138.01 378.3 499.23 335.85 499.23 336.4 498.55 336.4 138.98 335.69 138.98 335.69 138.01 378.3 138.01"/><polygon class="cls-3" points="377.15 540.63 335.69 585.88 335.69 540.63 377.15 540.63"/><polygon class="cls-4" points="378.3 499.23 378.3 539.37 377.36 540.41 335.69 540.41 335.69 499.43 335.85 499.23 378.3 499.23"/><polyline class="cls-5" points="379.63 45.96 379.63 86.44 379.63 86.65 379.63 138.01 379.63 162.09 379.63 237.76 379.63 313.42 379.63 389.08 379.63 464.75 379.63 499.23 379.63 540.41 379.63 540.63 379.63 616.07 379.63 691.74 379.63 701.67"/><rect class="cls-3" x="100.93" y="138.01" width="40.84" height="361.22"/><polygon class="cls-4" points="141.77 499.23 141.77 540.41 101.44 540.41 100.93 539.85 100.93 499.23 141.77 499.23"/><polygon class="cls-3" points="141.77 540.63 141.77 584.41 101.64 540.63 141.77 540.63"/><polyline class="cls-5" points="99.67 48.7 99.67 86.44 99.67 86.65 99.67 138.01 99.67 162.09 99.67 237.76 99.67 313.42 99.67 389.08 99.67 464.75 99.67 499.23 99.67 540.41 99.67 540.63 99.67 616.07 99.67 691.74 99.67 698.86"/><rect class="cls-3" x="100.93" y="87.38" width="40.84" height="50.62"/><rect class="cls-3" x="141.77" y="87.38" width="193.92" height="50.62"/><polyline class="cls-5" points="422.19 86.65 379.63 86.65 379.29 86.65 335.69 86.65 286.17 86.65 193.06 86.65 141.77 86.65 99.95 86.65 99.67 86.65 60.09 86.65"/><polyline class="cls-5" points="378.3 138.01 379.29 138.01 379.63 138.01 421.24 138.01"/><polyline class="cls-5" points="100.93 138.01 99.95 138.01 99.67 138.01 57.52 138.01"/><polyline class="cls-5" points="335.69 701.73 335.69 691.74 335.69 616.07 335.69 585.88"/><polyline class="cls-5" points="335.69 499.43 335.69 499.23 335.69 498.09"/><line class="cls-5" x1="335.69" y1="139.48" x2="335.69" y2="138.98"/><polygon class="cls-3" points="335.69 139.48 335.69 189.19 286.17 222.77 264.07 237.76 193.06 285.94 152.53 313.42 142.82 320 142.82 275.12 193.06 239.79 195.94 237.76 286.17 174.3 303.54 162.09 335.69 139.48"/><polyline class="cls-5" points="335.69 449.86 335.69 389.08 335.69 313.42 335.69 237.76 335.69 189.19"/><polygon class="cls-4" points="335.69 499.43 335.69 540.41 302.41 540.41 335.69 499.43"/><line class="cls-5" x1="335.69" y1="540.63" x2="335.69" y2="540.41"/><polyline class="cls-5" points="335.69 87.38 335.69 86.65 335.69 86.44 335.69 46.43"/><polygon class="cls-3" points="176.42 540.41 141.77 540.41 141.77 499.23 142.97 499.23 176.42 540.41"/><polyline class="cls-5" points="141.77 699.33 141.77 691.74 141.77 616.07 141.77 584.41"/><line class="cls-5" x1="141.77" y1="540.63" x2="141.77" y2="540.41"/><polyline class="cls-5" points="141.77 87.38 141.77 86.65 141.77 86.44 141.77 48.3"/><polyline class="cls-5" points="377.15 540.63 379.29 540.63 379.63 540.63 420.68 540.63"/><polyline class="cls-5" points="302.23 540.63 286.17 540.63 193.06 540.63 176.59 540.63"/><polyline class="cls-5" points="101.64 540.63 99.95 540.63 99.67 540.63 65.53 540.63"/><polyline class="cls-5" points="420.68 499.23 379.63 499.23 379.29 499.23 378.3 499.23"/><polyline class="cls-5" points="65.37 499.23 99.67 499.23 99.95 499.23 100.93 499.23"/><polygon class="cls-3" points="286.17 465.33 335.69 498.09 335.69 449.86 286.17 416.96 244.21 389.08 193.06 355.09 142.82 321.72 142.82 370.49 170.93 389.08 193.06 403.72 285.31 464.75 286.17 465.33"/><polyline class="cls-5" points="142.97 499.23 193.06 499.23 286.17 499.23 335.69 499.23 335.85 499.23"/><path class="cls-6" d="M123.5,47.19l-2.9-4.28-2.49,4.28h-3.82l4.41-7.08-4.54-6.68h4l2.82,4.15,2.44-4.15h3.79l-4.34,6.93,4.64,6.83Z"/><path class="cls-6" d="M361.92,700.12l-2.9-4.28-2.49,4.28h-3.82l4.4-7.08-4.54-6.68h4l2.82,4.15,2.43-4.15h3.8l-4.34,6.93,4.63,6.83Z"/><path class="cls-6" d="M124,699.54l-2.9-4.28-2.49,4.28h-3.82l4.41-7.09-4.54-6.68h3.95l2.82,4.15,2.44-4.15h3.79l-4.34,6.94,4.64,6.83Z"/><path class="cls-6" d="M360.85,45.44,358,41.16l-2.5,4.28h-3.81l4.4-7.08-4.54-6.68h3.95l2.83,4.15,2.43-4.15h3.8l-4.34,6.93,4.63,6.83Z"/><rect class="cls-3" x="133.82" y="55.45" width="77.66" height="112.47" transform="translate(284.32 -60.96) rotate(90)"/><rect class="cls-3" x="89.37" y="88.63" width="7.88" height="46.11" transform="translate(204.99 18.37) rotate(90)"/><rect class="cls-3" x="266.63" y="54.45" width="77.66" height="112.47" transform="translate(194.77 416.14) rotate(-90)"/><rect class="cls-3" x="380.85" y="87.63" width="7.88" height="46.11" transform="translate(274.11 495.48) rotate(-90)"/><rect class="cls-7" x="391.44" y="55.01" width="71.99" height="119.59" rx="14.14"/><rect class="cls-7" x="17.37" y="55.01" width="71.99" height="119.59" rx="14.14"/><rect class="cls-4" x="70.24" y="516.63" width="37.46" height="7.81"/><rect class="cls-4" x="370.91" y="516.63" width="37.46" height="7.81"/><rect class="cls-7" x="391.24" y="461.55" width="71.99" height="119.59" rx="14.14"/><rect class="cls-7" x="17.17" y="461.55" width="71.99" height="119.59" rx="14.14"/><text class="cls-8" transform="translate(16.75 758.02)">The wheels</text></g></g></svg>